<svg width="793" height="746" viewBox="0 0 793 746" fill="none" xmlns="http://www.w3.org/2000/svg">
<g clip-path="url(#clip0_759_8628)">
<path d="M589.637 338.286C589.637 407.448 553.495 468.172 499.061 502.596C472.899 475.328 436.087 458.365 395.311 458.365C354.536 458.365 317.738 475.328 291.576 502.596C237.142 468.172 201 407.448 201 338.286C201 334.153 201.128 330.047 201.385 325.985C251.77 303.648 286.914 253.202 286.914 194.546C286.914 188.844 286.586 183.214 285.93 177.683C317.082 156.43 354.75 144 395.311 144C435.873 144 474.396 156.701 505.748 178.396C505.135 183.698 504.835 189.086 504.835 194.546C504.835 252.746 539.452 302.879 589.209 325.472C589.495 329.72 589.637 333.982 589.637 338.286Z" fill="white" stroke="white" stroke-miterlimit="10"/>
<path d="M252.181 602.26C252.181 618.381 254.832 633.89 259.737 648.358C140.618 595.959 57.4414 476.907 57.4414 338.441C57.4414 329.018 57.8263 319.696 58.582 310.474C82.42 328.063 111.875 338.441 143.769 338.441C164.499 338.441 184.216 334.05 202.009 326.139C201.753 330.202 201.625 334.307 201.625 338.441C201.625 407.603 237.767 468.326 292.201 502.75C267.422 528.579 252.181 563.63 252.181 602.26Z" fill="#9F936D"/>
<path d="M734.447 338.44C734.447 476.907 651.27 595.959 532.151 648.358C537.056 633.89 539.707 618.381 539.707 602.259C539.707 563.63 524.481 528.579 499.688 502.75C554.122 468.326 590.264 407.602 590.264 338.44C590.264 334.136 590.121 329.874 589.836 325.64C607.942 333.865 628.059 338.44 649.231 338.44C680.64 338.44 709.71 328.363 733.363 311.243C734.09 320.209 734.447 329.289 734.447 338.44Z" fill="#765862"/>
<path d="M592.244 62.7048C545.908 82.7178 512.19 126.422 506.373 178.55C475.021 156.855 436.954 144.154 395.936 144.154C354.918 144.154 317.707 156.584 286.555 177.837C280.467 125.766 246.549 82.1904 200.057 62.4054C255.346 23.1063 322.939 0 395.936 0C468.933 0 536.869 23.2203 592.244 62.7048Z" fill="#DBA346"/>
<path d="M287.539 194.7C287.539 253.356 252.395 303.802 202.01 326.139C205.859 264.489 238.465 210.65 286.555 177.837C287.211 183.368 287.539 188.998 287.539 194.7Z" fill="#FCEEB9"/>
<path d="M286.556 177.837C238.466 210.65 205.86 264.489 202.01 326.139C184.217 334.05 164.5 338.44 143.77 338.44C111.876 338.44 82.4209 328.063 58.5829 310.473C23.0539 284.317 0 242.195 0 194.7C0 115.317 64.3713 50.959 143.77 50.959C163.744 50.959 182.777 55.0357 200.057 62.4052C246.55 82.1902 280.468 125.766 286.556 177.837Z" fill="#F6C84E"/>
<path d="M539.707 602.259C539.707 618.381 537.055 633.89 532.15 648.358C512.946 705.133 459.225 746 395.937 746C332.649 746 278.957 705.133 259.738 648.372C254.833 633.89 252.182 618.381 252.182 602.259C252.182 563.63 267.423 528.579 292.202 502.75C322.213 521.737 357.785 532.727 395.937 532.727C434.089 532.727 469.675 521.737 499.687 502.75C524.48 528.579 539.707 563.63 539.707 602.259Z" fill="#A1A1A1"/>
<path d="M499.686 502.75C469.675 521.737 434.089 532.727 395.937 532.727C357.784 532.727 322.213 521.737 292.201 502.75C318.363 475.482 355.175 458.519 395.937 458.519C436.698 458.519 473.524 475.482 499.686 502.75Z" fill="#D0D0D0"/>
<path d="M792.627 194.741C792.627 242.721 769.117 285.199 732.989 311.284C709.336 328.403 680.266 338.481 648.857 338.481C627.685 338.481 607.568 333.906 589.462 325.681C585.512 264.672 553.405 211.375 506 178.59C511.817 126.462 545.535 82.7586 591.871 62.7456C609.336 55.1908 628.612 51 648.857 51C728.256 51 792.627 115.358 792.627 194.741Z" fill="#802740"/>
<path d="M589.835 325.626C540.077 303.033 505.461 252.9 505.461 194.7C505.461 189.241 505.76 183.852 506.373 178.55C553.779 211.335 585.886 264.632 589.835 325.626Z" fill="#E6D8DC"/>
<path d="M92.7185 204H84.8904L84.8875 186.727H93.2781C95.3953 186.758 96.8954 187.371 97.7784 188.566C98.3098 189.301 98.5756 190.18 98.5757 191.203C98.5759 192.258 98.3104 193.105 97.7793 193.746C97.4825 194.105 97.045 194.434 96.4669 194.73C97.3498 195.051 98.014 195.559 98.4594 196.254C98.9126 196.949 99.1393 197.793 99.1395 198.785C99.1397 199.809 98.882 200.727 98.3665 201.539C98.0385 202.078 97.6284 202.531 97.1363 202.898C96.5816 203.32 95.9254 203.609 95.1677 203.766C94.4177 203.922 93.6013 204 92.7185 204ZM92.6352 196.395H88.3344L88.3352 201H92.5774C93.3352 201 93.925 200.898 94.3468 200.695C95.1124 200.32 95.4951 199.602 95.4949 198.539C95.4948 197.641 95.1236 197.023 94.3813 196.688C93.9672 196.5 93.3852 196.402 92.6352 196.395ZM94.4276 193.102C94.8963 192.82 95.1306 192.316 95.1305 191.59C95.1304 190.785 94.8178 190.254 94.1927 189.996C93.6536 189.816 92.9661 189.727 92.1302 189.727H88.3333L88.3339 193.535H92.5761C93.3339 193.535 93.9511 193.391 94.4276 193.102ZM110.097 202.195C110.066 202.234 109.988 202.352 109.863 202.547C109.738 202.742 109.589 202.914 109.418 203.062C108.894 203.531 108.386 203.852 107.894 204.023C107.41 204.195 106.84 204.281 106.183 204.281C104.293 204.281 103.019 203.602 102.363 202.242C101.995 201.492 101.812 200.387 101.811 198.926L101.81 191.227H105.232L105.233 198.926C105.233 199.652 105.319 200.199 105.491 200.566C105.796 201.215 106.394 201.539 107.284 201.539C108.425 201.539 109.206 201.078 109.628 200.156C109.847 199.656 109.956 198.996 109.956 198.176L109.955 191.227H113.341L113.343 204H110.097L110.097 202.195ZM125.377 191.812C126.377 192.453 126.951 193.555 127.1 195.117H123.76C123.713 194.688 123.592 194.348 123.397 194.098C123.029 193.645 122.404 193.418 121.521 193.418C120.795 193.418 120.275 193.531 119.963 193.758C119.658 193.984 119.506 194.25 119.506 194.555C119.506 194.938 119.67 195.215 119.998 195.387C120.326 195.566 121.487 195.875 123.479 196.312C124.807 196.625 125.803 197.098 126.467 197.73C127.124 198.371 127.452 199.172 127.452 200.133C127.452 201.398 126.98 202.434 126.035 203.238C125.097 204.035 123.644 204.434 121.676 204.434C119.668 204.434 118.183 204.012 117.222 203.168C116.269 202.316 115.792 201.234 115.792 199.922H119.179C119.249 200.516 119.402 200.938 119.636 201.188C120.05 201.633 120.816 201.855 121.933 201.855C122.589 201.855 123.109 201.758 123.492 201.562C123.882 201.367 124.077 201.074 124.077 200.684C124.077 200.309 123.921 200.023 123.608 199.828C123.296 199.633 122.136 199.297 120.128 198.82C118.682 198.461 117.663 198.012 117.069 197.473C116.475 196.941 116.178 196.176 116.178 195.176C116.178 193.996 116.639 192.984 117.56 192.141C118.49 191.289 119.794 190.863 121.474 190.863C123.068 190.863 124.369 191.18 125.377 191.812ZM133.369 191.227L133.371 204H129.984L129.982 191.227H133.369ZM133.368 186.621L133.368 189.703H129.982L129.981 186.621H133.368ZM142.627 193.699C141.494 193.699 140.717 194.18 140.295 195.141C140.076 195.648 139.967 196.297 139.967 197.086L139.968 204H136.64L136.638 191.25H139.861L139.861 193.113C140.291 192.457 140.697 191.984 141.08 191.695C141.767 191.18 142.638 190.922 143.693 190.922C145.013 190.922 146.091 191.27 146.927 191.965C147.771 192.652 148.193 193.797 148.194 195.398L148.195 204H144.773L144.772 196.23C144.772 195.559 144.682 195.043 144.502 194.684C144.174 194.027 143.549 193.699 142.627 193.699ZM162.222 200.25C162.136 201.008 161.742 201.777 161.039 202.559C159.945 203.801 158.414 204.422 156.445 204.422C154.82 204.422 153.386 203.898 152.144 202.852C150.902 201.805 150.28 200.102 150.28 197.742C150.28 195.531 150.838 193.836 151.955 192.656C153.08 191.477 154.537 190.887 156.326 190.887C157.388 190.887 158.345 191.086 159.197 191.484C160.049 191.883 160.752 192.512 161.307 193.371C161.807 194.129 162.131 195.008 162.28 196.008C162.366 196.594 162.401 197.438 162.386 198.539H153.643C153.69 199.82 154.093 200.719 154.851 201.234C155.312 201.555 155.867 201.715 156.515 201.715C157.202 201.715 157.761 201.52 158.191 201.129C158.425 200.918 158.632 200.625 158.812 200.25H162.222ZM158.916 196.336C158.862 195.453 158.592 194.785 158.108 194.332C157.631 193.871 157.037 193.641 156.326 193.641C155.553 193.641 154.951 193.883 154.522 194.367C154.1 194.852 153.834 195.508 153.725 196.336H158.916ZM173.447 191.812C174.447 192.453 175.021 193.555 175.17 195.117H171.83C171.783 194.688 171.662 194.348 171.467 194.098C171.1 193.645 170.475 193.418 169.592 193.418C168.865 193.418 168.346 193.531 168.033 193.758C167.729 193.984 167.576 194.25 167.576 194.555C167.576 194.938 167.74 195.215 168.069 195.387C168.397 195.566 169.557 195.875 171.549 196.312C172.877 196.625 173.874 197.098 174.538 197.73C175.194 198.371 175.522 199.172 175.523 200.133C175.523 201.398 175.05 202.434 174.105 203.238C173.168 204.035 171.715 204.434 169.746 204.434C167.738 204.434 166.254 204.012 165.293 203.168C164.339 202.316 163.863 201.234 163.862 199.922H167.249C167.319 200.516 167.472 200.938 167.706 201.188C168.12 201.633 168.886 201.855 170.003 201.855C170.66 201.855 171.179 201.758 171.562 201.562C171.952 201.367 172.148 201.074 172.148 200.684C172.148 200.309 171.991 200.023 171.679 199.828C171.366 199.633 170.206 199.297 168.198 198.82C166.753 198.461 165.733 198.012 165.139 197.473C164.545 196.941 164.248 196.176 164.248 195.176C164.248 193.996 164.709 192.984 165.631 192.141C166.56 191.289 167.865 190.863 169.544 190.863C171.138 190.863 172.439 191.18 173.447 191.812ZM186.806 191.812C187.806 192.453 188.381 193.555 188.53 195.117H185.19C185.143 194.688 185.022 194.348 184.826 194.098C184.459 193.645 183.834 193.418 182.951 193.418C182.225 193.418 181.705 193.531 181.393 193.758C181.088 193.984 180.936 194.25 180.936 194.555C180.936 194.938 181.1 195.215 181.428 195.387C181.756 195.566 182.916 195.875 184.909 196.312C186.237 196.625 187.233 197.098 187.897 197.73C188.553 198.371 188.882 199.172 188.882 200.133C188.882 201.398 188.41 202.434 187.464 203.238C186.527 204.035 185.074 204.434 183.105 204.434C181.097 204.434 179.613 204.012 178.652 203.168C177.699 202.316 177.222 201.234 177.222 199.922H180.608C180.679 200.516 180.831 200.938 181.066 201.188C181.48 201.633 182.245 201.855 183.363 201.855C184.019 201.855 184.538 201.758 184.921 201.562C185.312 201.367 185.507 201.074 185.507 200.684C185.507 200.309 185.351 200.023 185.038 199.828C184.726 199.633 183.565 199.297 181.557 198.82C180.112 198.461 179.092 198.012 178.499 197.473C177.905 196.941 177.608 196.176 177.608 195.176C177.607 193.996 178.068 192.984 178.99 192.141C179.92 191.289 181.224 190.863 182.904 190.863C184.498 190.863 185.798 191.18 186.806 191.812Z" fill="black"/>
<path d="M601.942 187.449H595.579L594.383 191H590.609L596.776 173.727H600.855L606.969 191H603.055L601.942 187.449ZM600.935 184.473L598.78 177.676L596.552 184.473H600.935ZM612.511 193.238C612.871 193.543 613.476 193.695 614.328 193.695C615.531 193.695 616.335 193.293 616.742 192.488C617.008 191.973 617.14 191.105 617.141 189.887L617.141 189.066C616.82 189.613 616.477 190.023 616.109 190.297C615.445 190.805 614.582 191.059 613.519 191.059C611.879 191.059 610.566 190.484 609.582 189.336C608.606 188.18 608.118 186.617 608.118 184.648C608.119 182.75 608.592 181.156 609.537 179.867C610.483 178.57 611.823 177.922 613.557 177.922C614.198 177.922 614.756 178.02 615.233 178.215C616.045 178.551 616.701 179.168 617.201 180.066L617.201 178.227H620.448L620.445 190.344C620.445 191.992 620.167 193.234 619.613 194.07C618.659 195.508 616.831 196.227 614.128 196.227C612.495 196.227 611.163 195.906 610.132 195.266C609.101 194.625 608.531 193.668 608.422 192.395H612.054C612.148 192.785 612.3 193.066 612.511 193.238ZM611.95 186.641C612.403 187.719 613.215 188.258 614.387 188.258C615.168 188.258 615.829 187.965 616.368 187.379C616.907 186.785 617.177 185.844 617.177 184.555C617.177 183.344 616.919 182.422 616.404 181.789C615.896 181.156 615.213 180.84 614.353 180.84C613.181 180.84 612.373 181.391 611.927 182.492C611.693 183.078 611.575 183.801 611.575 184.66C611.575 185.402 611.7 186.062 611.95 186.641ZM629.998 181.309C628.654 181.309 627.752 181.746 627.29 182.621C627.033 183.113 626.904 183.871 626.903 184.895L626.902 191H623.539L623.541 178.227H626.729L626.728 180.453C627.244 179.602 627.693 179.02 628.076 178.707C628.701 178.184 629.514 177.922 630.514 177.922C630.576 177.922 630.627 177.926 630.666 177.934C630.713 177.934 630.811 177.938 630.959 177.945L630.959 181.367C630.748 181.344 630.56 181.328 630.396 181.32C630.232 181.312 630.099 181.309 629.998 181.309ZM636.362 178.227L636.359 191H632.973L632.975 178.227H636.362ZM636.362 173.621L636.362 176.703H632.975L632.976 173.621H636.362ZM650.658 182.809H647.236C647.173 182.332 647.013 181.902 646.756 181.52C646.381 181.004 645.799 180.746 645.01 180.746C643.885 180.746 643.115 181.305 642.701 182.422C642.482 183.016 642.372 183.805 642.372 184.789C642.372 185.727 642.481 186.48 642.7 187.051C643.098 188.113 643.848 188.645 644.95 188.645C645.731 188.645 646.286 188.434 646.614 188.012C646.942 187.59 647.141 187.043 647.212 186.371H650.622C650.544 187.387 650.176 188.348 649.52 189.254C648.473 190.715 646.922 191.445 644.867 191.445C642.812 191.445 641.301 190.836 640.332 189.617C639.364 188.398 638.88 186.816 638.88 184.871C638.88 182.676 639.416 180.969 640.486 179.75C641.557 178.531 643.034 177.922 644.916 177.922C646.518 177.922 647.826 178.281 648.842 179C649.865 179.719 650.47 180.988 650.658 182.809ZM661.156 189.195C661.125 189.234 661.047 189.352 660.922 189.547C660.797 189.742 660.649 189.914 660.477 190.062C659.953 190.531 659.445 190.852 658.953 191.023C658.469 191.195 657.898 191.281 657.242 191.281C655.351 191.281 654.078 190.602 653.422 189.242C653.055 188.492 652.872 187.387 652.872 185.926L652.873 178.227H656.295L656.294 185.926C656.294 186.652 656.379 187.199 656.551 187.566C656.856 188.215 657.453 188.539 658.344 188.539C659.485 188.539 660.266 188.078 660.688 187.156C660.907 186.656 661.016 185.996 661.017 185.176L661.018 178.227H664.405L664.402 191H661.156L661.156 189.195ZM667.71 173.727H671.05L671.047 191H667.707L667.71 173.727ZM680.164 188.621L680.164 191.117L678.582 191.176C677.004 191.23 675.926 190.957 675.348 190.355C674.973 189.973 674.785 189.383 674.785 188.586L674.787 180.723H673.006L673.006 178.344H674.787L674.788 174.781H678.093L678.092 178.344H680.166L680.166 180.723H678.092L678.09 187.473C678.09 187.996 678.157 188.324 678.289 188.457C678.422 188.582 678.828 188.645 679.508 188.645C679.61 188.645 679.715 188.645 679.825 188.645C679.942 188.637 680.055 188.629 680.164 188.621ZM690.5 189.195C690.469 189.234 690.391 189.352 690.266 189.547C690.141 189.742 689.992 189.914 689.82 190.062C689.297 190.531 688.789 190.852 688.297 191.023C687.812 191.195 687.242 191.281 686.586 191.281C684.695 191.281 683.422 190.602 682.766 189.242C682.399 188.492 682.215 187.387 682.216 185.926L682.217 178.227H685.639L685.638 185.926C685.637 186.652 685.723 187.199 685.895 187.566C686.2 188.215 686.797 188.539 687.688 188.539C688.828 188.539 689.61 188.078 690.032 187.156C690.251 186.656 690.36 185.996 690.36 185.176L690.362 178.227H693.748L693.746 191H690.5L690.5 189.195ZM703.404 181.309C702.06 181.309 701.158 181.746 700.697 182.621C700.439 183.113 700.31 183.871 700.31 184.895L700.308 191H696.945L696.948 178.227H700.135L700.135 180.453C700.65 179.602 701.1 179.02 701.483 178.707C702.108 178.184 702.92 177.922 703.92 177.922C703.983 177.922 704.034 177.926 704.073 177.934C704.119 177.934 704.217 177.938 704.366 177.945L704.365 181.367C704.154 181.344 703.967 181.328 703.802 181.32C703.638 181.312 703.506 181.309 703.404 181.309ZM717.266 187.25C717.18 188.008 716.785 188.777 716.082 189.559C714.988 190.801 713.457 191.422 711.488 191.422C709.863 191.422 708.43 190.898 707.188 189.852C705.946 188.805 705.325 187.102 705.325 184.742C705.326 182.531 705.885 180.836 707.002 179.656C708.127 178.477 709.584 177.887 711.373 177.887C712.436 177.887 713.393 178.086 714.244 178.484C715.096 178.883 715.799 179.512 716.353 180.371C716.853 181.129 717.177 182.008 717.326 183.008C717.411 183.594 717.446 184.438 717.431 185.539H708.688C708.735 186.82 709.137 187.719 709.895 188.234C710.356 188.555 710.91 188.715 711.559 188.715C712.246 188.715 712.805 188.52 713.235 188.129C713.469 187.918 713.676 187.625 713.856 187.25H717.266ZM713.962 183.336C713.908 182.453 713.638 181.785 713.154 181.332C712.678 180.871 712.084 180.641 711.373 180.641C710.599 180.641 709.998 180.883 709.568 181.367C709.146 181.852 708.88 182.508 708.771 183.336H713.962Z" fill="white"/>
<path d="M317.188 612H313.578L306.523 599.73V612H303.16V594.727H306.945L313.824 606.785V594.727H317.188V612ZM320.773 600.609C321.656 599.484 323.172 598.922 325.32 598.922C326.719 598.922 327.961 599.199 329.047 599.754C330.133 600.309 330.676 601.355 330.676 602.895V608.754C330.676 609.16 330.684 609.652 330.699 610.23C330.723 610.668 330.789 610.965 330.898 611.121C331.008 611.277 331.172 611.406 331.391 611.508V612H327.758C327.656 611.742 327.586 611.5 327.547 611.273C327.508 611.047 327.477 610.789 327.453 610.5C326.992 611 326.461 611.426 325.859 611.777C325.141 612.191 324.328 612.398 323.422 612.398C322.266 612.398 321.309 612.07 320.551 611.414C319.801 610.75 319.426 609.812 319.426 608.602C319.426 607.031 320.031 605.895 321.242 605.191C321.906 604.809 322.883 604.535 324.172 604.371L325.309 604.23C325.926 604.152 326.367 604.055 326.633 603.938C327.109 603.734 327.348 603.418 327.348 602.988C327.348 602.465 327.164 602.105 326.797 601.91C326.438 601.707 325.906 601.605 325.203 601.605C324.414 601.605 323.855 601.801 323.527 602.191C323.293 602.48 323.137 602.871 323.059 603.363H319.836C319.906 602.246 320.219 601.328 320.773 600.609ZM323.258 609.586C323.57 609.844 323.953 609.973 324.406 609.973C325.125 609.973 325.785 609.762 326.387 609.34C326.996 608.918 327.312 608.148 327.336 607.031V605.789C327.125 605.922 326.91 606.031 326.691 606.117C326.48 606.195 326.188 606.27 325.812 606.34L325.062 606.48C324.359 606.605 323.855 606.758 323.551 606.938C323.035 607.242 322.777 607.715 322.777 608.355C322.777 608.926 322.938 609.336 323.258 609.586ZM339.5 609.621V612.117L337.918 612.176C336.34 612.23 335.262 611.957 334.684 611.355C334.309 610.973 334.121 610.383 334.121 609.586V601.723H332.34V599.344H334.121V595.781H337.426V599.344H339.5V601.723H337.426V608.473C337.426 608.996 337.492 609.324 337.625 609.457C337.758 609.582 338.164 609.645 338.844 609.645C338.945 609.645 339.051 609.645 339.16 609.645C339.277 609.637 339.391 609.629 339.5 609.621ZM345.078 599.227V612H341.691V599.227H345.078ZM345.078 594.621V597.703H341.691V594.621H345.078ZM358.977 600.844C360.055 602.195 360.594 603.793 360.594 605.637C360.594 607.512 360.055 609.117 358.977 610.453C357.898 611.781 356.262 612.445 354.066 612.445C351.871 612.445 350.234 611.781 349.156 610.453C348.078 609.117 347.539 607.512 347.539 605.637C347.539 603.793 348.078 602.195 349.156 600.844C350.234 599.492 351.871 598.816 354.066 598.816C356.262 598.816 357.898 599.492 358.977 600.844ZM354.055 601.641C353.078 601.641 352.324 601.988 351.793 602.684C351.27 603.371 351.008 604.355 351.008 605.637C351.008 606.918 351.27 607.906 351.793 608.602C352.324 609.297 353.078 609.645 354.055 609.645C355.031 609.645 355.781 609.297 356.305 608.602C356.828 607.906 357.09 606.918 357.09 605.637C357.09 604.355 356.828 603.371 356.305 602.684C355.781 601.988 355.031 601.641 354.055 601.641ZM369.008 601.699C367.875 601.699 367.098 602.18 366.676 603.141C366.457 603.648 366.348 604.297 366.348 605.086V612H363.02V599.25H366.242V601.113C366.672 600.457 367.078 599.984 367.461 599.695C368.148 599.18 369.02 598.922 370.074 598.922C371.395 598.922 372.473 599.27 373.309 599.965C374.152 600.652 374.574 601.797 374.574 603.398V612H371.152V604.23C371.152 603.559 371.062 603.043 370.883 602.684C370.555 602.027 369.93 601.699 369.008 601.699ZM378.148 600.609C379.031 599.484 380.547 598.922 382.695 598.922C384.094 598.922 385.336 599.199 386.422 599.754C387.508 600.309 388.051 601.355 388.051 602.895V608.754C388.051 609.16 388.059 609.652 388.074 610.23C388.098 610.668 388.164 610.965 388.273 611.121C388.383 611.277 388.547 611.406 388.766 611.508V612H385.133C385.031 611.742 384.961 611.5 384.922 611.273C384.883 611.047 384.852 610.789 384.828 610.5C384.367 611 383.836 611.426 383.234 611.777C382.516 612.191 381.703 612.398 380.797 612.398C379.641 612.398 378.684 612.07 377.926 611.414C377.176 610.75 376.801 609.812 376.801 608.602C376.801 607.031 377.406 605.895 378.617 605.191C379.281 604.809 380.258 604.535 381.547 604.371L382.684 604.23C383.301 604.152 383.742 604.055 384.008 603.938C384.484 603.734 384.723 603.418 384.723 602.988C384.723 602.465 384.539 602.105 384.172 601.91C383.812 601.707 383.281 601.605 382.578 601.605C381.789 601.605 381.23 601.801 380.902 602.191C380.668 602.48 380.512 602.871 380.434 603.363H377.211C377.281 602.246 377.594 601.328 378.148 600.609ZM380.633 609.586C380.945 609.844 381.328 609.973 381.781 609.973C382.5 609.973 383.16 609.762 383.762 609.34C384.371 608.918 384.688 608.148 384.711 607.031V605.789C384.5 605.922 384.285 606.031 384.066 606.117C383.855 606.195 383.562 606.27 383.188 606.34L382.438 606.48C381.734 606.605 381.23 606.758 380.926 606.938C380.41 607.242 380.152 607.715 380.152 608.355C380.152 608.926 380.312 609.336 380.633 609.586ZM391.098 594.727H394.438V612H391.098V594.727ZM410.926 609.504C411.777 609.504 412.469 609.41 413 609.223C414.008 608.863 414.512 608.195 414.512 607.219C414.512 606.648 414.262 606.207 413.762 605.895C413.262 605.59 412.477 605.32 411.406 605.086L409.578 604.676C407.781 604.27 406.539 603.828 405.852 603.352C404.688 602.555 404.105 601.309 404.105 599.613C404.105 598.066 404.668 596.781 405.793 595.758C406.918 594.734 408.57 594.223 410.75 594.223C412.57 594.223 414.121 594.707 415.402 595.676C416.691 596.637 417.367 598.035 417.43 599.871H413.961C413.898 598.832 413.445 598.094 412.602 597.656C412.039 597.367 411.34 597.223 410.504 597.223C409.574 597.223 408.832 597.41 408.277 597.785C407.723 598.16 407.445 598.684 407.445 599.355C407.445 599.973 407.719 600.434 408.266 600.738C408.617 600.941 409.367 601.18 410.516 601.453L413.492 602.168C414.797 602.48 415.781 602.898 416.445 603.422C417.477 604.234 417.992 605.41 417.992 606.949C417.992 608.527 417.387 609.84 416.176 610.887C414.973 611.926 413.27 612.445 411.066 612.445C408.816 612.445 407.047 611.934 405.758 610.91C404.469 609.879 403.824 608.465 403.824 606.668H407.27C407.379 607.457 407.594 608.047 407.914 608.438C408.5 609.148 409.504 609.504 410.926 609.504ZM431.328 608.25C431.242 609.008 430.848 609.777 430.145 610.559C429.051 611.801 427.52 612.422 425.551 612.422C423.926 612.422 422.492 611.898 421.25 610.852C420.008 609.805 419.387 608.102 419.387 605.742C419.387 603.531 419.945 601.836 421.062 600.656C422.188 599.477 423.645 598.887 425.434 598.887C426.496 598.887 427.453 599.086 428.305 599.484C429.156 599.883 429.859 600.512 430.414 601.371C430.914 602.129 431.238 603.008 431.387 604.008C431.473 604.594 431.508 605.438 431.492 606.539H422.75C422.797 607.82 423.199 608.719 423.957 609.234C424.418 609.555 424.973 609.715 425.621 609.715C426.309 609.715 426.867 609.52 427.297 609.129C427.531 608.918 427.738 608.625 427.918 608.25H431.328ZM428.023 604.336C427.969 603.453 427.699 602.785 427.215 602.332C426.738 601.871 426.145 601.641 425.434 601.641C424.66 601.641 424.059 601.883 423.629 602.367C423.207 602.852 422.941 603.508 422.832 604.336H428.023ZM444.805 603.809H441.383C441.32 603.332 441.16 602.902 440.902 602.52C440.527 602.004 439.945 601.746 439.156 601.746C438.031 601.746 437.262 602.305 436.848 603.422C436.629 604.016 436.52 604.805 436.52 605.789C436.52 606.727 436.629 607.48 436.848 608.051C437.246 609.113 437.996 609.645 439.098 609.645C439.879 609.645 440.434 609.434 440.762 609.012C441.09 608.59 441.289 608.043 441.359 607.371H444.77C444.691 608.387 444.324 609.348 443.668 610.254C442.621 611.715 441.07 612.445 439.016 612.445C436.961 612.445 435.449 611.836 434.48 610.617C433.512 609.398 433.027 607.816 433.027 605.871C433.027 603.676 433.562 601.969 434.633 600.75C435.703 599.531 437.18 598.922 439.062 598.922C440.664 598.922 441.973 599.281 442.988 600C444.012 600.719 444.617 601.988 444.805 603.809ZM455.305 610.195C455.273 610.234 455.195 610.352 455.07 610.547C454.945 610.742 454.797 610.914 454.625 611.062C454.102 611.531 453.594 611.852 453.102 612.023C452.617 612.195 452.047 612.281 451.391 612.281C449.5 612.281 448.227 611.602 447.57 610.242C447.203 609.492 447.02 608.387 447.02 606.926V599.227H450.441V606.926C450.441 607.652 450.527 608.199 450.699 608.566C451.004 609.215 451.602 609.539 452.492 609.539C453.633 609.539 454.414 609.078 454.836 608.156C455.055 607.656 455.164 606.996 455.164 606.176V599.227H458.551V612H455.305V610.195ZM468.207 602.309C466.863 602.309 465.961 602.746 465.5 603.621C465.242 604.113 465.113 604.871 465.113 605.895V612H461.75V599.227H464.938V601.453C465.453 600.602 465.902 600.02 466.285 599.707C466.91 599.184 467.723 598.922 468.723 598.922C468.785 598.922 468.836 598.926 468.875 598.934C468.922 598.934 469.02 598.938 469.168 598.945V602.367C468.957 602.344 468.77 602.328 468.605 602.32C468.441 602.312 468.309 602.309 468.207 602.309ZM474.57 599.227V612H471.184V599.227H474.57ZM474.57 594.621V597.703H471.184V594.621H474.57ZM483.664 609.621V612.117L482.082 612.176C480.504 612.23 479.426 611.957 478.848 611.355C478.473 610.973 478.285 610.383 478.285 609.586V601.723H476.504V599.344H478.285V595.781H481.59V599.344H483.664V601.723H481.59V608.473C481.59 608.996 481.656 609.324 481.789 609.457C481.922 609.582 482.328 609.645 483.008 609.645C483.109 609.645 483.215 609.645 483.324 609.645C483.441 609.637 483.555 609.629 483.664 609.621ZM491 608.648L493.637 599.227H497.188L492.805 611.789C491.961 614.211 491.293 615.711 490.801 616.289C490.309 616.875 489.324 617.168 487.848 617.168C487.551 617.168 487.312 617.164 487.133 617.156C486.953 617.156 486.684 617.145 486.324 617.121V614.449L486.746 614.473C487.074 614.488 487.387 614.477 487.684 614.438C487.98 614.398 488.23 614.309 488.434 614.168C488.629 614.035 488.809 613.758 488.973 613.336C489.145 612.914 489.215 612.656 489.184 612.562L484.496 599.227H488.211L491 608.648ZM330.125 628.609C331.008 627.484 332.523 626.922 334.672 626.922C336.07 626.922 337.312 627.199 338.398 627.754C339.484 628.309 340.027 629.355 340.027 630.895V636.754C340.027 637.16 340.035 637.652 340.051 638.23C340.074 638.668 340.141 638.965 340.25 639.121C340.359 639.277 340.523 639.406 340.742 639.508V640H337.109C337.008 639.742 336.938 639.5 336.898 639.273C336.859 639.047 336.828 638.789 336.805 638.5C336.344 639 335.812 639.426 335.211 639.777C334.492 640.191 333.68 640.398 332.773 640.398C331.617 640.398 330.66 640.07 329.902 639.414C329.152 638.75 328.777 637.812 328.777 636.602C328.777 635.031 329.383 633.895 330.594 633.191C331.258 632.809 332.234 632.535 333.523 632.371L334.66 632.23C335.277 632.152 335.719 632.055 335.984 631.938C336.461 631.734 336.699 631.418 336.699 630.988C336.699 630.465 336.516 630.105 336.148 629.91C335.789 629.707 335.258 629.605 334.555 629.605C333.766 629.605 333.207 629.801 332.879 630.191C332.645 630.48 332.488 630.871 332.41 631.363H329.188C329.258 630.246 329.57 629.328 330.125 628.609ZM332.609 637.586C332.922 637.844 333.305 637.973 333.758 637.973C334.477 637.973 335.137 637.762 335.738 637.34C336.348 636.918 336.664 636.148 336.688 635.031V633.789C336.477 633.922 336.262 634.031 336.043 634.117C335.832 634.195 335.539 634.27 335.164 634.34L334.414 634.48C333.711 634.605 333.207 634.758 332.902 634.938C332.387 635.242 332.129 635.715 332.129 636.355C332.129 636.926 332.289 637.336 332.609 637.586ZM349.016 629.699C347.883 629.699 347.105 630.18 346.684 631.141C346.465 631.648 346.355 632.297 346.355 633.086V640H343.027V627.25H346.25V629.113C346.68 628.457 347.086 627.984 347.469 627.695C348.156 627.18 349.027 626.922 350.082 626.922C351.402 626.922 352.48 627.27 353.316 627.965C354.16 628.652 354.582 629.797 354.582 631.398V640H351.16V632.23C351.16 631.559 351.07 631.043 350.891 630.684C350.562 630.027 349.938 629.699 349.016 629.699ZM369.301 622.75V640H366.055V638.23C365.578 638.988 365.035 639.539 364.426 639.883C363.816 640.227 363.059 640.398 362.152 640.398C360.66 640.398 359.402 639.797 358.379 638.594C357.363 637.383 356.855 635.832 356.855 633.941C356.855 631.762 357.355 630.047 358.355 628.797C359.363 627.547 360.707 626.922 362.387 626.922C363.16 626.922 363.848 627.094 364.449 627.438C365.051 627.773 365.539 628.242 365.914 628.844V622.75H369.301ZM360.301 633.695C360.301 634.875 360.535 635.816 361.004 636.52C361.465 637.23 362.168 637.586 363.113 637.586C364.059 637.586 364.777 637.234 365.27 636.531C365.762 635.828 366.008 634.918 366.008 633.801C366.008 632.238 365.613 631.121 364.824 630.449C364.34 630.043 363.777 629.84 363.137 629.84C362.16 629.84 361.441 630.211 360.98 630.953C360.527 631.688 360.301 632.602 360.301 633.695ZM386.738 640H379.297V622.727H386.738C387.809 622.742 388.699 622.867 389.41 623.102C390.621 623.5 391.602 624.23 392.352 625.293C392.953 626.152 393.363 627.082 393.582 628.082C393.801 629.082 393.91 630.035 393.91 630.941C393.91 633.238 393.449 635.184 392.527 636.777C391.277 638.926 389.348 640 386.738 640ZM389.422 627.133C388.867 626.195 387.77 625.727 386.129 625.727H382.801V637H386.129C387.832 637 389.02 636.16 389.691 634.48C390.059 633.559 390.242 632.461 390.242 631.188C390.242 629.43 389.969 628.078 389.422 627.133ZM407.305 636.25C407.219 637.008 406.824 637.777 406.121 638.559C405.027 639.801 403.496 640.422 401.527 640.422C399.902 640.422 398.469 639.898 397.227 638.852C395.984 637.805 395.363 636.102 395.363 633.742C395.363 631.531 395.922 629.836 397.039 628.656C398.164 627.477 399.621 626.887 401.41 626.887C402.473 626.887 403.43 627.086 404.281 627.484C405.133 627.883 405.836 628.512 406.391 629.371C406.891 630.129 407.215 631.008 407.363 632.008C407.449 632.594 407.484 633.438 407.469 634.539H398.727C398.773 635.82 399.176 636.719 399.934 637.234C400.395 637.555 400.949 637.715 401.598 637.715C402.285 637.715 402.844 637.52 403.273 637.129C403.508 636.918 403.715 636.625 403.895 636.25H407.305ZM404 632.336C403.945 631.453 403.676 630.785 403.191 630.332C402.715 629.871 402.121 629.641 401.41 629.641C400.637 629.641 400.035 629.883 399.605 630.367C399.184 630.852 398.918 631.508 398.809 632.336H404ZM415.719 622.621V625.34C415.531 625.316 415.215 625.301 414.77 625.293C414.332 625.277 414.027 625.375 413.855 625.586C413.691 625.789 413.609 626.016 413.609 626.266V627.344H415.801V629.699H413.609V640H410.281V629.699H408.418V627.344H410.246V626.523C410.246 625.156 410.477 624.215 410.938 623.699C411.422 622.934 412.59 622.551 414.441 622.551C414.652 622.551 414.844 622.559 415.016 622.574C415.188 622.582 415.422 622.598 415.719 622.621ZM428.656 636.25C428.57 637.008 428.176 637.777 427.473 638.559C426.379 639.801 424.848 640.422 422.879 640.422C421.254 640.422 419.82 639.898 418.578 638.852C417.336 637.805 416.715 636.102 416.715 633.742C416.715 631.531 417.273 629.836 418.391 628.656C419.516 627.477 420.973 626.887 422.762 626.887C423.824 626.887 424.781 627.086 425.633 627.484C426.484 627.883 427.188 628.512 427.742 629.371C428.242 630.129 428.566 631.008 428.715 632.008C428.801 632.594 428.836 633.438 428.82 634.539H420.078C420.125 635.82 420.527 636.719 421.285 637.234C421.746 637.555 422.301 637.715 422.949 637.715C423.637 637.715 424.195 637.52 424.625 637.129C424.859 636.918 425.066 636.625 425.246 636.25H428.656ZM425.352 632.336C425.297 631.453 425.027 630.785 424.543 630.332C424.066 629.871 423.473 629.641 422.762 629.641C421.988 629.641 421.387 629.883 420.957 630.367C420.535 630.852 420.27 631.508 420.16 632.336H425.352ZM437.094 629.699C435.961 629.699 435.184 630.18 434.762 631.141C434.543 631.648 434.434 632.297 434.434 633.086V640H431.105V627.25H434.328V629.113C434.758 628.457 435.164 627.984 435.547 627.695C436.234 627.18 437.105 626.922 438.16 626.922C439.48 626.922 440.559 627.27 441.395 627.965C442.238 628.652 442.66 629.797 442.66 631.398V640H439.238V632.23C439.238 631.559 439.148 631.043 438.969 630.684C438.641 630.027 438.016 629.699 437.094 629.699ZM454.555 627.812C455.555 628.453 456.129 629.555 456.277 631.117H452.938C452.891 630.688 452.77 630.348 452.574 630.098C452.207 629.645 451.582 629.418 450.699 629.418C449.973 629.418 449.453 629.531 449.141 629.758C448.836 629.984 448.684 630.25 448.684 630.555C448.684 630.938 448.848 631.215 449.176 631.387C449.504 631.566 450.664 631.875 452.656 632.312C453.984 632.625 454.98 633.098 455.645 633.73C456.301 634.371 456.629 635.172 456.629 636.133C456.629 637.398 456.156 638.434 455.211 639.238C454.273 640.035 452.82 640.434 450.852 640.434C448.844 640.434 447.359 640.012 446.398 639.168C445.445 638.316 444.969 637.234 444.969 635.922H448.355C448.426 636.516 448.578 636.938 448.812 637.188C449.227 637.633 449.992 637.855 451.109 637.855C451.766 637.855 452.285 637.758 452.668 637.562C453.059 637.367 453.254 637.074 453.254 636.684C453.254 636.309 453.098 636.023 452.785 635.828C452.473 635.633 451.312 635.297 449.305 634.82C447.859 634.461 446.84 634.012 446.246 633.473C445.652 632.941 445.355 632.176 445.355 631.176C445.355 629.996 445.816 628.984 446.738 628.141C447.668 627.289 448.973 626.863 450.652 626.863C452.246 626.863 453.547 627.18 454.555 627.812ZM470.047 636.25C469.961 637.008 469.566 637.777 468.863 638.559C467.77 639.801 466.238 640.422 464.27 640.422C462.645 640.422 461.211 639.898 459.969 638.852C458.727 637.805 458.105 636.102 458.105 633.742C458.105 631.531 458.664 629.836 459.781 628.656C460.906 627.477 462.363 626.887 464.152 626.887C465.215 626.887 466.172 627.086 467.023 627.484C467.875 627.883 468.578 628.512 469.133 629.371C469.633 630.129 469.957 631.008 470.105 632.008C470.191 632.594 470.227 633.438 470.211 634.539H461.469C461.516 635.82 461.918 636.719 462.676 637.234C463.137 637.555 463.691 637.715 464.34 637.715C465.027 637.715 465.586 637.52 466.016 637.129C466.25 636.918 466.457 636.625 466.637 636.25H470.047ZM466.742 632.336C466.688 631.453 466.418 630.785 465.934 630.332C465.457 629.871 464.863 629.641 464.152 629.641C463.379 629.641 462.777 629.883 462.348 630.367C461.926 630.852 461.66 631.508 461.551 632.336H466.742Z" fill="black"/>
<path d="M308.234 306.266H299.75L298.156 311H293.125L301.344 287.969H306.781L314.938 311H309.719L308.234 306.266ZM306.891 302.297L304.016 293.234L301.047 302.297H306.891ZM322.328 313.984C322.807 314.391 323.615 314.594 324.75 314.594C326.354 314.594 327.427 314.057 327.969 312.984C328.323 312.297 328.5 311.141 328.5 309.516V308.422C328.073 309.151 327.615 309.698 327.125 310.062C326.24 310.74 325.089 311.078 323.672 311.078C321.484 311.078 319.734 310.312 318.422 308.781C317.12 307.24 316.469 305.156 316.469 302.531C316.469 300 317.099 297.875 318.359 296.156C319.62 294.427 321.406 293.562 323.719 293.562C324.573 293.562 325.318 293.693 325.953 293.953C327.036 294.401 327.911 295.224 328.578 296.422V293.969H332.906V310.125C332.906 312.323 332.536 313.979 331.797 315.094C330.526 317.01 328.089 317.969 324.484 317.969C322.307 317.969 320.531 317.542 319.156 316.688C317.781 315.833 317.021 314.557 316.875 312.859H321.719C321.844 313.38 322.047 313.755 322.328 313.984ZM321.578 305.188C322.182 306.625 323.266 307.344 324.828 307.344C325.87 307.344 326.75 306.953 327.469 306.172C328.188 305.38 328.547 304.125 328.547 302.406C328.547 300.792 328.203 299.562 327.516 298.719C326.839 297.875 325.927 297.453 324.781 297.453C323.219 297.453 322.141 298.188 321.547 299.656C321.234 300.438 321.078 301.401 321.078 302.547C321.078 303.536 321.245 304.417 321.578 305.188ZM345.641 298.078C343.849 298.078 342.646 298.661 342.031 299.828C341.688 300.484 341.516 301.495 341.516 302.859V311H337.031V293.969H341.281V296.938C341.969 295.802 342.568 295.026 343.078 294.609C343.911 293.911 344.995 293.562 346.328 293.562C346.411 293.562 346.479 293.568 346.531 293.578C346.594 293.578 346.724 293.583 346.922 293.594V298.156C346.641 298.125 346.391 298.104 346.172 298.094C345.953 298.083 345.776 298.078 345.641 298.078ZM354.125 293.969V311H349.609V293.969H354.125ZM354.125 287.828V291.938H349.609V287.828H354.125ZM373.188 300.078H368.625C368.542 299.443 368.328 298.87 367.984 298.359C367.484 297.672 366.708 297.328 365.656 297.328C364.156 297.328 363.13 298.073 362.578 299.562C362.286 300.354 362.141 301.406 362.141 302.719C362.141 303.969 362.286 304.974 362.578 305.734C363.109 307.151 364.109 307.859 365.578 307.859C366.62 307.859 367.359 307.578 367.797 307.016C368.234 306.453 368.5 305.724 368.594 304.828H373.141C373.036 306.182 372.547 307.464 371.672 308.672C370.276 310.62 368.208 311.594 365.469 311.594C362.729 311.594 360.714 310.781 359.422 309.156C358.13 307.531 357.484 305.422 357.484 302.828C357.484 299.901 358.198 297.625 359.625 296C361.052 294.375 363.021 293.562 365.531 293.562C367.667 293.562 369.411 294.042 370.766 295C372.13 295.958 372.938 297.651 373.188 300.078ZM387.188 308.594C387.146 308.646 387.042 308.802 386.875 309.062C386.708 309.323 386.51 309.552 386.281 309.75C385.583 310.375 384.906 310.802 384.25 311.031C383.604 311.26 382.844 311.375 381.969 311.375C379.448 311.375 377.75 310.469 376.875 308.656C376.385 307.656 376.141 306.182 376.141 304.234V293.969H380.703V304.234C380.703 305.203 380.818 305.932 381.047 306.422C381.453 307.286 382.25 307.719 383.438 307.719C384.958 307.719 386 307.104 386.562 305.875C386.854 305.208 387 304.328 387 303.234V293.969H391.516V311H387.188V308.594ZM395.922 287.969H400.375V311H395.922V287.969ZM412.531 307.828V311.156L410.422 311.234C408.318 311.307 406.88 310.943 406.109 310.141C405.609 309.63 405.359 308.844 405.359 307.781V297.297H402.984V294.125H405.359V289.375H409.766V294.125H412.531V297.297H409.766V306.297C409.766 306.995 409.854 307.432 410.031 307.609C410.208 307.776 410.75 307.859 411.656 307.859C411.792 307.859 411.932 307.859 412.078 307.859C412.234 307.849 412.385 307.839 412.531 307.828ZM426.312 308.594C426.271 308.646 426.167 308.802 426 309.062C425.833 309.323 425.635 309.552 425.406 309.75C424.708 310.375 424.031 310.802 423.375 311.031C422.729 311.26 421.969 311.375 421.094 311.375C418.573 311.375 416.875 310.469 416 308.656C415.51 307.656 415.266 306.182 415.266 304.234V293.969H419.828V304.234C419.828 305.203 419.943 305.932 420.172 306.422C420.578 307.286 421.375 307.719 422.562 307.719C424.083 307.719 425.125 307.104 425.688 305.875C425.979 305.208 426.125 304.328 426.125 303.234V293.969H430.641V311H426.312V308.594ZM443.516 298.078C441.724 298.078 440.521 298.661 439.906 299.828C439.562 300.484 439.391 301.495 439.391 302.859V311H434.906V293.969H439.156V296.938C439.844 295.802 440.443 295.026 440.953 294.609C441.786 293.911 442.87 293.562 444.203 293.562C444.286 293.562 444.354 293.568 444.406 293.578C444.469 293.578 444.599 293.583 444.797 293.594V298.156C444.516 298.125 444.266 298.104 444.047 298.094C443.828 298.083 443.651 298.078 443.516 298.078ZM462 306C461.885 307.01 461.359 308.036 460.422 309.078C458.964 310.734 456.922 311.562 454.297 311.562C452.13 311.562 450.219 310.865 448.562 309.469C446.906 308.073 446.078 305.802 446.078 302.656C446.078 299.708 446.823 297.448 448.312 295.875C449.812 294.302 451.755 293.516 454.141 293.516C455.557 293.516 456.833 293.781 457.969 294.312C459.104 294.844 460.042 295.682 460.781 296.828C461.448 297.839 461.88 299.01 462.078 300.344C462.193 301.125 462.24 302.25 462.219 303.719H450.562C450.625 305.427 451.161 306.625 452.172 307.312C452.786 307.74 453.526 307.953 454.391 307.953C455.307 307.953 456.052 307.693 456.625 307.172C456.938 306.891 457.214 306.5 457.453 306H462ZM457.594 300.781C457.521 299.604 457.161 298.714 456.516 298.109C455.88 297.495 455.089 297.188 454.141 297.188C453.109 297.188 452.307 297.51 451.734 298.156C451.172 298.802 450.818 299.677 450.672 300.781H457.594ZM474.781 295.812C475.958 294.312 477.979 293.562 480.844 293.562C482.708 293.562 484.365 293.932 485.812 294.672C487.26 295.411 487.984 296.807 487.984 298.859V306.672C487.984 307.214 487.995 307.87 488.016 308.641C488.047 309.224 488.135 309.62 488.281 309.828C488.427 310.036 488.646 310.208 488.938 310.344V311H484.094C483.958 310.656 483.865 310.333 483.812 310.031C483.76 309.729 483.719 309.385 483.688 309C483.073 309.667 482.365 310.234 481.562 310.703C480.604 311.255 479.521 311.531 478.312 311.531C476.771 311.531 475.495 311.094 474.484 310.219C473.484 309.333 472.984 308.083 472.984 306.469C472.984 304.375 473.792 302.859 475.406 301.922C476.292 301.411 477.594 301.047 479.312 300.828L480.828 300.641C481.651 300.536 482.24 300.406 482.594 300.25C483.229 299.979 483.547 299.557 483.547 298.984C483.547 298.286 483.302 297.807 482.812 297.547C482.333 297.276 481.625 297.141 480.688 297.141C479.635 297.141 478.891 297.401 478.453 297.922C478.141 298.307 477.932 298.828 477.828 299.484H473.531C473.625 297.995 474.042 296.771 474.781 295.812ZM478.094 307.781C478.51 308.125 479.021 308.297 479.625 308.297C480.583 308.297 481.464 308.016 482.266 307.453C483.078 306.891 483.5 305.865 483.531 304.375V302.719C483.25 302.896 482.964 303.042 482.672 303.156C482.391 303.26 482 303.359 481.5 303.453L480.5 303.641C479.562 303.807 478.891 304.01 478.484 304.25C477.797 304.656 477.453 305.286 477.453 306.141C477.453 306.901 477.667 307.448 478.094 307.781ZM503.688 294.75C505.021 295.604 505.786 297.073 505.984 299.156H501.531C501.469 298.583 501.307 298.13 501.047 297.797C500.557 297.193 499.724 296.891 498.547 296.891C497.578 296.891 496.885 297.042 496.469 297.344C496.062 297.646 495.859 298 495.859 298.406C495.859 298.917 496.078 299.286 496.516 299.516C496.953 299.755 498.5 300.167 501.156 300.75C502.927 301.167 504.255 301.797 505.141 302.641C506.016 303.495 506.453 304.562 506.453 305.844C506.453 307.531 505.823 308.911 504.562 309.984C503.312 311.047 501.375 311.578 498.75 311.578C496.073 311.578 494.094 311.016 492.812 309.891C491.542 308.755 490.906 307.312 490.906 305.562H495.422C495.516 306.354 495.719 306.917 496.031 307.25C496.583 307.844 497.604 308.141 499.094 308.141C499.969 308.141 500.661 308.01 501.172 307.75C501.693 307.49 501.953 307.099 501.953 306.578C501.953 306.078 501.745 305.698 501.328 305.438C500.911 305.177 499.365 304.729 496.688 304.094C494.76 303.615 493.401 303.016 492.609 302.297C491.818 301.589 491.422 300.568 491.422 299.234C491.422 297.661 492.036 296.312 493.266 295.188C494.505 294.052 496.245 293.484 498.484 293.484C500.609 293.484 502.344 293.906 503.688 294.75ZM290.25 348H285.438L276.031 331.641V348H271.547V324.969H276.594L285.766 341.047V324.969H290.25V348ZM295.031 332.812C296.208 331.312 298.229 330.562 301.094 330.562C302.958 330.562 304.615 330.932 306.062 331.672C307.51 332.411 308.234 333.807 308.234 335.859V343.672C308.234 344.214 308.245 344.87 308.266 345.641C308.297 346.224 308.385 346.62 308.531 346.828C308.677 347.036 308.896 347.208 309.188 347.344V348H304.344C304.208 347.656 304.115 347.333 304.062 347.031C304.01 346.729 303.969 346.385 303.938 346C303.323 346.667 302.615 347.234 301.812 347.703C300.854 348.255 299.771 348.531 298.562 348.531C297.021 348.531 295.745 348.094 294.734 347.219C293.734 346.333 293.234 345.083 293.234 343.469C293.234 341.375 294.042 339.859 295.656 338.922C296.542 338.411 297.844 338.047 299.562 337.828L301.078 337.641C301.901 337.536 302.49 337.406 302.844 337.25C303.479 336.979 303.797 336.557 303.797 335.984C303.797 335.286 303.552 334.807 303.062 334.547C302.583 334.276 301.875 334.141 300.938 334.141C299.885 334.141 299.141 334.401 298.703 334.922C298.391 335.307 298.182 335.828 298.078 336.484H293.781C293.875 334.995 294.292 333.771 295.031 332.812ZM298.344 344.781C298.76 345.125 299.271 345.297 299.875 345.297C300.833 345.297 301.714 345.016 302.516 344.453C303.328 343.891 303.75 342.865 303.781 341.375V339.719C303.5 339.896 303.214 340.042 302.922 340.156C302.641 340.26 302.25 340.359 301.75 340.453L300.75 340.641C299.812 340.807 299.141 341.01 298.734 341.25C298.047 341.656 297.703 342.286 297.703 343.141C297.703 343.901 297.917 344.448 298.344 344.781ZM320 344.828V348.156L317.891 348.234C315.786 348.307 314.349 347.943 313.578 347.141C313.078 346.63 312.828 345.844 312.828 344.781V334.297H310.453V331.125H312.828V326.375H317.234V331.125H320V334.297H317.234V343.297C317.234 343.995 317.323 344.432 317.5 344.609C317.677 344.776 318.219 344.859 319.125 344.859C319.26 344.859 319.401 344.859 319.547 344.859C319.703 344.849 319.854 344.839 320 344.828ZM327.438 330.969V348H322.922V330.969H327.438ZM327.438 324.828V328.938H322.922V324.828H327.438ZM345.969 333.125C347.406 334.927 348.125 337.057 348.125 339.516C348.125 342.016 347.406 344.156 345.969 345.938C344.531 347.708 342.349 348.594 339.422 348.594C336.495 348.594 334.312 347.708 332.875 345.938C331.438 344.156 330.719 342.016 330.719 339.516C330.719 337.057 331.438 334.927 332.875 333.125C334.312 331.323 336.495 330.422 339.422 330.422C342.349 330.422 344.531 331.323 345.969 333.125ZM339.406 334.188C338.104 334.188 337.099 334.651 336.391 335.578C335.693 336.495 335.344 337.807 335.344 339.516C335.344 341.224 335.693 342.542 336.391 343.469C337.099 344.396 338.104 344.859 339.406 344.859C340.708 344.859 341.708 344.396 342.406 343.469C343.104 342.542 343.453 341.224 343.453 339.516C343.453 337.807 343.104 336.495 342.406 335.578C341.708 334.651 340.708 334.188 339.406 334.188ZM359.344 334.266C357.833 334.266 356.797 334.906 356.234 336.188C355.943 336.865 355.797 337.729 355.797 338.781V348H351.359V331H355.656V333.484C356.229 332.609 356.771 331.979 357.281 331.594C358.198 330.906 359.359 330.562 360.766 330.562C362.526 330.562 363.964 331.026 365.078 331.953C366.203 332.87 366.766 334.396 366.766 336.531V348H362.203V337.641C362.203 336.745 362.083 336.057 361.844 335.578C361.406 334.703 360.573 334.266 359.344 334.266ZM371.531 332.812C372.708 331.312 374.729 330.562 377.594 330.562C379.458 330.562 381.115 330.932 382.562 331.672C384.01 332.411 384.734 333.807 384.734 335.859V343.672C384.734 344.214 384.745 344.87 384.766 345.641C384.797 346.224 384.885 346.62 385.031 346.828C385.177 347.036 385.396 347.208 385.688 347.344V348H380.844C380.708 347.656 380.615 347.333 380.562 347.031C380.51 346.729 380.469 346.385 380.438 346C379.823 346.667 379.115 347.234 378.312 347.703C377.354 348.255 376.271 348.531 375.062 348.531C373.521 348.531 372.245 348.094 371.234 347.219C370.234 346.333 369.734 345.083 369.734 343.469C369.734 341.375 370.542 339.859 372.156 338.922C373.042 338.411 374.344 338.047 376.062 337.828L377.578 337.641C378.401 337.536 378.99 337.406 379.344 337.25C379.979 336.979 380.297 336.557 380.297 335.984C380.297 335.286 380.052 334.807 379.562 334.547C379.083 334.276 378.375 334.141 377.438 334.141C376.385 334.141 375.641 334.401 375.203 334.922C374.891 335.307 374.682 335.828 374.578 336.484H370.281C370.375 334.995 370.792 333.771 371.531 332.812ZM374.844 344.781C375.26 345.125 375.771 345.297 376.375 345.297C377.333 345.297 378.214 345.016 379.016 344.453C379.828 343.891 380.25 342.865 380.281 341.375V339.719C380 339.896 379.714 340.042 379.422 340.156C379.141 340.26 378.75 340.359 378.25 340.453L377.25 340.641C376.312 340.807 375.641 341.01 375.234 341.25C374.547 341.656 374.203 342.286 374.203 343.141C374.203 343.901 374.417 344.448 374.844 344.781ZM388.797 324.969H393.25V348H388.797V324.969ZM415.234 344.672C416.37 344.672 417.292 344.547 418 344.297C419.344 343.818 420.016 342.927 420.016 341.625C420.016 340.865 419.682 340.276 419.016 339.859C418.349 339.453 417.302 339.094 415.875 338.781L413.438 338.234C411.042 337.693 409.385 337.104 408.469 336.469C406.917 335.406 406.141 333.745 406.141 331.484C406.141 329.422 406.891 327.708 408.391 326.344C409.891 324.979 412.094 324.297 415 324.297C417.427 324.297 419.495 324.943 421.203 326.234C422.922 327.516 423.823 329.38 423.906 331.828H419.281C419.198 330.443 418.594 329.458 417.469 328.875C416.719 328.49 415.786 328.297 414.672 328.297C413.432 328.297 412.443 328.547 411.703 329.047C410.964 329.547 410.594 330.245 410.594 331.141C410.594 331.964 410.958 332.578 411.688 332.984C412.156 333.255 413.156 333.573 414.688 333.938L418.656 334.891C420.396 335.307 421.708 335.865 422.594 336.562C423.969 337.646 424.656 339.214 424.656 341.266C424.656 343.37 423.849 345.12 422.234 346.516C420.63 347.901 418.359 348.594 415.422 348.594C412.422 348.594 410.062 347.911 408.344 346.547C406.625 345.172 405.766 343.286 405.766 340.891H410.359C410.505 341.943 410.792 342.729 411.219 343.25C412 344.198 413.339 344.672 415.234 344.672ZM442.438 343C442.323 344.01 441.797 345.036 440.859 346.078C439.401 347.734 437.359 348.562 434.734 348.562C432.568 348.562 430.656 347.865 429 346.469C427.344 345.073 426.516 342.802 426.516 339.656C426.516 336.708 427.26 334.448 428.75 332.875C430.25 331.302 432.193 330.516 434.578 330.516C435.995 330.516 437.271 330.781 438.406 331.312C439.542 331.844 440.479 332.682 441.219 333.828C441.885 334.839 442.318 336.01 442.516 337.344C442.63 338.125 442.677 339.25 442.656 340.719H431C431.062 342.427 431.599 343.625 432.609 344.312C433.224 344.74 433.964 344.953 434.828 344.953C435.745 344.953 436.49 344.693 437.062 344.172C437.375 343.891 437.651 343.5 437.891 343H442.438ZM438.031 337.781C437.958 336.604 437.599 335.714 436.953 335.109C436.318 334.495 435.526 334.188 434.578 334.188C433.547 334.188 432.745 334.51 432.172 335.156C431.609 335.802 431.255 336.677 431.109 337.781H438.031ZM460.406 337.078H455.844C455.76 336.443 455.547 335.87 455.203 335.359C454.703 334.672 453.927 334.328 452.875 334.328C451.375 334.328 450.349 335.073 449.797 336.562C449.505 337.354 449.359 338.406 449.359 339.719C449.359 340.969 449.505 341.974 449.797 342.734C450.328 344.151 451.328 344.859 452.797 344.859C453.839 344.859 454.578 344.578 455.016 344.016C455.453 343.453 455.719 342.724 455.812 341.828H460.359C460.255 343.182 459.766 344.464 458.891 345.672C457.495 347.62 455.427 348.594 452.688 348.594C449.948 348.594 447.932 347.781 446.641 346.156C445.349 344.531 444.703 342.422 444.703 339.828C444.703 336.901 445.417 334.625 446.844 333C448.271 331.375 450.24 330.562 452.75 330.562C454.885 330.562 456.63 331.042 457.984 332C459.349 332.958 460.156 334.651 460.406 337.078ZM474.406 345.594C474.365 345.646 474.26 345.802 474.094 346.062C473.927 346.323 473.729 346.552 473.5 346.75C472.802 347.375 472.125 347.802 471.469 348.031C470.823 348.26 470.062 348.375 469.188 348.375C466.667 348.375 464.969 347.469 464.094 345.656C463.604 344.656 463.359 343.182 463.359 341.234V330.969H467.922V341.234C467.922 342.203 468.036 342.932 468.266 343.422C468.672 344.286 469.469 344.719 470.656 344.719C472.177 344.719 473.219 344.104 473.781 342.875C474.073 342.208 474.219 341.328 474.219 340.234V330.969H478.734V348H474.406V345.594ZM491.609 335.078C489.818 335.078 488.615 335.661 488 336.828C487.656 337.484 487.484 338.495 487.484 339.859V348H483V330.969H487.25V333.938C487.938 332.802 488.536 332.026 489.047 331.609C489.88 330.911 490.964 330.562 492.297 330.562C492.38 330.562 492.448 330.568 492.5 330.578C492.562 330.578 492.693 330.583 492.891 330.594V335.156C492.609 335.125 492.359 335.104 492.141 335.094C491.922 335.083 491.745 335.078 491.609 335.078ZM500.094 330.969V348H495.578V330.969H500.094ZM500.094 324.828V328.938H495.578V324.828H500.094ZM512.219 344.828V348.156L510.109 348.234C508.005 348.307 506.568 347.943 505.797 347.141C505.297 346.63 505.047 345.844 505.047 344.781V334.297H502.672V331.125H505.047V326.375H509.453V331.125H512.219V334.297H509.453V343.297C509.453 343.995 509.542 344.432 509.719 344.609C509.896 344.776 510.438 344.859 511.344 344.859C511.479 344.859 511.62 344.859 511.766 344.859C511.922 344.849 512.073 344.839 512.219 344.828ZM522 343.531L525.516 330.969H530.25L524.406 347.719C523.281 350.948 522.391 352.948 521.734 353.719C521.078 354.5 519.766 354.891 517.797 354.891C517.401 354.891 517.083 354.885 516.844 354.875C516.604 354.875 516.245 354.859 515.766 354.828V351.266L516.328 351.297C516.766 351.318 517.182 351.302 517.578 351.25C517.974 351.198 518.307 351.078 518.578 350.891C518.839 350.714 519.078 350.344 519.297 349.781C519.526 349.219 519.62 348.875 519.578 348.75L513.328 330.969H518.281L522 343.531Z" fill="black"/>
<rect x="328.5" y="381" width="133" height="32" rx="16" fill="#191919"/>
<path d="M338.48 401V392.41H342.131C343.049 392.41 343.715 392.488 344.129 392.645C344.547 392.797 344.881 393.07 345.131 393.465C345.381 393.859 345.506 394.311 345.506 394.818C345.506 395.463 345.316 395.996 344.938 396.418C344.559 396.836 343.992 397.1 343.238 397.209C343.613 397.428 343.922 397.668 344.164 397.93C344.41 398.191 344.74 398.656 345.154 399.324L346.203 401H344.129L342.875 399.131C342.43 398.463 342.125 398.043 341.961 397.871C341.797 397.695 341.623 397.576 341.439 397.514C341.256 397.447 340.965 397.414 340.566 397.414H340.215V401H338.48ZM340.215 396.043H341.498C342.33 396.043 342.85 396.008 343.057 395.938C343.264 395.867 343.426 395.746 343.543 395.574C343.66 395.402 343.719 395.188 343.719 394.93C343.719 394.641 343.641 394.408 343.484 394.232C343.332 394.053 343.115 393.939 342.834 393.893C342.693 393.873 342.271 393.863 341.568 393.863H340.215V396.043ZM350.738 399.02L352.379 399.295C352.168 399.896 351.834 400.355 351.377 400.672C350.924 400.984 350.355 401.141 349.672 401.141C348.59 401.141 347.789 400.787 347.27 400.08C346.859 399.514 346.654 398.799 346.654 397.936C346.654 396.904 346.924 396.098 347.463 395.516C348.002 394.93 348.684 394.637 349.508 394.637C350.434 394.637 351.164 394.943 351.699 395.557C352.234 396.166 352.49 397.102 352.467 398.363H348.342C348.354 398.852 348.486 399.232 348.74 399.506C348.994 399.775 349.311 399.91 349.689 399.91C349.947 399.91 350.164 399.84 350.34 399.699C350.516 399.559 350.648 399.332 350.738 399.02ZM350.832 397.355C350.82 396.879 350.697 396.518 350.463 396.271C350.229 396.021 349.943 395.896 349.607 395.896C349.248 395.896 348.951 396.027 348.717 396.289C348.482 396.551 348.367 396.906 348.371 397.355H350.832ZM355.525 401L353.018 394.777H354.746L355.918 397.953L356.258 399.014C356.348 398.744 356.404 398.566 356.428 398.48C356.482 398.305 356.541 398.129 356.604 397.953L357.787 394.777H359.48L357.008 401H355.525ZM364.098 399.02L365.738 399.295C365.527 399.896 365.193 400.355 364.736 400.672C364.283 400.984 363.715 401.141 363.031 401.141C361.949 401.141 361.148 400.787 360.629 400.08C360.219 399.514 360.014 398.799 360.014 397.936C360.014 396.904 360.283 396.098 360.822 395.516C361.361 394.93 362.043 394.637 362.867 394.637C363.793 394.637 364.523 394.943 365.059 395.557C365.594 396.166 365.85 397.102 365.826 398.363H361.701C361.713 398.852 361.846 399.232 362.1 399.506C362.354 399.775 362.67 399.91 363.049 399.91C363.307 399.91 363.523 399.84 363.699 399.699C363.875 399.559 364.008 399.332 364.098 399.02ZM364.191 397.355C364.18 396.879 364.057 396.518 363.822 396.271C363.588 396.021 363.303 395.896 362.967 395.896C362.607 395.896 362.311 396.027 362.076 396.289C361.842 396.551 361.727 396.906 361.73 397.355H364.191ZM368.404 396.676L366.91 396.406C367.078 395.805 367.367 395.359 367.777 395.07C368.188 394.781 368.797 394.637 369.605 394.637C370.34 394.637 370.887 394.725 371.246 394.9C371.605 395.072 371.857 395.293 372.002 395.562C372.15 395.828 372.225 396.318 372.225 397.033L372.207 398.955C372.207 399.502 372.232 399.906 372.283 400.168C372.338 400.426 372.438 400.703 372.582 401H370.953C370.91 400.891 370.857 400.729 370.795 400.514C370.768 400.416 370.748 400.352 370.736 400.32C370.455 400.594 370.154 400.799 369.834 400.936C369.514 401.072 369.172 401.141 368.809 401.141C368.168 401.141 367.662 400.967 367.291 400.619C366.924 400.271 366.74 399.832 366.74 399.301C366.74 398.949 366.824 398.637 366.992 398.363C367.16 398.086 367.395 397.875 367.695 397.73C368 397.582 368.438 397.453 369.008 397.344C369.777 397.199 370.311 397.064 370.607 396.939V396.775C370.607 396.459 370.529 396.234 370.373 396.102C370.217 395.965 369.922 395.896 369.488 395.896C369.195 395.896 368.967 395.955 368.803 396.072C368.639 396.186 368.506 396.387 368.404 396.676ZM370.607 398.012C370.396 398.082 370.062 398.166 369.605 398.264C369.148 398.361 368.85 398.457 368.709 398.551C368.494 398.703 368.387 398.896 368.387 399.131C368.387 399.361 368.473 399.561 368.645 399.729C368.816 399.896 369.035 399.98 369.301 399.98C369.598 399.98 369.881 399.883 370.15 399.688C370.35 399.539 370.48 399.357 370.543 399.143C370.586 399.002 370.607 398.734 370.607 398.34V398.012ZM373.854 401V392.41H375.5V401H373.854ZM386.041 397.842L387.723 398.375C387.465 399.312 387.035 400.01 386.434 400.467C385.836 400.92 385.076 401.146 384.154 401.146C383.014 401.146 382.076 400.758 381.342 399.98C380.607 399.199 380.24 398.133 380.24 396.781C380.24 395.352 380.609 394.242 381.348 393.453C382.086 392.66 383.057 392.264 384.26 392.264C385.311 392.264 386.164 392.574 386.82 393.195C387.211 393.562 387.504 394.09 387.699 394.777L385.982 395.188C385.881 394.742 385.668 394.391 385.344 394.133C385.023 393.875 384.633 393.746 384.172 393.746C383.535 393.746 383.018 393.975 382.619 394.432C382.225 394.889 382.027 395.629 382.027 396.652C382.027 397.738 382.223 398.512 382.613 398.973C383.004 399.434 383.512 399.664 384.137 399.664C384.598 399.664 384.994 399.518 385.326 399.225C385.658 398.932 385.896 398.471 386.041 397.842ZM388.824 397.801C388.824 397.254 388.959 396.725 389.229 396.213C389.498 395.701 389.879 395.311 390.371 395.041C390.867 394.771 391.42 394.637 392.029 394.637C392.971 394.637 393.742 394.943 394.344 395.557C394.945 396.166 395.246 396.938 395.246 397.871C395.246 398.812 394.941 399.594 394.332 400.215C393.727 400.832 392.963 401.141 392.041 401.141C391.471 401.141 390.926 401.012 390.406 400.754C389.891 400.496 389.498 400.119 389.229 399.623C388.959 399.123 388.824 398.516 388.824 397.801ZM390.512 397.889C390.512 398.506 390.658 398.979 390.951 399.307C391.244 399.635 391.605 399.799 392.035 399.799C392.465 399.799 392.824 399.635 393.113 399.307C393.406 398.979 393.553 398.502 393.553 397.877C393.553 397.268 393.406 396.799 393.113 396.471C392.824 396.143 392.465 395.979 392.035 395.979C391.605 395.979 391.244 396.143 390.951 396.471C390.658 396.799 390.512 397.271 390.512 397.889ZM402.201 401H400.555V397.824C400.555 397.152 400.52 396.719 400.449 396.523C400.379 396.324 400.264 396.17 400.104 396.061C399.947 395.951 399.758 395.896 399.535 395.896C399.25 395.896 398.994 395.975 398.768 396.131C398.541 396.287 398.385 396.494 398.299 396.752C398.217 397.01 398.176 397.486 398.176 398.182V401H396.529V394.777H398.059V395.691C398.602 394.988 399.285 394.637 400.109 394.637C400.473 394.637 400.805 394.703 401.105 394.836C401.406 394.965 401.633 395.131 401.785 395.334C401.941 395.537 402.049 395.768 402.107 396.025C402.17 396.283 402.201 396.652 402.201 397.133V401ZM409.537 401H407.891V397.824C407.891 397.152 407.855 396.719 407.785 396.523C407.715 396.324 407.6 396.17 407.439 396.061C407.283 395.951 407.094 395.896 406.871 395.896C406.586 395.896 406.33 395.975 406.104 396.131C405.877 396.287 405.721 396.494 405.635 396.752C405.553 397.01 405.512 397.486 405.512 398.182V401H403.865V394.777H405.395V395.691C405.938 394.988 406.621 394.637 407.445 394.637C407.809 394.637 408.141 394.703 408.441 394.836C408.742 394.965 408.969 395.131 409.121 395.334C409.277 395.537 409.385 395.768 409.443 396.025C409.506 396.283 409.537 396.652 409.537 397.133V401ZM414.816 399.02L416.457 399.295C416.246 399.896 415.912 400.355 415.455 400.672C415.002 400.984 414.434 401.141 413.75 401.141C412.668 401.141 411.867 400.787 411.348 400.08C410.938 399.514 410.732 398.799 410.732 397.936C410.732 396.904 411.002 396.098 411.541 395.516C412.08 394.93 412.762 394.637 413.586 394.637C414.512 394.637 415.242 394.943 415.777 395.557C416.312 396.166 416.568 397.102 416.545 398.363H412.42C412.432 398.852 412.564 399.232 412.818 399.506C413.072 399.775 413.389 399.91 413.768 399.91C414.025 399.91 414.242 399.84 414.418 399.699C414.594 399.559 414.727 399.332 414.816 399.02ZM414.91 397.355C414.898 396.879 414.775 396.518 414.541 396.271C414.307 396.021 414.021 395.896 413.686 395.896C413.326 395.896 413.029 396.027 412.795 396.289C412.561 396.551 412.445 396.906 412.449 397.355H414.91ZM423.318 396.617L421.695 396.91C421.641 396.586 421.516 396.342 421.32 396.178C421.129 396.014 420.879 395.932 420.57 395.932C420.16 395.932 419.832 396.074 419.586 396.359C419.344 396.641 419.223 397.113 419.223 397.777C419.223 398.516 419.346 399.037 419.592 399.342C419.842 399.646 420.176 399.799 420.594 399.799C420.906 399.799 421.162 399.711 421.361 399.535C421.561 399.355 421.701 399.049 421.783 398.615L423.4 398.891C423.232 399.633 422.91 400.193 422.434 400.572C421.957 400.951 421.318 401.141 420.518 401.141C419.607 401.141 418.881 400.854 418.338 400.279C417.799 399.705 417.529 398.91 417.529 397.895C417.529 396.867 417.801 396.068 418.344 395.498C418.887 394.924 419.621 394.637 420.547 394.637C421.305 394.637 421.906 394.801 422.352 395.129C422.801 395.453 423.123 395.949 423.318 396.617ZM427.426 394.777V396.09H426.301V398.598C426.301 399.105 426.311 399.402 426.33 399.488C426.354 399.57 426.402 399.639 426.477 399.693C426.555 399.748 426.648 399.775 426.758 399.775C426.91 399.775 427.131 399.723 427.42 399.617L427.561 400.895C427.178 401.059 426.744 401.141 426.26 401.141C425.963 401.141 425.695 401.092 425.457 400.994C425.219 400.893 425.043 400.764 424.93 400.607C424.82 400.447 424.744 400.232 424.701 399.963C424.666 399.771 424.648 399.385 424.648 398.803V396.09H423.893V394.777H424.648V393.541L426.301 392.58V394.777H427.426ZM428.568 393.934V392.41H430.215V393.934H428.568ZM428.568 401V394.777H430.215V401H428.568ZM431.527 397.801C431.527 397.254 431.662 396.725 431.932 396.213C432.201 395.701 432.582 395.311 433.074 395.041C433.57 394.771 434.123 394.637 434.732 394.637C435.674 394.637 436.445 394.943 437.047 395.557C437.648 396.166 437.949 396.938 437.949 397.871C437.949 398.812 437.645 399.594 437.035 400.215C436.43 400.832 435.666 401.141 434.744 401.141C434.174 401.141 433.629 401.012 433.109 400.754C432.594 400.496 432.201 400.119 431.932 399.623C431.662 399.123 431.527 398.516 431.527 397.801ZM433.215 397.889C433.215 398.506 433.361 398.979 433.654 399.307C433.947 399.635 434.309 399.799 434.738 399.799C435.168 399.799 435.527 399.635 435.816 399.307C436.109 398.979 436.256 398.502 436.256 397.877C436.256 397.268 436.109 396.799 435.816 396.471C435.527 396.143 435.168 395.979 434.738 395.979C434.309 395.979 433.947 396.143 433.654 396.471C433.361 396.799 433.215 397.271 433.215 397.889ZM444.904 401H443.258V397.824C443.258 397.152 443.223 396.719 443.152 396.523C443.082 396.324 442.967 396.17 442.807 396.061C442.65 395.951 442.461 395.896 442.238 395.896C441.953 395.896 441.697 395.975 441.471 396.131C441.244 396.287 441.088 396.494 441.002 396.752C440.92 397.01 440.879 397.486 440.879 398.182V401H439.232V394.777H440.762V395.691C441.305 394.988 441.988 394.637 442.812 394.637C443.176 394.637 443.508 394.703 443.809 394.836C444.109 394.965 444.336 395.131 444.488 395.334C444.645 395.537 444.752 395.768 444.811 396.025C444.873 396.283 444.904 396.652 444.904 397.133V401ZM446 399.225L447.652 398.973C447.723 399.293 447.865 399.537 448.08 399.705C448.295 399.869 448.596 399.951 448.982 399.951C449.408 399.951 449.729 399.873 449.943 399.717C450.088 399.607 450.16 399.461 450.16 399.277C450.16 399.152 450.121 399.049 450.043 398.967C449.961 398.889 449.777 398.816 449.492 398.75C448.164 398.457 447.322 398.189 446.967 397.947C446.475 397.611 446.229 397.145 446.229 396.547C446.229 396.008 446.441 395.555 446.867 395.188C447.293 394.82 447.953 394.637 448.848 394.637C449.699 394.637 450.332 394.775 450.746 395.053C451.16 395.33 451.445 395.74 451.602 396.283L450.049 396.57C449.982 396.328 449.855 396.143 449.668 396.014C449.484 395.885 449.221 395.82 448.877 395.82C448.443 395.82 448.133 395.881 447.945 396.002C447.82 396.088 447.758 396.199 447.758 396.336C447.758 396.453 447.812 396.553 447.922 396.635C448.07 396.744 448.582 396.898 449.457 397.098C450.336 397.297 450.949 397.541 451.297 397.83C451.641 398.123 451.812 398.531 451.812 399.055C451.812 399.625 451.574 400.115 451.098 400.525C450.621 400.936 449.916 401.141 448.982 401.141C448.135 401.141 447.463 400.969 446.967 400.625C446.475 400.281 446.152 399.814 446 399.225Z" fill="white"/>
</g>
<defs>
<clipPath id="clip0_759_8628">
<rect width="793" height="746" fill="white"/>
</clipPath>
</defs>
</svg>
