<svg width="215" height="215" viewBox="0 0 215 215" fill="none" xmlns="http://www.w3.org/2000/svg">
<rect width="215" height="215" rx="10" fill="#5515DA"/>
<path d="M129.372 55.3477C131.618 55.9386 133.707 56.6871 135.64 57.5957C141.166 60.1614 145.162 63.7803 147.629 68.4512C150.129 73.1222 150.836 78.599 149.751 84.8818C149.093 88.7634 147.629 92.612 145.359 96.4277C143.123 100.243 139.521 104.487 134.554 109.158C129.62 113.796 122.777 119.322 114.027 125.736L112.72 126.697L103.271 133.631L103.173 134.224H142.646L138.994 156.131H111.226L107.613 176.607H88.8242L92.1113 156.131H61.4297L64.6865 136.395L101.726 109.487L107.613 105.211C108.686 104.434 109.704 103.675 110.666 102.935C110.987 102.688 111.302 102.443 111.61 102.2C112.844 101.23 113.979 100.293 115.015 99.3887C115.629 98.8514 116.208 98.3094 116.752 97.7637C117.16 97.3542 117.549 96.9425 117.918 96.5283C118.041 96.3902 118.162 96.2519 118.28 96.1133L118.774 95.5186C119.255 94.9219 119.696 94.3201 120.097 93.7139C121.38 91.7731 122.219 89.6184 122.613 87.25C123.041 84.6515 122.844 82.4309 122.021 80.5889C121.825 80.1233 121.599 79.6852 121.342 79.2744C120.564 78.031 119.508 77.0386 118.173 76.2969C116.397 75.31 114.258 74.8164 111.758 74.8164C110.431 74.8164 109.163 74.9565 107.953 75.2363C106.854 75.4907 105.803 75.8602 104.801 76.3457C102.696 77.3654 100.936 78.8623 99.5215 80.8359C98.1399 82.8096 97.2183 85.2111 96.7578 88.04H70.7061C71.8902 80.9349 74.5048 74.8161 78.5508 69.6846C82.6297 64.5531 87.795 60.6059 94.0449 57.8428C98.899 55.7081 104.214 54.3985 109.991 53.9131L113.259 38.3926H132.455L129.372 55.3477Z" fill="white"/>
</svg>
