<?xml version="1.0" encoding="UTF-8"?>
<svg width="825" height="1110" viewBox="-250 -30 950 1170" fill="none" xmlns="http://www.w3.org/2000/svg" xmlns:xlink="http://www.w3.org/1999/xlink">
<style>
  svg { overflow: visible; }
  .comp-parallax { transform-box: fill-box; transform-origin: center; transition: transform 0.35s cubic-bezier(0.22, 1, 0.36, 1); }
  .comp-anim { transform-box: fill-box; transform-origin: center; }
  .comp-shape--purple .comp-anim { animation: compDriftA 7s ease-in-out infinite; }
  .comp-shape--orange .comp-anim { animation: compWiggle 5.2s ease-in-out infinite; animation-delay: -0.8s; }
  .comp-shape--green .comp-anim { animation: compDriftB 6.4s ease-in-out infinite; animation-delay: -1.4s; }
  .comp-shape--blue .comp-anim { animation: compOrbit 8.5s ease-in-out infinite; animation-delay: -2s; }
  .comp-shape--pink .comp-anim { animation: compTilt 6.8s ease-in-out infinite; animation-delay: -0.5s; }
  .comp-shape--sage .comp-anim { animation: compBob 5.8s ease-in-out infinite; animation-delay: -1.8s; }
  .comp-portrait .comp-anim { animation: compPortraitFloat 9s ease-in-out infinite; }
  .comp-chrome .comp-anim { animation: compChromeBob 4.6s ease-in-out infinite; animation-delay: -1.2s; }
  .comp-dots .comp-anim { animation: compDotsPulse 3.8s ease-in-out infinite; animation-delay: -0.6s; }
  .comp-bridge .comp-bridge-item:nth-child(1) .comp-anim { animation: compDriftA 7.2s ease-in-out infinite; animation-delay: -0.4s; }
  .comp-bridge .comp-bridge-item:nth-child(2) .comp-anim { animation: compOrbit 8.1s ease-in-out infinite; animation-delay: -1.1s; }
  .comp-bridge .comp-bridge-item:nth-child(3) .comp-anim { animation: compCrossFloatA 5.8s ease-in-out infinite; animation-delay: -1.4s; }
  .comp-crosses .comp-cross-item .comp-anim { transform-origin: center; }
  .comp-crosses .comp-cross-item:nth-child(1) .comp-anim { animation: compCrossFloatA 5.5s ease-in-out infinite; }
  .comp-crosses .comp-cross-item:nth-child(2) .comp-anim { animation: compCrossFloatB 6.2s ease-in-out infinite; animation-delay: -0.8s; }
  .comp-crosses .comp-cross-item:nth-child(3) .comp-anim { animation: compCrossFloatC 5.8s ease-in-out infinite; animation-delay: -1.6s; }
  .comp-crosses .comp-cross-item:nth-child(4) .comp-anim { animation: compCrossFloatA 6.5s ease-in-out infinite; animation-delay: -2.2s; }
  .comp-crosses .comp-cross-item:nth-child(5) .comp-anim { animation: compCrossFloatB 5.2s ease-in-out infinite; animation-delay: -0.4s; }
  .comp-crosses .comp-cross-item:nth-child(6) .comp-anim { animation: compCrossFloatC 6.8s ease-in-out infinite; animation-delay: -1.2s; }
  .comp-crosses .comp-cross-item:nth-child(7) .comp-anim { animation: compCrossFloatA 5.9s ease-in-out infinite; animation-delay: -2.8s; }
  @keyframes compDriftA { 0%, 100% { transform: translate(0, 0); } 50% { transform: translate(-8px, -10px); } }
  @keyframes compWiggle { 0%, 100% { transform: translate(0, 0); } 50% { transform: translate(6px, -8px); } }
  @keyframes compDriftB { 0%, 100% { transform: translate(0, 0); } 50% { transform: translate(8px, 8px); } }
  @keyframes compOrbit { 0%, 100% { transform: translate(0, 0) scale(1); } 50% { transform: translate(-6px, 8px) scale(1.04); } }
  @keyframes compTilt { 0%, 100% { transform: translate(0, 0); } 50% { transform: translate(-8px, -12px); } }
  @keyframes compBob { 0%, 100% { transform: translateY(0); } 50% { transform: translateY(-10px); } }
  @keyframes compPortraitFloat { 0%, 100% { transform: translateY(0); } 50% { transform: translateY(-4px); } }
  @keyframes compChromeBob { 0%, 100% { transform: translateY(0); } 50% { transform: translateY(-5px); } }
  @keyframes compDotsPulse { 0%, 100% { transform: scale(1); opacity: 1; } 50% { transform: scale(1.08); opacity: 0.88; } }
  @keyframes compCrossFloatA { 0%, 100% { transform: translate(0, 0); } 50% { transform: translate(3px, -6px); } }
  @keyframes compCrossFloatB { 0%, 100% { transform: translate(0, 0); } 50% { transform: translate(-5px, 4px); } }
  @keyframes compCrossFloatC { 0%, 100% { transform: translate(0, 0); } 50% { transform: translate(4px, 5px); } }
  @media (prefers-reduced-motion: reduce) { .comp-anim { animation: none !important; } .comp-parallax { transition: none; } }
</style>
<g class="comp-shape comp-shape--purple">
<g class="comp-parallax">
<g class="comp-anim">
<circle opacity="0.85" cx="160" cy="250" r="160" fill="#A259FF"/>
<g class="comp-eye"><circle cx="122" cy="228" r="24" fill="#fff"/><circle class="comp-pupil" cx="122" cy="228" r="11" fill="#1E1E1E"/></g>
<g class="comp-eye"><circle cx="198" cy="228" r="24" fill="#fff"/><circle class="comp-pupil" cx="198" cy="228" r="11" fill="#1E1E1E"/></g>
</g>
</g>
</g>
<g class="comp-shape comp-shape--orange">
<g class="comp-parallax">
<g class="comp-anim">
<rect opacity="0.9" x="360" y="150" width="200" height="130" rx="8" transform="rotate(15 360 150)" fill="#F24E1E"/>
<g class="comp-eye"><circle cx="417" cy="230" r="17" fill="#fff"/><circle class="comp-pupil" cx="417" cy="230" r="8" fill="#1E1E1E"/></g>
<g class="comp-eye"><circle cx="465" cy="230" r="17" fill="#fff"/><circle class="comp-pupil" cx="465" cy="230" r="8" fill="#1E1E1E"/></g>
</g>
</g>
</g>
<g class="comp-shape comp-shape--green">
<g class="comp-parallax">
<g class="comp-anim">
<ellipse opacity="0.8" cx="150.728" cy="767.553" rx="110" ry="80" transform="rotate(-20 150.728 767.553)" fill="#0ACF83"/>
<g class="comp-eye"><circle cx="122" cy="758" r="20" fill="#fff"/><circle class="comp-pupil" cx="122" cy="758" r="9" fill="#1E1E1E"/></g>
<g class="comp-eye"><circle cx="182" cy="758" r="20" fill="#fff"/><circle class="comp-pupil" cx="182" cy="758" r="9" fill="#1E1E1E"/></g>
</g>
</g>
</g>
<g class="comp-shape comp-shape--blue">
<g class="comp-parallax">
<g class="comp-anim">
<circle opacity="0.75" cx="580" cy="80" r="80" fill="#1ABCFE"/>
</g>
</g>
</g>
<g class="comp-shape comp-shape--pink">
<g class="comp-parallax">
<g class="comp-anim">
<rect opacity="0.9" x="380" y="850" width="220" height="180" rx="12" transform="rotate(-8 380 850)" fill="#F2C4CE"/>
<g class="comp-eye"><circle cx="462" cy="915" r="24" fill="#fff"/><circle class="comp-pupil" cx="462" cy="915" r="11" fill="#1E1E1E"/></g>
<g class="comp-eye"><circle cx="540" cy="915" r="24" fill="#fff"/><circle class="comp-pupil" cx="540" cy="915" r="11" fill="#1E1E1E"/></g>
</g>
</g>
</g>
<g class="comp-shape comp-shape--sage">
<g class="comp-parallax">
<g class="comp-anim">
<rect opacity="0.7" x="520" y="410" width="140" height="200" rx="10" transform="rotate(10 520 410)" fill="#B8C9B8"/>
</g>
</g>
</g>
<g class="comp-chrome">
<g class="comp-parallax">
<g class="comp-anim">
<rect x="240" y="41.5" width="6" height="10" rx="1" fill="#A259FF"/>
<path d="M253.62 50V48.64H250.3V47.68L253.22 43.02H254.69V47.76H255.67V48.64H254.69V50H253.62ZM251.25 47.76H253.62V44.05H253.56L251.25 47.76ZM261.106 43.99H257.936L257.756 46.47H257.836C257.996 46.1967 258.189 45.98 258.416 45.82C258.643 45.6533 258.953 45.57 259.346 45.57C259.646 45.57 259.923 45.62 260.176 45.72C260.436 45.82 260.659 45.9633 260.846 46.15C261.039 46.3367 261.189 46.5667 261.296 46.84C261.409 47.1067 261.466 47.41 261.466 47.75C261.466 48.0967 261.409 48.4167 261.296 48.71C261.183 48.9967 261.019 49.2467 260.806 49.46C260.593 49.6667 260.329 49.83 260.016 49.95C259.703 50.0633 259.346 50.12 258.946 50.12C258.633 50.12 258.353 50.0833 258.106 50.01C257.866 49.9433 257.649 49.8533 257.456 49.74C257.269 49.62 257.106 49.4867 256.966 49.34C256.826 49.1867 256.703 49.03 256.596 48.87L257.416 48.23C257.503 48.3633 257.593 48.49 257.686 48.61C257.786 48.7233 257.896 48.8233 258.016 48.91C258.136 48.9967 258.273 49.0633 258.426 49.11C258.586 49.1567 258.766 49.18 258.966 49.18C259.399 49.18 259.729 49.0633 259.956 48.83C260.183 48.59 260.296 48.2667 260.296 47.86V47.78C260.296 47.3733 260.179 47.0567 259.946 46.83C259.719 46.6033 259.393 46.49 258.966 46.49C258.653 46.49 258.406 46.5467 258.226 46.66C258.046 46.7733 257.889 46.9 257.756 47.04L256.826 46.91L257.086 43.02H261.106V43.99ZM262.872 50V49.07H264.832V43.84H264.752L263.132 45.57L262.442 44.95L264.222 43.02H265.952V49.07H267.642V50H262.872Z" fill="#A259FF"/>
<rect x="272" y="41.5" width="6" height="10" rx="1" fill="#A259FF"/>
<rect x="601.5" y="230" width="10" height="6" rx="1" fill="#1ABCFE"/>
<path d="M607.38 245.47C606.873 245.47 606.397 245.393 605.95 245.24C605.503 245.087 605.093 244.887 604.72 244.64C604.347 244.393 604.013 244.12 603.72 243.82C603.427 243.52 603.187 243.223 603 242.93V241.43C603.287 241.83 603.563 242.19 603.83 242.51C604.097 242.83 604.37 243.107 604.65 243.34C604.93 243.58 605.223 243.78 605.53 243.94C605.843 244.1 606.19 244.223 606.57 244.31L606.59 244.24C606.45 244.167 606.317 244.08 606.19 243.98C606.07 243.88 605.963 243.763 605.87 243.63C605.777 243.497 605.703 243.343 605.65 243.17C605.597 242.997 605.57 242.8 605.57 242.58C605.57 242.28 605.62 242.003 605.72 241.75C605.82 241.497 605.963 241.277 606.15 241.09C606.343 240.903 606.573 240.757 606.84 240.65C607.107 240.55 607.407 240.5 607.74 240.5C608.087 240.5 608.403 240.557 608.69 240.67C608.983 240.79 609.233 240.957 609.44 241.17C609.647 241.39 609.807 241.653 609.92 241.96C610.04 242.267 610.1 242.607 610.1 242.98C610.1 243.367 610.037 243.713 609.91 244.02C609.783 244.333 609.6 244.597 609.36 244.81C609.127 245.023 608.843 245.187 608.51 245.3C608.177 245.413 607.8 245.47 607.38 245.47ZM606.46 242.99C606.46 243.41 606.573 243.737 606.8 243.97C607.033 244.203 607.36 244.32 607.78 244.32H607.88C608.3 244.32 608.623 244.203 608.85 243.97C609.083 243.737 609.2 243.41 609.2 242.99C609.2 242.563 609.083 242.233 608.85 242C608.623 241.767 608.3 241.65 607.88 241.65H607.78C607.36 241.65 607.033 241.767 606.8 242C606.573 242.233 606.46 242.563 606.46 242.99ZM603 247.686L609.05 250.276V247.556H607.76V246.586H609.98V251.396H609L603 248.876V247.686ZM602.88 255.012C602.88 254.619 602.943 254.269 603.07 253.962C603.197 253.656 603.377 253.396 603.61 253.182C603.85 252.969 604.137 252.806 604.47 252.692C604.803 252.579 605.18 252.522 605.6 252.522C606.107 252.522 606.583 252.599 607.03 252.752C607.477 252.906 607.887 253.106 608.26 253.352C608.633 253.599 608.963 253.872 609.25 254.172C609.543 254.472 609.787 254.769 609.98 255.062V256.562C609.693 256.162 609.417 255.802 609.15 255.482C608.883 255.162 608.61 254.882 608.33 254.642C608.05 254.409 607.753 254.212 607.44 254.052C607.133 253.892 606.79 253.769 606.41 253.682L606.39 253.752C606.53 253.826 606.66 253.912 606.78 254.012C606.907 254.112 607.017 254.229 607.11 254.362C607.203 254.496 607.277 254.649 607.33 254.822C607.383 254.996 607.41 255.192 607.41 255.412C607.41 255.712 607.36 255.989 607.26 256.242C607.16 256.496 607.013 256.716 606.82 256.902C606.633 257.089 606.407 257.232 606.14 257.332C605.873 257.439 605.573 257.492 605.24 257.492C604.893 257.492 604.573 257.432 604.28 257.312C603.993 257.199 603.747 257.032 603.54 256.812C603.333 256.599 603.17 256.339 603.05 256.032C602.937 255.726 602.88 255.386 602.88 255.012ZM603.78 255.002C603.78 255.429 603.893 255.759 604.12 255.992C604.353 256.226 604.68 256.342 605.1 256.342H605.2C605.62 256.342 605.943 256.226 606.17 255.992C606.403 255.759 606.52 255.429 606.52 255.002C606.52 254.582 606.403 254.256 606.17 254.022C605.943 253.789 605.62 253.672 605.2 253.672H605.1C604.68 253.672 604.353 253.789 604.12 254.022C603.893 254.256 603.78 254.582 603.78 255.002Z" fill="#1ABCFE"/>
<rect x="601.5" y="262" width="10" height="6" rx="1" fill="#1ABCFE"/>
<path d="M90.9913 279.16C90.5786 279.197 90.2734 279.56 90.3095 279.973L90.8978 286.697C90.9339 287.11 91.2977 287.415 91.7103 287.379C92.1229 287.343 92.4282 286.979 92.3921 286.567L91.8691 280.589L97.8463 280.066C98.2589 280.03 98.5642 279.667 98.5281 279.254C98.492 278.841 98.1282 278.536 97.7156 278.572L90.9913 279.16ZM151.256 331.114C151.669 331.077 151.974 330.714 151.938 330.301L151.35 323.577C151.314 323.164 150.95 322.859 150.537 322.895C150.125 322.931 149.82 323.295 149.856 323.707L150.379 329.685L144.401 330.208C143.989 330.244 143.684 330.607 143.72 331.02C143.756 331.433 144.12 331.738 144.532 331.702L151.256 331.114ZM91.0566 279.908L90.5745 280.482L92.1365 281.793L92.6186 281.218L93.1006 280.644L91.5387 279.333L91.0566 279.908ZM94.9615 283.184L94.4794 283.759L97.6032 286.38L98.0853 285.805L98.5674 285.231L95.4436 282.61L94.9615 283.184ZM100.428 287.771L99.9461 288.346L103.07 290.967L103.552 290.393L104.034 289.818L100.91 287.197L100.428 287.771ZM105.895 292.358L105.413 292.933L108.537 295.554L109.019 294.98L109.501 294.405L106.377 291.784L105.895 292.358ZM111.362 296.946L110.88 297.52L114.004 300.141L114.486 299.567L114.968 298.992L111.844 296.371L111.362 296.946ZM116.829 301.533L116.346 302.107L119.47 304.729L119.952 304.154L120.435 303.579L117.311 300.958L116.829 301.533ZM122.295 306.12L121.813 306.694L124.937 309.316L125.419 308.741L125.901 308.167L122.777 305.545L122.295 306.12ZM127.762 310.707L127.28 311.282L130.404 313.903L130.886 313.328L131.368 312.754L128.244 310.133L127.762 310.707ZM133.229 315.294L132.747 315.869L135.871 318.49L136.353 317.916L136.835 317.341L133.711 314.72L133.229 315.294ZM138.696 319.881L138.214 320.456L141.337 323.077L141.82 322.503L142.302 321.928L139.178 319.307L138.696 319.881ZM144.162 324.469L143.68 325.043L146.804 327.664L147.286 327.09L147.768 326.515L144.644 323.894L144.162 324.469ZM149.629 329.056L149.147 329.63L150.709 330.941L151.191 330.366L151.673 329.792L150.111 328.481L149.629 329.056ZM90.9913 279.16C90.5786 279.197 90.2734 279.56 90.3095 279.973L90.8978 286.697C90.9339 287.11 91.2977 287.415 91.7103 287.379C92.1229 287.343 92.4282 286.979 92.3921 286.567L91.8691 280.589L97.8463 280.066C98.2589 280.03 98.5642 279.667 98.5281 279.254C98.492 278.841 98.1282 278.536 97.7156 278.572L90.9913 279.16ZM151.256 331.114C151.669 331.077 151.974 330.714 151.938 330.301L151.35 323.577C151.314 323.164 150.95 322.859 150.537 322.895C150.125 322.931 149.82 323.295 149.856 323.707L150.379 329.685L144.401 330.208C143.989 330.244 143.684 330.607 143.72 331.02C143.756 331.433 144.12 331.738 144.532 331.702L151.256 331.114ZM91.0566 279.908L90.5745 280.482L92.1365 281.793L92.6186 281.218L93.1006 280.644L91.5387 279.333L91.0566 279.908ZM94.9615 283.184L94.4794 283.759L97.6032 286.38L98.0853 285.805L98.5674 285.231L95.4436 282.61L94.9615 283.184ZM100.428 287.771L99.9461 288.346L103.07 290.967L103.552 290.393L104.034 289.818L100.91 287.197L100.428 287.771ZM105.895 292.358L105.413 292.933L108.537 295.554L109.019 294.98L109.501 294.405L106.377 291.784L105.895 292.358ZM111.362 296.946L110.88 297.52L114.004 300.141L114.486 299.567L114.968 298.992L111.844 296.371L111.362 296.946ZM116.829 301.533L116.346 302.107L119.47 304.729L119.952 304.154L120.435 303.579L117.311 300.958L116.829 301.533ZM122.295 306.12L121.813 306.694L124.937 309.316L125.419 308.741L125.901 308.167L122.777 305.545L122.295 306.12ZM127.762 310.707L127.28 311.282L130.404 313.903L130.886 313.328L131.368 312.754L128.244 310.133L127.762 310.707ZM133.229 315.294L132.747 315.869L135.871 318.49L136.353 317.916L136.835 317.341L133.711 314.72L133.229 315.294ZM138.696 319.881L138.214 320.456L141.337 323.077L141.82 322.503L142.302 321.928L139.178 319.307L138.696 319.881ZM144.162 324.469L143.68 325.043L146.804 327.664L147.286 327.09L147.768 326.515L144.644 323.894L144.162 324.469ZM149.629 329.056L149.147 329.63L150.709 330.941L151.191 330.366L151.673 329.792L150.111 328.481L149.629 329.056Z" fill="#F24E1E"/>
<g transform="rotate(-12 484 108.8)">
<rect x="372" y="87.792" width="184" height="42" rx="21" fill="#A259FF"/>
<text x="464" y="114" text-anchor="middle" fill="#ffffff" font-family="Montserrat, Arial, sans-serif" font-size="15" font-weight="700" letter-spacing="0.02em">product design</text>
</g>
<g transform="rotate(8 102 869.5)">
<rect x="10" y="848" width="164" height="42" rx="21" fill="#1E1E1E"/>
<text x="92" y="875" text-anchor="middle" fill="#0ACF83" font-family="Montserrat, Arial, sans-serif" font-size="15" font-weight="700" letter-spacing="0.02em">ai-driven</text>
</g>
<g transform="rotate(-6 90 490.4)">
<rect x="-12" y="469.412" width="188" height="42" rx="21" fill="#FAF7F2"/>
<rect x="-12" y="469.412" width="188" height="42" rx="21" fill="none" stroke="#F24E1E" stroke-width="2"/>
<text x="82" y="495.5" text-anchor="middle" fill="#F24E1E" font-family="Montserrat, Arial, sans-serif" font-size="15" font-weight="700" letter-spacing="0.02em">accessibility</text>
</g>
<rect x="573.899" y="950" width="37" height="30" rx="6" transform="rotate(5 573.899 950)" fill="#1ABCFE"/>
<path d="M586.288 971.329C584.986 971.215 584.063 970.689 583.517 969.751C582.981 968.814 582.782 967.551 582.921 965.961C583.06 964.371 583.475 963.161 584.166 962.332C584.866 961.503 585.867 961.145 587.169 961.259C588.471 961.373 589.39 961.899 589.926 962.836C590.472 963.773 590.675 965.037 590.536 966.627C590.397 968.217 589.977 969.426 589.277 970.255C588.586 971.085 587.59 971.443 586.288 971.329ZM586.432 969.683C587.055 969.738 587.506 969.557 587.786 969.141C588.076 968.726 588.255 968.128 588.323 967.347L588.481 965.534C588.55 964.753 588.478 964.133 588.265 963.674C588.061 963.216 587.648 962.959 587.025 962.905C586.402 962.85 585.946 963.031 585.657 963.446C585.377 963.862 585.203 964.46 585.134 965.241L584.976 967.054C584.907 967.835 584.975 968.455 585.178 968.913C585.391 969.372 585.809 969.629 586.432 969.683ZM586.657 967.117C586.331 967.088 586.109 967.003 585.99 966.862C585.881 966.721 585.834 966.558 585.85 966.372L585.877 966.065C585.894 965.879 585.968 965.726 586.1 965.607C586.242 965.488 586.475 965.443 586.801 965.471C587.126 965.5 587.343 965.584 587.453 965.725C587.572 965.867 587.623 966.03 587.607 966.216L587.58 966.523C587.564 966.709 587.485 966.861 587.343 966.98C587.211 967.1 586.982 967.145 586.657 967.117ZM591.792 971.642L591.94 969.954L594.562 970.184L595.133 963.656L595.007 963.645L592.8 966.066L591.553 964.903L594.15 962.039L597.358 962.319L596.654 970.367L598.718 970.547L598.57 972.235L591.792 971.642Z" fill="#1E1E1E"/>
<circle cx="545" cy="235" r="5" fill="#F24E1E"/>
</g>
</g>
</g>
<g class="comp-dots">
<g class="comp-parallax">
<g class="comp-anim">
<circle cx="563" cy="253" r="3" fill="#0ACF83"/>
<circle cx="534" cy="264" r="4" fill="#1ABCFE"/>
<circle cx="572.5" cy="237.5" r="2.5" fill="#A259FF"/>
<circle cx="84.5" cy="714.5" r="4.5" fill="#A259FF"/>
<circle cx="99" cy="731" r="3" fill="#F24E1E"/>
<circle cx="77.5" cy="733.5" r="3.5" fill="#1ABCFE"/>
<circle cx="264" cy="64" r="4" fill="#F24E1E"/>
<circle cx="415" cy="1075" r="5" fill="#0ACF83"/>
<circle cx="603.5" cy="693.5" r="3.5" fill="#A259FF"/>
<circle cx="163" cy="1083" r="3" fill="#1ABCFE"/>
<circle cx="492.5" cy="532.5" r="2.5" fill="#F24E1E"/>
</g>
</g>
</g>
<g class="comp-crosses">
<g class="comp-parallax">
<g class="comp-cross-item">
<g class="comp-anim">
<rect x="220" y="70" width="15" height="4.5" rx="2.25" transform="rotate(45 220 70)" fill="#0ACF83"/>
</g>
</g>
<g class="comp-cross-item">
<g class="comp-anim">
<rect x="460" y="1080" width="15" height="4.5" rx="2.25" transform="rotate(-30 460 1080)" fill="#A259FF"/>
</g>
</g>
<g class="comp-cross-item">
<g class="comp-anim">
<rect x="110" y="380" width="12" height="4.5" rx="2.25" transform="rotate(60 110 380)" fill="#F24E1E"/>
</g>
</g>
<g class="comp-cross-item">
<g class="comp-anim">
<rect x="580" y="810" width="15" height="4.5" rx="2.25" transform="rotate(20 580 810)" fill="#1ABCFE"/>
</g>
</g>
<g class="comp-cross-item">
<g class="comp-anim">
<rect x="340" y="1090" width="12" height="4.5" rx="2.25" transform="rotate(-45 340 1090)" fill="#F24E1E"/>
</g>
</g>
<g class="comp-cross-item">
<g class="comp-anim">
<rect x="585" y="174.25" width="24" height="4.5" rx="2.25" fill="#0ACF83"/>
<rect x="594.75" y="164.5" width="4.5" height="24" rx="2.25" fill="#0ACF83"/>
</g>
</g>
<g class="comp-cross-item">
<g class="comp-anim">
<rect x="95" y="614.25" width="24" height="4.5" rx="2.25" fill="#F24E1E"/>
<rect x="104.75" y="604.5" width="4.5" height="24" rx="2.25" fill="#F24E1E"/>
</g>
</g>
</g>
</g>
<g class="comp-bridge">
<g class="comp-parallax">
<g class="comp-bridge-item">
<g class="comp-anim">
<circle opacity="0.78" cx="-130" cy="210" r="52" fill="#A259FF"/>
</g>
</g>
<g class="comp-bridge-item">
<g class="comp-anim">
<circle opacity="0.72" cx="-70" cy="430" r="36" fill="#1ABCFE"/>
</g>
</g>
<g class="comp-bridge-item">
<g class="comp-anim">
<rect x="-148" y="392" width="20" height="4.5" rx="2.25" fill="#0ACF83"/>
<rect x="-139.75" y="383.75" width="4.5" height="20" rx="2.25" fill="#0ACF83"/>
</g>
</g>
</g>
</g>
<g class="comp-portrait">
<g class="comp-parallax">
<g class="comp-anim">
<image x="125" y="82" width="451" height="975" href="assets/img/Michelle/portrait-composition.png" preserveAspectRatio="xMidYMid meet"/>
</g>
</g>
</g>
</svg>