<?xml version="1.0" encoding="UTF-8"?>
<svg width="825" height="1110" viewBox="-250 -30 950 1170" fill="none" xmlns="http://www.w3.org/2000/svg" xmlns:xlink="http://www.w3.org/1999/xlink">
<style>
  svg { overflow: visible; }
  .comp-parallax { transform-box: fill-box; transform-origin: center; transition: transform 0.35s cubic-bezier(0.22, 1, 0.36, 1); }
  .comp-anim { transform-box: fill-box; transform-origin: center; }
  .comp-shape--purple .comp-anim { animation: compDriftA 7s ease-in-out infinite; }
  .comp-shape--orange .comp-anim { animation: compWiggle 5.2s ease-in-out infinite; animation-delay: -0.8s; }
  .comp-shape--green .comp-anim { animation: compDriftB 6.4s ease-in-out infinite; animation-delay: -1.4s; }
  .comp-shape--blue .comp-anim { animation: compOrbit 8.5s ease-in-out infinite; animation-delay: -2s; }
  .comp-shape--pink .comp-anim { animation: compTilt 6.8s ease-in-out infinite; animation-delay: -0.5s; }
  .comp-shape--sage .comp-anim { animation: compBob 5.8s ease-in-out infinite; animation-delay: -1.8s; }
  .comp-portrait .comp-anim { animation: compPortraitFloat 9s ease-in-out infinite; }
  .comp-chrome .comp-anim { animation: compChromeBob 4.6s ease-in-out infinite; animation-delay: -1.2s; }
  .comp-dots .comp-anim { animation: compDotsPulse 3.8s ease-in-out infinite; animation-delay: -0.6s; }
  .comp-bridge .comp-bridge-item:nth-child(1) .comp-anim { animation: compDriftA 7.2s ease-in-out infinite; animation-delay: -0.4s; }
  .comp-bridge .comp-bridge-item:nth-child(2) .comp-anim { animation: compOrbit 8.1s ease-in-out infinite; animation-delay: -1.1s; }
  .comp-bridge .comp-bridge-item:nth-child(3) .comp-anim { animation: compCrossFloatA 5.8s ease-in-out infinite; animation-delay: -1.4s; }
  .comp-crosses .comp-cross-item .comp-anim { transform-origin: center; }
  .comp-crosses .comp-cross-item:nth-child(1) .comp-anim { animation: compCrossFloatA 5.5s ease-in-out infinite; }
  .comp-crosses .comp-cross-item:nth-child(2) .comp-anim { animation: compCrossFloatB 6.2s ease-in-out infinite; animation-delay: -0.8s; }
  .comp-crosses .comp-cross-item:nth-child(3) .comp-anim { animation: compCrossFloatC 5.8s ease-in-out infinite; animation-delay: -1.6s; }
  .comp-crosses .comp-cross-item:nth-child(4) .comp-anim { animation: compCrossFloatA 6.5s ease-in-out infinite; animation-delay: -2.2s; }
  .comp-crosses .comp-cross-item:nth-child(5) .comp-anim { animation: compCrossFloatB 5.2s ease-in-out infinite; animation-delay: -0.4s; }
  .comp-crosses .comp-cross-item:nth-child(6) .comp-anim { animation: compCrossFloatC 6.8s ease-in-out infinite; animation-delay: -1.2s; }
  .comp-crosses .comp-cross-item:nth-child(7) .comp-anim { animation: compCrossFloatA 5.9s ease-in-out infinite; animation-delay: -2.8s; }
  @keyframes compDriftA { 0%, 100% { transform: translate(0, 0); } 50% { transform: translate(-8px, -10px); } }
  @keyframes compWiggle { 0%, 100% { transform: translate(0, 0); } 50% { transform: translate(6px, -8px); } }
  @keyframes compDriftB { 0%, 100% { transform: translate(0, 0); } 50% { transform: translate(8px, 8px); } }
  @keyframes compOrbit { 0%, 100% { transform: translate(0, 0) scale(1); } 50% { transform: translate(-6px, 8px) scale(1.04); } }
  @keyframes compTilt { 0%, 100% { transform: translate(0, 0); } 50% { transform: translate(-8px, -12px); } }
  @keyframes compBob { 0%, 100% { transform: translateY(0); } 50% { transform: translateY(-10px); } }
  @keyframes compPortraitFloat { 0%, 100% { transform: translateY(0); } 50% { transform: translateY(-4px); } }
  @keyframes compChromeBob { 0%, 100% { transform: translateY(0); } 50% { transform: translateY(-5px); } }
  @keyframes compDotsPulse { 0%, 100% { transform: scale(1); opacity: 1; } 50% { transform: scale(1.08); opacity: 0.88; } }
  @keyframes compCrossFloatA { 0%, 100% { transform: translate(0, 0); } 50% { transform: translate(3px, -6px); } }
  @keyframes compCrossFloatB { 0%, 100% { transform: translate(0, 0); } 50% { transform: translate(-5px, 4px); } }
  @keyframes compCrossFloatC { 0%, 100% { transform: translate(0, 0); } 50% { transform: translate(4px, 5px); } }
  @media (prefers-reduced-motion: reduce) { .comp-anim { animation: none !important; } .comp-parallax { transition: none; } }
</style>
<g class="comp-shape comp-shape--purple">
<g class="comp-parallax">
<g class="comp-anim">
<circle opacity="0.85" cx="160" cy="250" r="160" fill="#A259FF"/>
</g>
</g>
</g>
<g class="comp-shape comp-shape--orange">
<g class="comp-parallax">
<g class="comp-anim">
<rect opacity="0.9" x="360" y="150" width="200" height="130" rx="8" transform="rotate(15 360 150)" fill="#F24E1E"/>
</g>
</g>
</g>
<g class="comp-shape comp-shape--green">
<g class="comp-parallax">
<g class="comp-anim">
<ellipse opacity="0.8" cx="150.728" cy="767.553" rx="110" ry="80" transform="rotate(-20 150.728 767.553)" fill="#0ACF83"/>
</g>
</g>
</g>
<g class="comp-shape comp-shape--blue">
<g class="comp-parallax">
<g class="comp-anim">
<circle opacity="0.75" cx="580" cy="80" r="80" fill="#1ABCFE"/>
</g>
</g>
</g>
<g class="comp-shape comp-shape--pink">
<g class="comp-parallax">
<g class="comp-anim">
<rect opacity="0.9" x="380" y="850" width="220" height="180" rx="12" transform="rotate(-8 380 850)" fill="#F2C4CE"/>
</g>
</g>
</g>
<g class="comp-shape comp-shape--sage">
<g class="comp-parallax">
<g class="comp-anim">
<rect opacity="0.7" x="520" y="410" width="140" height="200" rx="10" transform="rotate(10 520 410)" fill="#B8C9B8"/>
</g>
</g>
</g>
<g class="comp-chrome">
<g class="comp-parallax">
<g class="comp-anim">
<rect x="240" y="41.5" width="6" height="10" rx="1" fill="#A259FF"/>
<path d="M253.62 50V48.64H250.3V47.68L253.22 43.02H254.69V47.76H255.67V48.64H254.69V50H253.62ZM251.25 47.76H253.62V44.05H253.56L251.25 47.76ZM261.106 43.99H257.936L257.756 46.47H257.836C257.996 46.1967 258.189 45.98 258.416 45.82C258.643 45.6533 258.953 45.57 259.346 45.57C259.646 45.57 259.923 45.62 260.176 45.72C260.436 45.82 260.659 45.9633 260.846 46.15C261.039 46.3367 261.189 46.5667 261.296 46.84C261.409 47.1067 261.466 47.41 261.466 47.75C261.466 48.0967 261.409 48.4167 261.296 48.71C261.183 48.9967 261.019 49.2467 260.806 49.46C260.593 49.6667 260.329 49.83 260.016 49.95C259.703 50.0633 259.346 50.12 258.946 50.12C258.633 50.12 258.353 50.0833 258.106 50.01C257.866 49.9433 257.649 49.8533 257.456 49.74C257.269 49.62 257.106 49.4867 256.966 49.34C256.826 49.1867 256.703 49.03 256.596 48.87L257.416 48.23C257.503 48.3633 257.593 48.49 257.686 48.61C257.786 48.7233 257.896 48.8233 258.016 48.91C258.136 48.9967 258.273 49.0633 258.426 49.11C258.586 49.1567 258.766 49.18 258.966 49.18C259.399 49.18 259.729 49.0633 259.956 48.83C260.183 48.59 260.296 48.2667 260.296 47.86V47.78C260.296 47.3733 260.179 47.0567 259.946 46.83C259.719 46.6033 259.393 46.49 258.966 46.49C258.653 46.49 258.406 46.5467 258.226 46.66C258.046 46.7733 257.889 46.9 257.756 47.04L256.826 46.91L257.086 43.02H261.106V43.99ZM262.872 50V49.07H264.832V43.84H264.752L263.132 45.57L262.442 44.95L264.222 43.02H265.952V49.07H267.642V50H262.872Z" fill="#A259FF"/>
<rect x="272" y="41.5" width="6" height="10" rx="1" fill="#A259FF"/>
<rect x="601.5" y="230" width="10" height="6" rx="1" fill="#1ABCFE"/>
<path d="M607.38 245.47C606.873 245.47 606.397 245.393 605.95 245.24C605.503 245.087 605.093 244.887 604.72 244.64C604.347 244.393 604.013 244.12 603.72 243.82C603.427 243.52 603.187 243.223 603 242.93V241.43C603.287 241.83 603.563 242.19 603.83 242.51C604.097 242.83 604.37 243.107 604.65 243.34C604.93 243.58 605.223 243.78 605.53 243.94C605.843 244.1 606.19 244.223 606.57 244.31L606.59 244.24C606.45 244.167 606.317 244.08 606.19 243.98C606.07 243.88 605.963 243.763 605.87 243.63C605.777 243.497 605.703 243.343 605.65 243.17C605.597 242.997 605.57 242.8 605.57 242.58C605.57 242.28 605.62 242.003 605.72 241.75C605.82 241.497 605.963 241.277 606.15 241.09C606.343 240.903 606.573 240.757 606.84 240.65C607.107 240.55 607.407 240.5 607.74 240.5C608.087 240.5 608.403 240.557 608.69 240.67C608.983 240.79 609.233 240.957 609.44 241.17C609.647 241.39 609.807 241.653 609.92 241.96C610.04 242.267 610.1 242.607 610.1 242.98C610.1 243.367 610.037 243.713 609.91 244.02C609.783 244.333 609.6 244.597 609.36 244.81C609.127 245.023 608.843 245.187 608.51 245.3C608.177 245.413 607.8 245.47 607.38 245.47ZM606.46 242.99C606.46 243.41 606.573 243.737 606.8 243.97C607.033 244.203 607.36 244.32 607.78 244.32H607.88C608.3 244.32 608.623 244.203 608.85 243.97C609.083 243.737 609.2 243.41 609.2 242.99C609.2 242.563 609.083 242.233 608.85 242C608.623 241.767 608.3 241.65 607.88 241.65H607.78C607.36 241.65 607.033 241.767 606.8 242C606.573 242.233 606.46 242.563 606.46 242.99ZM603 247.686L609.05 250.276V247.556H607.76V246.586H609.98V251.396H609L603 248.876V247.686ZM602.88 255.012C602.88 254.619 602.943 254.269 603.07 253.962C603.197 253.656 603.377 253.396 603.61 253.182C603.85 252.969 604.137 252.806 604.47 252.692C604.803 252.579 605.18 252.522 605.6 252.522C606.107 252.522 606.583 252.599 607.03 252.752C607.477 252.906 607.887 253.106 608.26 253.352C608.633 253.599 608.963 253.872 609.25 254.172C609.543 254.472 609.787 254.769 609.98 255.062V256.562C609.693 256.162 609.417 255.802 609.15 255.482C608.883 255.162 608.61 254.882 608.33 254.642C608.05 254.409 607.753 254.212 607.44 254.052C607.133 253.892 606.79 253.769 606.41 253.682L606.39 253.752C606.53 253.826 606.66 253.912 606.78 254.012C606.907 254.112 607.017 254.229 607.11 254.362C607.203 254.496 607.277 254.649 607.33 254.822C607.383 254.996 607.41 255.192 607.41 255.412C607.41 255.712 607.36 255.989 607.26 256.242C607.16 256.496 607.013 256.716 606.82 256.902C606.633 257.089 606.407 257.232 606.14 257.332C605.873 257.439 605.573 257.492 605.24 257.492C604.893 257.492 604.573 257.432 604.28 257.312C603.993 257.199 603.747 257.032 603.54 256.812C603.333 256.599 603.17 256.339 603.05 256.032C602.937 255.726 602.88 255.386 602.88 255.012ZM603.78 255.002C603.78 255.429 603.893 255.759 604.12 255.992C604.353 256.226 604.68 256.342 605.1 256.342H605.2C605.62 256.342 605.943 256.226 606.17 255.992C606.403 255.759 606.52 255.429 606.52 255.002C606.52 254.582 606.403 254.256 606.17 254.022C605.943 253.789 605.62 253.672 605.2 253.672H605.1C604.68 253.672 604.353 253.789 604.12 254.022C603.893 254.256 603.78 254.582 603.78 255.002Z" fill="#1ABCFE"/>
<rect x="601.5" y="262" width="10" height="6" rx="1" fill="#1ABCFE"/>
<path d="M90.9913 279.16C90.5786 279.197 90.2734 279.56 90.3095 279.973L90.8978 286.697C90.9339 287.11 91.2977 287.415 91.7103 287.379C92.1229 287.343 92.4282 286.979 92.3921 286.567L91.8691 280.589L97.8463 280.066C98.2589 280.03 98.5642 279.667 98.5281 279.254C98.492 278.841 98.1282 278.536 97.7156 278.572L90.9913 279.16ZM151.256 331.114C151.669 331.077 151.974 330.714 151.938 330.301L151.35 323.577C151.314 323.164 150.95 322.859 150.537 322.895C150.125 322.931 149.82 323.295 149.856 323.707L150.379 329.685L144.401 330.208C143.989 330.244 143.684 330.607 143.72 331.02C143.756 331.433 144.12 331.738 144.532 331.702L151.256 331.114ZM91.0566 279.908L90.5745 280.482L92.1365 281.793L92.6186 281.218L93.1006 280.644L91.5387 279.333L91.0566 279.908ZM94.9615 283.184L94.4794 283.759L97.6032 286.38L98.0853 285.805L98.5674 285.231L95.4436 282.61L94.9615 283.184ZM100.428 287.771L99.9461 288.346L103.07 290.967L103.552 290.393L104.034 289.818L100.91 287.197L100.428 287.771ZM105.895 292.358L105.413 292.933L108.537 295.554L109.019 294.98L109.501 294.405L106.377 291.784L105.895 292.358ZM111.362 296.946L110.88 297.52L114.004 300.141L114.486 299.567L114.968 298.992L111.844 296.371L111.362 296.946ZM116.829 301.533L116.346 302.107L119.47 304.729L119.952 304.154L120.435 303.579L117.311 300.958L116.829 301.533ZM122.295 306.12L121.813 306.694L124.937 309.316L125.419 308.741L125.901 308.167L122.777 305.545L122.295 306.12ZM127.762 310.707L127.28 311.282L130.404 313.903L130.886 313.328L131.368 312.754L128.244 310.133L127.762 310.707ZM133.229 315.294L132.747 315.869L135.871 318.49L136.353 317.916L136.835 317.341L133.711 314.72L133.229 315.294ZM138.696 319.881L138.214 320.456L141.337 323.077L141.82 322.503L142.302 321.928L139.178 319.307L138.696 319.881ZM144.162 324.469L143.68 325.043L146.804 327.664L147.286 327.09L147.768 326.515L144.644 323.894L144.162 324.469ZM149.629 329.056L149.147 329.63L150.709 330.941L151.191 330.366L151.673 329.792L150.111 328.481L149.629 329.056ZM90.9913 279.16C90.5786 279.197 90.2734 279.56 90.3095 279.973L90.8978 286.697C90.9339 287.11 91.2977 287.415 91.7103 287.379C92.1229 287.343 92.4282 286.979 92.3921 286.567L91.8691 280.589L97.8463 280.066C98.2589 280.03 98.5642 279.667 98.5281 279.254C98.492 278.841 98.1282 278.536 97.7156 278.572L90.9913 279.16ZM151.256 331.114C151.669 331.077 151.974 330.714 151.938 330.301L151.35 323.577C151.314 323.164 150.95 322.859 150.537 322.895C150.125 322.931 149.82 323.295 149.856 323.707L150.379 329.685L144.401 330.208C143.989 330.244 143.684 330.607 143.72 331.02C143.756 331.433 144.12 331.738 144.532 331.702L151.256 331.114ZM91.0566 279.908L90.5745 280.482L92.1365 281.793L92.6186 281.218L93.1006 280.644L91.5387 279.333L91.0566 279.908ZM94.9615 283.184L94.4794 283.759L97.6032 286.38L98.0853 285.805L98.5674 285.231L95.4436 282.61L94.9615 283.184ZM100.428 287.771L99.9461 288.346L103.07 290.967L103.552 290.393L104.034 289.818L100.91 287.197L100.428 287.771ZM105.895 292.358L105.413 292.933L108.537 295.554L109.019 294.98L109.501 294.405L106.377 291.784L105.895 292.358ZM111.362 296.946L110.88 297.52L114.004 300.141L114.486 299.567L114.968 298.992L111.844 296.371L111.362 296.946ZM116.829 301.533L116.346 302.107L119.47 304.729L119.952 304.154L120.435 303.579L117.311 300.958L116.829 301.533ZM122.295 306.12L121.813 306.694L124.937 309.316L125.419 308.741L125.901 308.167L122.777 305.545L122.295 306.12ZM127.762 310.707L127.28 311.282L130.404 313.903L130.886 313.328L131.368 312.754L128.244 310.133L127.762 310.707ZM133.229 315.294L132.747 315.869L135.871 318.49L136.353 317.916L136.835 317.341L133.711 314.72L133.229 315.294ZM138.696 319.881L138.214 320.456L141.337 323.077L141.82 322.503L142.302 321.928L139.178 319.307L138.696 319.881ZM144.162 324.469L143.68 325.043L146.804 327.664L147.286 327.09L147.768 326.515L144.644 323.894L144.162 324.469ZM149.629 329.056L149.147 329.63L150.709 330.941L151.191 330.366L151.673 329.792L150.111 328.481L149.629 329.056Z" fill="#F24E1E"/>
<rect x="420" y="89.792" width="99" height="32" rx="16" transform="rotate(-12 420 89.792)" fill="#A259FF"/>
<path d="M443.451 106.834C443.241 106.303 442.869 105.762 442.335 105.211C441.8 104.651 441.105 104.174 440.25 103.78C439.404 103.384 438.6 103.187 437.838 103.19L437.725 102.656C438.409 102.333 439.034 101.872 439.598 101.274C440.168 100.665 440.609 99.987 440.919 99.2387C441.235 98.4717 441.387 97.7483 441.375 97.0685L441.909 96.955C442.076 97.3627 442.321 97.7668 442.645 98.1674C442.968 98.5596 443.35 98.9213 443.793 99.2525C444.242 99.5735 444.726 99.8473 445.244 100.074C446.014 100.406 446.763 100.575 447.491 100.58L447.604 101.114C447.158 101.306 446.715 101.6 446.276 101.994C445.846 102.387 445.461 102.828 445.122 103.316C444.781 103.796 444.521 104.281 444.341 104.771C444.078 105.492 443.959 106.142 443.985 106.721L443.451 106.834ZM455.415 103.851C454.888 103.963 454.382 103.929 453.897 103.749C453.415 103.565 452.992 103.235 452.63 102.758C452.269 102.278 452.007 101.651 451.843 100.877C451.674 100.082 451.661 99.3945 451.805 98.8133C451.948 98.2291 452.204 97.7609 452.573 97.4088C452.944 97.053 453.384 96.821 453.893 96.7129C454.281 96.6303 454.619 96.6278 454.906 96.7052C455.196 96.779 455.441 96.8968 455.642 97.0585C455.846 97.2166 456.009 97.38 456.133 97.5488L456.192 97.5363L455.453 94.0593L457.372 93.6514L459.338 102.899L457.441 103.302L457.205 102.192L457.124 102.209C457.074 102.421 456.987 102.639 456.862 102.864C456.739 103.085 456.56 103.285 456.324 103.464C456.091 103.643 455.788 103.772 455.415 103.851ZM455.699 102.191C456.009 102.125 456.253 101.985 456.431 101.771C456.612 101.553 456.726 101.279 456.775 100.947C456.828 100.615 456.81 100.243 456.722 99.8306C456.634 99.4182 456.501 99.0721 456.322 98.7924C456.143 98.5126 455.928 98.313 455.676 98.1935C455.424 98.074 455.143 98.0472 454.833 98.1131C454.517 98.1803 454.268 98.3227 454.088 98.5404C453.908 98.7581 453.794 99.0308 453.748 99.3585C453.701 99.6862 453.72 100.05 453.805 100.451C453.891 100.854 454.022 101.199 454.2 101.485C454.379 101.768 454.595 101.974 454.845 102.103C455.099 102.229 455.383 102.258 455.699 102.191ZM464.109 102.027C463.396 102.178 462.751 102.164 462.175 101.985C461.601 101.802 461.119 101.473 460.728 100.999C460.338 100.522 460.064 99.9178 459.909 99.1863C459.757 98.4728 459.763 97.8172 459.925 97.2195C460.088 96.6217 460.388 96.1189 460.827 95.711C461.269 95.3025 461.83 95.0259 462.51 94.8813C462.968 94.784 463.409 94.7673 463.835 94.8309C464.263 94.891 464.656 95.0356 465.013 95.2649C465.373 95.4936 465.683 95.8116 465.942 96.2189C466.201 96.6233 466.394 97.1204 466.519 97.7105L466.631 98.2388L460.775 99.4837L460.521 98.2916L464.567 97.4316C464.508 97.1546 464.396 96.9221 464.23 96.7339C464.064 96.5458 463.862 96.4142 463.622 96.3392C463.385 96.2606 463.127 96.251 462.847 96.3105C462.555 96.3726 462.31 96.4954 462.113 96.6788C461.919 96.8586 461.782 97.0749 461.704 97.3275C461.625 97.5772 461.613 97.8393 461.668 98.1139L461.909 99.2473C461.982 99.5905 462.108 99.8736 462.288 100.097C462.47 100.319 462.693 100.473 462.957 100.558C463.22 100.644 463.513 100.653 463.835 100.584C464.049 100.539 464.238 100.467 464.403 100.369C464.568 100.271 464.701 100.148 464.802 100.001C464.903 99.8538 464.968 99.6858 464.997 99.4971L466.801 99.2364C466.801 99.683 466.696 100.096 466.483 100.474C466.274 100.849 465.968 101.172 465.566 101.443C465.167 101.711 464.681 101.905 464.109 102.027ZM473.236 94.763L471.498 95.2457C471.436 95.1016 471.342 94.9798 471.218 94.8805C471.092 94.7782 470.94 94.7082 470.762 94.6705C470.587 94.6292 470.388 94.6322 470.165 94.6795C469.867 94.7429 469.629 94.8595 469.451 95.0295C469.273 95.1964 469.205 95.3838 469.25 95.5915C469.285 95.757 469.381 95.883 469.538 95.9692C469.694 96.0554 469.941 96.0989 470.278 96.0997L471.587 96.0858C472.291 96.0809 472.841 96.1968 473.237 96.4335C473.634 96.6702 473.885 97.0384 473.991 97.5381C474.088 97.9927 474.039 98.42 473.844 98.8201C473.652 99.2196 473.344 99.565 472.922 99.8562C472.501 100.144 471.99 100.352 471.388 100.479C470.47 100.675 469.698 100.639 469.072 100.372C468.448 100.102 468.019 99.646 467.785 99.0036L469.656 98.5021C469.773 98.7699 469.956 98.9542 470.208 99.055C470.458 99.1528 470.755 99.1652 471.098 99.0922C471.435 99.0206 471.692 98.8983 471.87 98.7253C472.049 98.5487 472.118 98.3562 472.077 98.1479C472.037 97.9739 471.933 97.8466 471.765 97.7659C471.596 97.6822 471.355 97.6423 471.041 97.6461L469.789 97.662C469.083 97.6705 468.528 97.5429 468.126 97.2791C467.727 97.0147 467.473 96.6236 467.362 96.1059C467.268 95.6603 467.307 95.2509 467.479 94.8776C467.654 94.5036 467.943 94.1827 468.346 93.9146C468.751 93.646 469.25 93.4486 469.843 93.3226C470.719 93.1364 471.448 93.175 472.03 93.4384C472.614 93.7012 473.016 94.1427 473.236 94.763ZM475.659 99.43L474.185 92.4941L476.109 92.0852L477.583 99.0212L475.659 99.43ZM474.961 91.3946C474.675 91.4554 474.41 91.4127 474.165 91.2666C473.922 91.1168 473.772 90.9079 473.715 90.64C473.659 90.3751 473.712 90.1263 473.873 89.8938C474.037 89.6576 474.262 89.5092 474.548 89.4484C474.834 89.3876 475.098 89.4321 475.341 89.5819C475.586 89.728 475.736 89.9335 475.793 90.1985C475.85 90.4664 475.796 90.7184 475.632 90.9546C475.471 91.1871 475.247 91.3338 474.961 91.3946ZM482.832 100.775C482.209 100.907 481.657 100.935 481.175 100.858C480.696 100.784 480.295 100.628 479.971 100.392C479.647 100.156 479.407 99.8636 479.252 99.516L480.98 98.8985C481.063 99.0255 481.177 99.1367 481.32 99.2322C481.463 99.3276 481.638 99.391 481.846 99.4223C482.058 99.456 482.304 99.443 482.584 99.3835C483.002 99.2946 483.325 99.119 483.553 98.8567C483.784 98.5967 483.849 98.229 483.748 97.7533L483.478 96.4844L483.397 96.5017C483.353 96.7123 483.266 96.9213 483.133 97.1287C483.001 97.3362 482.814 97.5222 482.572 97.6869C482.331 97.8516 482.026 97.9729 481.659 98.051C481.138 98.1617 480.638 98.1421 480.159 97.9921C479.683 97.8385 479.265 97.5387 478.906 97.0927C478.55 96.6431 478.29 96.0345 478.127 95.2668C477.96 94.4811 477.948 93.7976 478.092 93.2164C478.236 92.6352 478.492 92.1685 478.861 91.8164C479.233 91.4636 479.673 91.2332 480.182 91.125C480.57 91.0425 480.909 91.0396 481.199 91.1164C481.489 91.1902 481.734 91.308 481.935 91.4697C482.139 91.6278 482.304 91.7909 482.431 91.959L482.503 91.9437L482.256 90.7786L484.166 90.3726L485.654 97.3763C485.78 97.9664 485.74 98.4908 485.536 98.9496C485.331 99.4084 484.994 99.7915 484.525 100.099C484.059 100.409 483.495 100.634 482.832 100.775ZM481.961 96.4764C482.271 96.4105 482.517 96.2781 482.698 96.0791C482.881 95.8765 483 95.6186 483.053 95.3053C483.108 94.9883 483.092 94.6266 483.006 94.2202C482.92 93.8138 482.788 93.4737 482.61 93.2C482.431 92.9233 482.216 92.7252 481.964 92.6057C481.712 92.4862 481.431 92.4594 481.121 92.5253C480.805 92.5925 480.557 92.7349 480.377 92.9526C480.196 93.1672 480.082 93.4369 480.034 93.7616C479.987 94.0863 480.005 94.4459 480.089 94.8402C480.174 95.2406 480.303 95.575 480.477 95.8433C480.653 96.108 480.864 96.2974 481.112 96.4115C481.362 96.522 481.645 96.5436 481.961 96.4764ZM488.242 92.5645L489.094 96.5743L487.171 96.9832L485.696 90.0473L487.53 89.6576L487.79 90.8813L487.871 90.864C487.939 90.428 488.129 90.0542 488.44 89.7426C488.751 89.428 489.163 89.216 489.678 89.1065C490.16 89.0042 490.602 89.0203 491.005 89.1549C491.408 89.2894 491.751 89.5313 492.032 89.8804C492.314 90.2265 492.512 90.669 492.626 91.2079L493.565 95.6241L491.641 96.033L490.775 91.9599C490.688 91.5348 490.509 91.2267 490.239 91.0356C489.968 90.8415 489.64 90.7854 489.255 90.8673C488.996 90.9223 488.779 91.0266 488.604 91.1802C488.432 91.3332 488.313 91.5284 488.247 91.7658C488.183 91.9996 488.182 92.2658 488.242 92.5645ZM498.271 94.7654C497.557 94.9171 496.912 94.9031 496.336 94.7236C495.762 94.5403 495.28 94.2117 494.89 93.7378C494.499 93.2608 494.226 92.6565 494.071 91.925C493.919 91.2115 493.924 90.5559 494.087 89.9582C494.249 89.3605 494.55 88.8577 494.988 88.4498C495.43 88.0412 495.991 87.7646 496.672 87.62C497.129 87.5228 497.571 87.506 497.997 87.5697C498.425 87.6297 498.817 87.7744 499.174 88.0037C499.534 88.2323 499.844 88.5503 500.104 88.9577C500.363 89.362 500.555 89.8592 500.681 90.4492L500.793 90.9775L494.936 92.2224L494.683 91.0303L498.729 90.1703C498.67 89.8933 498.557 89.6608 498.392 89.4726C498.226 89.2845 498.023 89.1529 497.784 89.078C497.547 88.9993 497.288 88.9898 497.008 89.0493C496.716 89.1113 496.472 89.2341 496.275 89.4176C496.08 89.5974 495.944 89.8136 495.865 90.0663C495.786 90.3159 495.774 90.578 495.83 90.8526L496.071 91.986C496.143 92.3292 496.27 92.6123 496.449 92.8353C496.632 93.0576 496.855 93.2116 497.118 93.2971C497.382 93.3827 497.675 93.3912 497.997 93.3228C498.211 93.2773 498.4 93.2056 498.565 93.1077C498.73 93.0097 498.863 92.8871 498.963 92.7398C499.064 92.5925 499.129 92.4245 499.158 92.2358L500.962 91.9751C500.963 92.4218 500.857 92.8344 500.645 93.213C500.435 93.588 500.129 93.911 499.728 94.182C499.328 94.4494 498.843 94.6439 498.271 94.7654ZM502.681 93.6865L501.206 86.7505L503.071 86.3541L503.329 87.5643L503.401 87.5489C503.436 87.0916 503.579 86.7213 503.83 86.4382C504.081 86.1521 504.4 85.9678 504.789 85.8852C504.885 85.8648 504.99 85.8487 505.104 85.8371C505.218 85.8254 505.319 85.8212 505.408 85.8244L505.771 87.5313C505.675 87.5234 505.545 87.5258 505.381 87.5387C505.217 87.5515 505.069 87.572 504.936 87.6002C504.653 87.6603 504.413 87.7758 504.217 87.9466C504.023 88.1137 503.884 88.3194 503.801 88.5636C503.72 88.8073 503.71 89.0706 503.77 89.3535L504.604 93.2776L502.681 93.6865Z" fill="white"/>
<rect x="30.6753" y="850" width="127" height="33" rx="16.5" transform="rotate(8 30.6753 850)" fill="#1E1E1E"/>
<path d="M48.3862 874.556L44.4536 871.326L45.1617 866.287L49.8325 864.265L53.7651 867.496L53.057 872.535L48.3862 874.556ZM48.4881 873.831L52.513 872.095L53.1209 867.769L49.7306 864.99L45.7057 866.727L45.0978 871.053L48.4881 873.831ZM57.1471 874.927L58.058 868.445L59.5181 868.651L59.3633 869.752L59.4393 869.763C59.6265 869.41 59.8909 869.152 60.2324 868.988C60.5743 868.821 60.9619 868.768 61.3952 868.828C61.834 868.89 62.189 869.049 62.4599 869.305C62.7341 869.559 62.9074 869.877 62.9798 870.26L63.0473 870.27C63.2414 869.93 63.5237 869.677 63.8941 869.511C64.2678 869.343 64.6895 869.291 65.1593 869.357C65.7557 869.441 66.2159 869.698 66.5399 870.128C66.8639 870.558 66.9751 871.135 66.8735 871.858L66.2621 876.208L64.7302 875.993L65.3085 871.879C65.365 871.476 65.2994 871.167 65.1117 870.952C64.9244 870.733 64.676 870.602 64.3665 870.558C63.998 870.507 63.6934 870.582 63.4528 870.783C63.2154 870.982 63.0711 871.264 63.0197 871.63L62.4515 875.673L60.9534 875.462L61.5406 871.284C61.5876 870.95 61.5239 870.668 61.3494 870.44C61.1777 870.212 60.9302 870.076 60.6066 870.03C60.3872 869.999 60.1795 870.027 59.9837 870.115C59.7882 870.199 59.6228 870.335 59.4874 870.523C59.3524 870.707 59.2662 870.933 59.2286 871.201L58.6747 875.142L57.1471 874.927ZM69.6586 876.819C69.2479 876.761 68.8882 876.636 68.5796 876.444C68.2742 876.249 68.0463 875.993 67.8957 875.676C67.7479 875.36 67.7039 874.989 67.7636 874.565C67.815 874.199 67.925 873.906 68.0937 873.686C68.2623 873.466 68.4735 873.3 68.7271 873.19C68.9808 873.079 69.259 873.008 69.5619 872.976C69.868 872.941 70.1809 872.929 70.5008 872.94C70.8861 872.954 71.1991 872.962 71.4397 872.964C71.6808 872.963 71.8595 872.937 71.9759 872.884C72.0955 872.83 72.1656 872.729 72.1862 872.583L72.1897 872.557C72.2344 872.239 72.1747 871.98 72.0108 871.779C71.8468 871.578 71.5876 871.453 71.2331 871.403C70.8589 871.35 70.5507 871.39 70.3083 871.523C70.0687 871.655 69.8954 871.828 69.7882 872.039L68.3903 871.636C68.5582 871.258 68.7901 870.955 69.0861 870.727C69.3825 870.496 69.7271 870.341 70.1198 870.261C70.513 870.179 70.936 870.169 71.3889 870.233C71.7012 870.277 72.0069 870.357 72.3061 870.474C72.6053 870.59 72.871 870.751 73.1033 870.956C73.336 871.158 73.5095 871.413 73.6239 871.722C73.7411 872.031 73.7695 872.401 73.709 872.831L73.0993 877.169L71.6308 876.963L71.756 876.072L71.7053 876.065C71.5872 876.232 71.4326 876.383 71.2417 876.516C71.054 876.648 70.8268 876.744 70.5601 876.804C70.2967 876.861 69.9962 876.866 69.6586 876.819ZM70.213 875.752C70.5197 875.795 70.794 875.772 71.0361 875.683C71.2786 875.591 71.4745 875.452 71.6239 875.266C71.7762 875.081 71.8691 874.869 71.9027 874.63L72.0101 873.866C71.9567 873.899 71.87 873.924 71.7499 873.941C71.6326 873.959 71.5019 873.971 71.3577 873.977C71.2134 873.982 71.071 873.985 70.9304 873.985C70.7898 873.986 70.6679 873.986 70.5646 873.986C70.3324 873.985 70.1213 874.007 69.9314 874.052C69.7414 874.097 69.5855 874.175 69.4636 874.287C69.3421 874.396 69.2676 874.549 69.2399 874.746C69.2004 875.028 69.2732 875.254 69.4584 875.427C69.6436 875.599 69.8951 875.708 70.213 875.752ZM77.0247 877.837C76.5155 877.765 76.0781 877.571 75.7126 877.252C75.3471 876.934 75.0826 876.51 74.919 875.979C74.7555 875.448 74.7238 874.827 74.8238 874.115C74.925 873.395 75.1286 872.804 75.4345 872.342C75.7436 871.878 76.1185 871.547 76.5592 871.351C77.0003 871.152 77.4698 871.088 77.9677 871.158C78.3475 871.211 78.6507 871.319 78.8773 871.483C79.1042 871.644 79.2768 871.825 79.395 872.025C79.5136 872.222 79.6012 872.406 79.6578 872.574L79.7211 872.583L80.1754 869.351L81.7072 869.566L80.4926 878.208L78.9903 877.997L79.1338 876.976L79.041 876.963C78.9401 877.109 78.8026 877.261 78.6286 877.417C78.455 877.57 78.2371 877.692 77.975 877.781C77.7128 877.871 77.3961 877.889 77.0247 877.837ZM77.6271 876.644C77.9506 876.689 78.2385 876.641 78.4909 876.498C78.7437 876.353 78.9513 876.131 79.1138 875.833C79.2762 875.534 79.3869 875.175 79.4458 874.756C79.5047 874.337 79.4968 873.964 79.4222 873.638C79.3503 873.313 79.2125 873.048 79.0087 872.844C78.8078 872.641 78.5427 872.516 78.2136 872.47C77.8732 872.422 77.5766 872.471 77.3238 872.616C77.071 872.761 76.865 872.982 76.7058 873.278C76.5466 873.574 76.4387 873.923 76.3821 874.326C76.3252 874.731 76.3321 875.1 76.4027 875.434C76.4766 875.766 76.6146 876.039 76.8168 876.254C77.0222 876.467 77.2923 876.597 77.6271 876.644ZM84.9721 878.967C84.3223 878.876 83.78 878.662 83.3453 878.325C82.9139 877.986 82.6065 877.55 82.4233 877.016C82.2405 876.48 82.1968 875.873 82.292 875.195C82.3857 874.528 82.5946 873.961 82.9185 873.493C83.2457 873.022 83.6584 872.679 84.1565 872.462C84.6549 872.242 85.2137 872.176 85.8326 872.263C86.2321 872.319 86.5999 872.437 86.9362 872.616C87.2757 872.793 87.5631 873.034 87.7984 873.34C88.0366 873.646 88.2054 874.016 88.3048 874.452C88.4046 874.885 88.4146 875.386 88.3347 875.954L88.2689 876.422L82.956 875.676L83.1008 874.646L86.9493 875.187C86.9876 874.894 86.9609 874.625 86.8691 874.379C86.7778 874.131 86.6302 873.926 86.4266 873.762C86.2257 873.599 85.979 873.497 85.6864 873.456C85.3742 873.412 85.0892 873.449 84.8315 873.568C84.5743 873.684 84.3623 873.855 84.1957 874.081C84.0323 874.305 83.9288 874.561 83.8853 874.851L83.7589 875.75C83.706 876.127 83.7294 876.46 83.8293 876.749C83.9296 877.036 84.0934 877.268 84.3208 877.447C84.5486 877.622 84.8285 877.733 85.1605 877.78C85.3827 877.811 85.5882 877.808 85.777 877.772C85.9661 877.732 86.1355 877.66 86.2851 877.555C86.4347 877.45 86.5562 877.31 86.6494 877.137L88.0532 877.498C87.9102 877.862 87.6923 878.167 87.3996 878.413C87.11 878.656 86.7589 878.828 86.3461 878.928C85.9337 879.025 85.4757 879.038 84.9721 878.967ZM92.1121 879.841L93.023 873.359L94.5506 873.574L93.6397 880.056L92.1121 879.841ZM93.9203 872.547C93.6784 872.513 93.4815 872.404 93.3296 872.219C93.1781 872.031 93.1184 871.824 93.1504 871.596C93.1828 871.365 93.2975 871.182 93.4945 871.046C93.6918 870.907 93.9115 870.855 94.1534 870.889C94.3982 870.923 94.5949 871.034 94.7435 871.222C94.8954 871.406 94.9552 871.614 94.9227 871.845C94.8907 872.073 94.776 872.256 94.5787 872.395C94.3845 872.531 94.1651 872.582 93.9203 872.547ZM97.2719 876.693L96.7381 880.491L95.2105 880.277L96.1215 873.795L97.5816 874L97.4268 875.102L97.5027 875.112C97.7028 874.77 97.9811 874.515 98.3375 874.347C98.6967 874.18 99.1182 874.13 99.6021 874.198C100.049 874.261 100.426 874.411 100.731 874.649C101.039 874.888 101.258 875.201 101.39 875.59C101.525 875.979 101.555 876.432 101.479 876.949L100.899 881.076L99.3713 880.861L99.9181 876.971C99.979 876.537 99.9141 876.183 99.7235 875.906C99.5356 875.63 99.2448 875.465 98.8509 875.409C98.5837 875.372 98.3376 875.397 98.1128 875.486C97.8913 875.573 97.706 875.717 97.557 875.92C97.4108 876.123 97.3158 876.381 97.2719 876.693ZM109.593 875.688L109.427 876.87L105.596 876.331L105.762 875.15L109.593 875.688ZM105.809 881.766L106.806 874.673C106.867 874.236 107.008 873.886 107.229 873.622C107.452 873.358 107.728 873.175 108.054 873.075C108.381 872.975 108.732 872.951 109.106 873.003C109.37 873.041 109.602 873.095 109.802 873.166C110.001 873.237 110.148 873.296 110.241 873.344L109.772 874.483C109.71 874.454 109.631 874.423 109.535 874.389C109.44 874.353 109.332 874.326 109.211 874.309C108.927 874.269 108.716 874.31 108.578 874.431C108.444 874.55 108.359 874.736 108.323 874.989L107.341 881.981L105.809 881.766ZM109.879 882.338L110.79 875.856L112.317 876.071L111.406 882.553L109.879 882.338ZM111.687 875.044C111.445 875.01 111.248 874.901 111.096 874.716C110.945 874.528 110.885 874.321 110.917 874.093C110.95 873.862 111.064 873.679 111.261 873.543C111.459 873.404 111.678 873.352 111.92 873.386C112.165 873.42 112.362 873.531 112.51 873.719C112.662 873.903 112.722 874.111 112.69 874.342C112.658 874.57 112.543 874.753 112.345 874.892C112.151 875.028 111.932 875.079 111.687 875.044ZM115.436 885.735C114.887 885.658 114.426 885.518 114.053 885.313C113.68 885.112 113.391 884.87 113.187 884.589C112.983 884.308 112.855 884.01 112.805 883.696L114.227 883.556C114.271 883.691 114.344 883.829 114.444 883.97C114.545 884.113 114.689 884.239 114.877 884.349C115.068 884.462 115.317 884.54 115.623 884.583C116.057 884.644 116.43 884.589 116.744 884.418C117.057 884.249 117.248 883.926 117.315 883.448L117.487 882.22L117.412 882.209C117.311 882.356 117.173 882.501 116.997 882.646C116.825 882.791 116.607 882.902 116.344 882.98C116.083 883.058 115.767 883.071 115.396 883.019C114.898 882.949 114.463 882.769 114.09 882.478C113.721 882.185 113.45 881.789 113.276 881.288C113.106 880.785 113.071 880.18 113.17 879.474C113.27 878.763 113.473 878.179 113.778 877.722C114.086 877.264 114.46 876.936 114.901 876.74C115.342 876.541 115.812 876.476 116.31 876.546C116.689 876.599 116.993 876.708 117.219 876.872C117.449 877.033 117.624 877.214 117.745 877.415C117.867 877.613 117.954 877.796 118.008 877.964L118.093 877.976L118.243 876.904L119.75 877.116L118.824 883.703C118.746 884.257 118.549 884.697 118.234 885.023C117.918 885.349 117.519 885.569 117.035 885.685C116.551 885.8 116.018 885.817 115.436 885.735ZM115.99 881.88C116.314 881.926 116.601 881.886 116.851 881.76C117.101 881.635 117.306 881.433 117.465 881.154C117.625 880.875 117.734 880.529 117.792 880.115C117.849 879.707 117.84 879.342 117.765 879.019C117.693 878.696 117.555 878.434 117.351 878.233C117.15 878.03 116.885 877.905 116.556 877.859C116.215 877.811 115.919 877.86 115.666 878.005C115.413 878.15 115.207 878.369 115.048 878.662C114.89 878.953 114.783 879.294 114.728 879.685C114.672 880.081 114.681 880.437 114.755 880.751C114.831 881.063 114.972 881.318 115.177 881.516C115.384 881.712 115.656 881.833 115.99 881.88ZM120.404 883.817L121.315 877.336L122.775 877.541L122.621 878.642L122.697 878.653C122.884 878.301 123.148 878.042 123.49 877.878C123.832 877.711 124.219 877.658 124.652 877.719C125.091 877.78 125.446 877.939 125.717 878.195C125.991 878.449 126.165 878.767 126.237 879.151L126.305 879.16C126.499 878.82 126.781 878.567 127.151 878.401C127.525 878.233 127.947 878.182 128.417 878.248C129.013 878.331 129.473 878.588 129.797 879.018C130.121 879.448 130.232 880.025 130.131 880.748L129.519 885.098L127.987 884.883L128.566 880.769C128.622 880.366 128.557 880.057 128.369 879.842C128.182 879.623 127.933 879.492 127.624 879.449C127.255 879.397 126.951 879.472 126.71 879.673C126.473 879.872 126.328 880.155 126.277 880.52L125.709 884.563L124.211 884.352L124.798 880.175C124.845 879.84 124.781 879.558 124.607 879.33C124.435 879.102 124.187 878.966 123.864 878.92C123.644 878.889 123.437 878.918 123.241 879.005C123.045 879.089 122.88 879.225 122.745 879.413C122.61 879.597 122.523 879.823 122.486 880.091L121.932 884.032L120.404 883.817ZM132.916 885.709C132.505 885.651 132.145 885.526 131.837 885.334C131.531 885.139 131.304 884.883 131.153 884.566C131.005 884.25 130.961 883.88 131.021 883.455C131.072 883.089 131.182 882.796 131.351 882.576C131.52 882.356 131.731 882.19 131.984 882.08C132.238 881.969 132.516 881.898 132.819 881.866C133.125 881.831 133.438 881.819 133.758 881.83C134.143 881.844 134.456 881.852 134.697 881.854C134.938 881.854 135.117 881.827 135.233 881.775C135.353 881.72 135.423 881.619 135.443 881.473L135.447 881.448C135.492 881.13 135.432 880.87 135.268 880.669C135.104 880.468 134.845 880.343 134.49 880.293C134.116 880.241 133.808 880.281 133.566 880.413C133.326 880.546 133.153 880.718 133.045 880.929L131.648 880.526C131.815 880.148 132.047 879.845 132.343 879.617C132.64 879.386 132.984 879.231 133.377 879.151C133.77 879.069 134.193 879.059 134.646 879.123C134.958 879.167 135.264 879.247 135.563 879.364C135.863 879.481 136.128 879.641 136.361 879.846C136.593 880.048 136.767 880.303 136.881 880.612C136.998 880.921 137.027 881.291 136.966 881.721L136.357 886.059L134.888 885.853L135.013 884.963L134.963 884.955C134.844 885.122 134.69 885.273 134.499 885.407C134.311 885.538 134.084 885.634 133.817 885.694C133.554 885.752 133.253 885.757 132.916 885.709ZM133.47 884.642C133.777 884.686 134.051 884.662 134.293 884.573C134.536 884.481 134.732 884.342 134.881 884.157C135.033 883.971 135.126 883.759 135.16 883.52L135.267 882.756C135.214 882.789 135.127 882.814 135.007 882.832C134.89 882.85 134.759 882.861 134.615 882.867C134.471 882.872 134.328 882.875 134.188 882.876C134.047 882.876 133.925 882.876 133.822 882.876C133.59 882.875 133.379 882.897 133.189 882.942C132.999 882.987 132.843 883.065 132.721 883.177C132.599 883.286 132.525 883.44 132.497 883.636C132.458 883.918 132.53 884.145 132.716 884.317C132.901 884.489 133.152 884.598 133.47 884.642Z" fill="#0ACF83"/>
<rect x="31.0991" y="471.412" width="103" height="34" rx="17" transform="rotate(-6 31.0991 471.412)" fill="#FAF7F2"/>
<rect x="31.0991" y="471.412" width="103" height="34" rx="17" transform="rotate(-6 31.0991 471.412)" stroke="#F24E1E" stroke-width="2"/>
<path d="M53.8753 491.401C53.565 491.434 53.2677 491.382 52.9833 491.246C52.7084 491.118 52.475 490.929 52.2832 490.679C52.0999 490.429 51.9916 490.144 51.958 489.825C51.9091 489.359 52.0398 488.945 52.3502 488.581C52.6691 488.216 53.0888 487.98 53.6091 487.873L53.4364 487.473C53.2739 487.586 53.0843 487.689 52.8675 487.781C52.6592 487.873 52.456 487.929 52.2577 487.95C51.9475 487.983 51.6592 487.935 51.3929 487.806C51.1344 487.667 50.9182 487.477 50.7445 487.233C50.5699 486.982 50.4668 486.705 50.4351 486.403C50.4006 486.076 50.4474 485.774 50.5754 485.5C50.7111 485.215 50.9 484.982 51.1423 484.799C51.3846 484.617 51.6608 484.51 51.9711 484.477C52.3245 484.44 52.6781 484.529 53.0319 484.745C53.3857 484.96 53.6545 485.237 53.8381 485.575L54.1471 485.281C53.8917 485.09 53.6772 484.873 53.5035 484.63C53.3375 484.377 53.2418 484.13 53.2165 483.889C53.182 483.561 53.2288 483.26 53.3568 482.985C53.4838 482.702 53.6685 482.469 53.9108 482.286C54.1607 482.094 54.4452 481.982 54.7641 481.948C55.083 481.915 55.3847 481.966 55.6691 482.102C55.9526 482.229 56.1859 482.418 56.3692 482.668C56.561 482.918 56.6737 483.203 56.7072 483.522C56.7326 483.763 56.6865 484.029 56.569 484.321C56.4505 484.603 56.2897 484.855 56.0864 485.077L56.4497 485.3C56.5582 484.923 56.7592 484.597 57.0528 484.322C57.354 484.038 57.6857 483.876 58.0477 483.838C58.358 483.806 58.6505 483.853 58.9254 483.981C59.2089 484.109 59.4423 484.297 59.6255 484.548C59.8078 484.791 59.9162 485.076 59.9506 485.403C59.9823 485.705 59.9347 485.997 59.8076 486.281C59.6883 486.555 59.5122 486.787 59.2795 486.977C59.0544 487.157 58.7954 487.263 58.5023 487.294C58.1145 487.335 57.6928 487.261 57.2374 487.074L57.1516 487.501C57.5 487.499 57.8207 487.566 58.1137 487.701C58.4059 487.827 58.6474 488.011 58.8383 488.252C59.0284 488.485 59.1397 488.756 59.1723 489.066C59.2049 489.377 59.1534 489.674 59.0177 489.959C58.8906 490.242 58.7064 490.479 58.4651 490.67C58.2237 490.861 57.9436 490.973 57.6247 491.007C57.1334 491.059 56.7063 490.933 56.3434 490.632C55.9797 490.321 55.7697 489.899 55.7135 489.365C55.6927 489.166 55.6948 488.979 55.7197 488.802L55.2802 488.848C55.3065 488.933 55.3289 489.022 55.3475 489.116C55.3747 489.209 55.3933 489.302 55.4032 489.397C55.4585 489.923 55.3405 490.376 55.0492 490.755C54.7579 491.134 54.3666 491.349 53.8753 491.401ZM55.4517 488.49C55.7447 488.459 56.0042 488.358 56.2302 488.186C56.4561 488.014 56.6297 487.8 56.7508 487.543C56.872 487.287 56.9172 487.012 56.8864 486.719C56.8556 486.426 56.7542 486.166 56.5823 485.94C56.4104 485.714 56.1961 485.541 55.9394 485.419C55.6826 485.298 55.4077 485.253 55.1147 485.284C54.8216 485.315 54.5621 485.416 54.3362 485.588C54.1189 485.759 53.9497 485.973 53.8285 486.23C53.716 486.485 53.6751 486.76 53.7059 487.053C53.7367 487.346 53.8342 487.61 53.9984 487.846C54.1702 488.072 54.3846 488.245 54.6413 488.366C54.8971 488.479 55.1673 488.52 55.4517 488.49ZM65.1893 492.624L64.1702 482.928L66.0985 482.725L66.223 483.909L66.3102 483.9C66.3759 483.701 66.4796 483.496 66.6213 483.283C66.7656 483.066 66.9625 482.879 67.2119 482.719C67.4641 482.557 67.7875 482.454 68.1824 482.413C68.6966 482.359 69.1852 482.444 69.6481 482.667C70.1107 482.888 70.5004 483.254 70.8172 483.765C71.1337 484.274 71.3344 484.932 71.4193 485.74C71.502 486.527 71.4448 487.204 71.2477 487.773C71.0533 488.338 70.7535 488.782 70.3481 489.106C69.9455 489.427 69.4764 489.616 68.9407 489.672C68.5612 489.712 68.2317 489.683 67.9522 489.586C67.6758 489.488 67.4434 489.353 67.2551 489.181C67.0665 489.006 66.9175 488.825 66.8082 488.638L66.7485 488.645L67.1452 492.419L65.1893 492.624ZM66.4553 486.252C66.4994 486.672 66.596 487.031 66.7451 487.331C66.8942 487.631 67.0881 487.857 67.3268 488.008C67.5652 488.156 67.8421 488.214 68.1573 488.181C68.4756 488.147 68.7358 488.032 68.9379 487.834C69.1396 487.634 69.2807 487.371 69.3611 487.047C69.4443 486.72 69.4643 486.351 69.4212 485.941C69.3784 485.534 69.2841 485.181 69.1384 484.884C68.9927 484.587 68.8004 484.363 68.5617 484.211C68.323 484.06 68.043 484.001 67.7216 484.035C67.4033 484.068 67.1428 484.181 66.9401 484.372C66.7404 484.564 66.5987 484.82 66.5149 485.141C66.4311 485.463 66.4112 485.833 66.4553 486.252ZM76.2936 488.923C75.5805 488.997 74.9478 488.911 74.3956 488.662C73.8462 488.411 73.402 488.027 73.0631 487.512C72.724 486.994 72.5164 486.373 72.4405 485.651C72.3639 484.923 72.4378 484.271 72.6621 483.697C72.8862 483.119 73.2409 482.652 73.7263 482.294C74.2145 481.934 74.8151 481.716 75.5283 481.641C76.2415 481.566 76.8728 481.654 77.4222 481.906C77.9744 482.154 78.4201 482.538 78.7592 483.056C79.0981 483.571 79.3058 484.193 79.3824 484.922C79.4583 485.644 79.3843 486.294 79.1602 486.871C78.9359 487.446 78.5797 487.913 78.0915 488.274C77.6061 488.631 77.0068 488.848 76.2936 488.923ZM76.1436 487.406C76.468 487.372 76.7292 487.252 76.9272 487.046C77.1249 486.836 77.262 486.565 77.3384 486.232C77.4179 485.899 77.4361 485.527 77.3929 485.117C77.3498 484.707 77.2548 484.347 77.1077 484.037C76.9638 483.727 76.7733 483.491 76.5364 483.327C76.2994 483.163 76.0187 483.098 75.6943 483.132C75.3668 483.167 75.1011 483.289 74.8973 483.499C74.6966 483.709 74.5565 483.98 74.477 484.314C74.4006 484.647 74.3839 485.018 74.427 485.428C74.4701 485.839 74.5637 486.199 74.7077 486.508C74.8547 486.818 75.0482 487.054 75.2882 487.218C75.5309 487.378 75.8161 487.441 76.1436 487.406ZM81.0218 488.286L80.2806 481.234L82.1768 481.035L82.3061 482.265L82.3796 482.258C82.4621 481.806 82.6432 481.453 82.9227 481.198C83.2019 480.94 83.5389 480.79 83.9338 480.748C84.0317 480.738 84.138 480.733 84.2525 480.733C84.3671 480.734 84.4683 480.74 84.5562 480.752L84.7387 482.488C84.6439 482.47 84.5143 482.459 84.3499 482.454C84.1854 482.45 84.0358 482.455 83.9011 482.469C83.6134 482.499 83.3629 482.589 83.1496 482.738C82.939 482.884 82.7795 483.074 82.6711 483.309C82.5657 483.542 82.5281 483.803 82.5583 484.091L82.9777 488.081L81.0218 488.286ZM89.6754 480.247L89.8298 481.716L85.5829 482.162L85.4285 480.693L89.6754 480.247ZM86.2151 478.902L88.1709 478.697L88.8619 485.271C88.8809 485.452 88.9233 485.59 88.989 485.685C89.0544 485.777 89.1381 485.838 89.2403 485.867C89.3454 485.897 89.4638 485.904 89.5955 485.891C89.6873 485.881 89.7783 485.864 89.8685 485.839C89.9584 485.811 90.0274 485.789 90.0754 485.775L90.5359 487.198C90.4412 487.239 90.3072 487.289 90.1338 487.347C89.9608 487.409 89.7478 487.457 89.4947 487.493C89.0253 487.561 88.6054 487.542 88.2353 487.435C87.8682 487.328 87.5707 487.134 87.343 486.851C87.1153 486.569 86.9786 486.196 86.9331 485.734L86.2151 478.902ZM94.7417 479.714L94.8962 481.184L90.5437 481.641L90.3893 480.172L94.7417 479.714ZM92.1268 487.119L91.332 479.557C91.2783 479.046 91.3332 478.612 91.4968 478.254C91.6634 477.896 91.9123 477.615 92.2436 477.41C92.5748 477.205 92.9623 477.079 93.4061 477.032C93.7061 477.001 93.9825 476.995 94.2352 477.015C94.491 477.034 94.6821 477.056 94.8084 477.08L94.6138 478.586C94.5347 478.569 94.4375 478.556 94.322 478.547C94.2095 478.537 94.0951 478.538 93.9788 478.55C93.6911 478.581 93.4977 478.669 93.3986 478.816C93.2992 478.959 93.262 479.15 93.2871 479.389L94.078 486.914L92.1268 487.119ZM99.626 486.47C98.9129 486.545 98.2802 486.458 97.728 486.21C97.1786 485.958 96.7344 485.575 96.3956 485.06C96.0564 484.541 95.8488 483.921 95.7729 483.199C95.6964 482.47 95.7702 481.819 95.9946 481.244C96.2186 480.667 96.5733 480.2 97.0587 479.842C97.5469 479.481 98.1475 479.264 98.8607 479.189C99.5739 479.114 100.205 479.202 100.755 479.454C101.307 479.702 101.752 480.085 102.092 480.604C102.431 481.119 102.638 481.741 102.715 482.469C102.791 483.192 102.717 483.841 102.493 484.419C102.268 484.993 101.912 485.461 101.424 485.822C100.938 486.179 100.339 486.395 99.626 486.47ZM99.476 484.954C99.8004 484.92 100.062 484.8 100.26 484.593C100.457 484.384 100.594 484.112 100.671 483.779C100.75 483.446 100.768 483.074 100.725 482.664C100.682 482.254 100.587 481.894 100.44 481.585C100.296 481.275 100.106 481.038 99.8688 480.874C99.6319 480.711 99.3512 480.646 99.0267 480.68C98.6992 480.714 98.4336 480.836 98.2297 481.047C98.029 481.257 97.8889 481.528 97.8094 481.861C97.733 482.194 97.7163 482.566 97.7595 482.976C97.8026 483.386 97.8961 483.746 98.0401 484.056C98.1871 484.365 98.3806 484.602 98.6206 484.766C98.8634 484.926 99.1485 484.989 99.476 484.954ZM105.322 476.226L106.31 485.628L104.354 485.834L103.366 476.431L105.322 476.226ZM107.877 485.464L107.136 478.412L109.091 478.206L109.833 485.258L107.877 485.464ZM108.023 477.399C107.732 477.43 107.472 477.36 107.244 477.189C107.018 477.014 106.891 476.791 106.862 476.519C106.834 476.249 106.912 476.007 107.097 475.793C107.285 475.575 107.524 475.451 107.815 475.421C108.105 475.39 108.364 475.462 108.589 475.636C108.818 475.807 108.946 476.027 108.974 476.297C109.003 476.569 108.924 476.814 108.736 477.032C108.551 477.246 108.313 477.369 108.023 477.399ZM114.6 484.896C113.887 484.971 113.254 484.885 112.702 484.636C112.153 484.385 111.709 484.001 111.37 483.486C111.031 482.968 110.823 482.347 110.747 481.625C110.671 480.896 110.744 480.245 110.969 479.671C111.193 479.093 111.547 478.626 112.033 478.268C112.521 477.908 113.122 477.69 113.835 477.615C114.548 477.54 115.179 477.628 115.729 477.88C116.281 478.128 116.727 478.511 117.066 479.03C117.405 479.545 117.612 480.167 117.689 480.895C117.765 481.618 117.691 482.268 117.467 482.845C117.242 483.419 116.886 483.887 116.398 484.248C115.913 484.605 115.313 484.821 114.6 484.896ZM114.45 483.38C114.775 483.346 115.036 483.226 115.234 483.019C115.432 482.81 115.569 482.539 115.645 482.206C115.724 481.872 115.743 481.501 115.7 481.09C115.656 480.68 115.561 480.321 115.414 480.011C115.27 479.701 115.08 479.464 114.843 479.301C114.606 479.137 114.325 479.072 114.001 479.106C113.673 479.14 113.408 479.263 113.204 479.473C113.003 479.683 112.863 479.954 112.784 480.288C112.707 480.621 112.691 480.992 112.734 481.402C112.777 481.812 112.87 482.172 113.014 482.482C113.161 482.792 113.355 483.028 113.595 483.192C113.838 483.352 114.123 483.415 114.45 483.38Z" fill="#F24E1E"/>
<rect x="573.899" y="950" width="37" height="30" rx="6" transform="rotate(5 573.899 950)" fill="#1ABCFE"/>
<path d="M586.288 971.329C584.986 971.215 584.063 970.689 583.517 969.751C582.981 968.814 582.782 967.551 582.921 965.961C583.06 964.371 583.475 963.161 584.166 962.332C584.866 961.503 585.867 961.145 587.169 961.259C588.471 961.373 589.39 961.899 589.926 962.836C590.472 963.773 590.675 965.037 590.536 966.627C590.397 968.217 589.977 969.426 589.277 970.255C588.586 971.085 587.59 971.443 586.288 971.329ZM586.432 969.683C587.055 969.738 587.506 969.557 587.786 969.141C588.076 968.726 588.255 968.128 588.323 967.347L588.481 965.534C588.55 964.753 588.478 964.133 588.265 963.674C588.061 963.216 587.648 962.959 587.025 962.905C586.402 962.85 585.946 963.031 585.657 963.446C585.377 963.862 585.203 964.46 585.134 965.241L584.976 967.054C584.907 967.835 584.975 968.455 585.178 968.913C585.391 969.372 585.809 969.629 586.432 969.683ZM586.657 967.117C586.331 967.088 586.109 967.003 585.99 966.862C585.881 966.721 585.834 966.558 585.85 966.372L585.877 966.065C585.894 965.879 585.968 965.726 586.1 965.607C586.242 965.488 586.475 965.443 586.801 965.471C587.126 965.5 587.343 965.584 587.453 965.725C587.572 965.867 587.623 966.03 587.607 966.216L587.58 966.523C587.564 966.709 587.485 966.861 587.343 966.98C587.211 967.1 586.982 967.145 586.657 967.117ZM591.792 971.642L591.94 969.954L594.562 970.184L595.133 963.656L595.007 963.645L592.8 966.066L591.553 964.903L594.15 962.039L597.358 962.319L596.654 970.367L598.718 970.547L598.57 972.235L591.792 971.642Z" fill="#1E1E1E"/>
<path d="M82.869 10.324H84.068V11.292H84.134C84.3027 10.9473 84.5263 10.6797 84.805 10.489C85.0837 10.291 85.432 10.192 85.85 10.192C86.5173 10.192 87.049 10.4413 87.445 10.94C87.841 11.4387 88.039 12.1793 88.039 13.162C88.039 14.1447 87.841 14.8853 87.445 15.384C87.049 15.8827 86.5173 16.132 85.85 16.132C85.432 16.132 85.0837 16.0367 84.805 15.846C84.5263 15.648 84.3027 15.3767 84.134 15.032H84.068V18.2H82.869V10.324ZM85.355 15.153C85.8097 15.153 86.158 15.0137 86.4 14.735C86.6493 14.4563 86.774 14.086 86.774 13.624V12.7C86.774 12.238 86.6493 11.8677 86.4 11.589C86.158 11.3103 85.8097 11.171 85.355 11.171C85.179 11.171 85.014 11.193 84.86 11.237C84.706 11.281 84.5703 11.347 84.453 11.435C84.3357 11.523 84.2403 11.633 84.167 11.765C84.101 11.8897 84.068 12.04 84.068 12.216V14.108C84.068 14.284 84.101 14.438 84.167 14.57C84.2403 14.6947 84.3357 14.801 84.453 14.889C84.5703 14.977 84.706 15.043 84.86 15.087C85.014 15.131 85.179 15.153 85.355 15.153ZM91.8957 16.132C91.4777 16.132 91.1 16.0623 90.7627 15.923C90.4327 15.7837 90.1504 15.5857 89.9157 15.329C89.6884 15.0723 89.5124 14.7607 89.3877 14.394C89.263 14.0273 89.2007 13.6167 89.2007 13.162C89.2007 12.7073 89.263 12.2967 89.3877 11.93C89.5124 11.5633 89.6884 11.2517 89.9157 10.995C90.1504 10.7383 90.4327 10.5403 90.7627 10.401C91.1 10.2617 91.4777 10.192 91.8957 10.192C92.3137 10.192 92.6877 10.2617 93.0177 10.401C93.355 10.5403 93.6374 10.7383 93.8647 10.995C94.0994 11.2517 94.279 11.5633 94.4037 11.93C94.5284 12.2967 94.5907 12.7073 94.5907 13.162C94.5907 13.6167 94.5284 14.0273 94.4037 14.394C94.279 14.7607 94.0994 15.0723 93.8647 15.329C93.6374 15.5857 93.355 15.7837 93.0177 15.923C92.6877 16.0623 92.3137 16.132 91.8957 16.132ZM91.8957 15.186C92.3357 15.186 92.684 15.054 92.9407 14.79C93.2047 14.5187 93.3367 14.119 93.3367 13.591V12.733C93.3367 12.205 93.2047 11.809 92.9407 11.545C92.684 11.2737 92.3357 11.138 91.8957 11.138C91.4557 11.138 91.1037 11.2737 90.8397 11.545C90.583 11.809 90.4547 12.205 90.4547 12.733V13.591C90.4547 14.119 90.583 14.5187 90.8397 14.79C91.1037 15.054 91.4557 15.186 91.8957 15.186ZM96.0274 15.032H97.5344V11.292H96.0274V10.324H98.7334V11.831H98.7994C98.8507 11.633 98.9241 11.4423 99.0194 11.259C99.1147 11.0757 99.2357 10.918 99.3824 10.786C99.5291 10.6467 99.7087 10.5367 99.9214 10.456C100.134 10.368 100.383 10.324 100.669 10.324H101.351V11.468H100.229C99.7894 11.468 99.4301 11.6 99.1514 11.864C98.8727 12.1207 98.7334 12.469 98.7334 12.909V15.032H100.79V16H96.0274V15.032ZM105.428 16C104.929 16 104.563 15.868 104.328 15.604C104.093 15.3327 103.976 14.9843 103.976 14.559V11.292H102.227V10.324H103.47C103.683 10.324 103.833 10.2837 103.921 10.203C104.009 10.115 104.053 9.961 104.053 9.741V8.322H105.175V10.324H107.595V11.292H105.175V15.032H107.595V16H105.428ZM109.241 15.032H111.056V11.292H109.131V10.324H111.056V9.301C111.056 8.87567 111.173 8.531 111.408 8.267C111.642 7.99567 112.009 7.86 112.508 7.86H114.422V8.828H112.255V10.324H114.422V11.292H112.255V15.032H114.169V16H109.241V15.032ZM118.279 16.132C117.861 16.132 117.483 16.0623 117.146 15.923C116.816 15.7837 116.533 15.5857 116.299 15.329C116.071 15.0723 115.895 14.7607 115.771 14.394C115.646 14.0273 115.584 13.6167 115.584 13.162C115.584 12.7073 115.646 12.2967 115.771 11.93C115.895 11.5633 116.071 11.2517 116.299 10.995C116.533 10.7383 116.816 10.5403 117.146 10.401C117.483 10.2617 117.861 10.192 118.279 10.192C118.697 10.192 119.071 10.2617 119.401 10.401C119.738 10.5403 120.02 10.7383 120.248 10.995C120.482 11.2517 120.662 11.5633 120.787 11.93C120.911 12.2967 120.974 12.7073 120.974 13.162C120.974 13.6167 120.911 14.0273 120.787 14.394C120.662 14.7607 120.482 15.0723 120.248 15.329C120.02 15.5857 119.738 15.7837 119.401 15.923C119.071 16.0623 118.697 16.132 118.279 16.132ZM118.279 15.186C118.719 15.186 119.067 15.054 119.324 14.79C119.588 14.5187 119.72 14.119 119.72 13.591V12.733C119.72 12.205 119.588 11.809 119.324 11.545C119.067 11.2737 118.719 11.138 118.279 11.138C117.839 11.138 117.487 11.2737 117.223 11.545C116.966 11.809 116.838 12.205 116.838 12.733V13.591C116.838 14.119 116.966 14.5187 117.223 14.79C117.487 15.054 117.839 15.186 118.279 15.186ZM122.399 15.032H124.28V8.828H122.399V7.86H125.479V15.032H127.36V16H122.399V15.032ZM131.822 9.29C131.514 9.29 131.298 9.22767 131.173 9.103C131.056 8.97833 130.997 8.82433 130.997 8.641V8.41C130.997 8.22667 131.056 8.07267 131.173 7.948C131.298 7.82333 131.51 7.761 131.811 7.761C132.119 7.761 132.332 7.82333 132.449 7.948C132.574 8.07267 132.636 8.22667 132.636 8.41V8.641C132.636 8.82433 132.574 8.97833 132.449 9.103C132.332 9.22767 132.123 9.29 131.822 9.29ZM129.281 15.032H131.217V11.292H129.281V10.324H132.416V15.032H134.231V16H129.281V15.032ZM138.066 16.132C137.648 16.132 137.27 16.0623 136.933 15.923C136.603 15.7837 136.32 15.5857 136.086 15.329C135.858 15.0723 135.682 14.7607 135.558 14.394C135.433 14.0273 135.371 13.6167 135.371 13.162C135.371 12.7073 135.433 12.2967 135.558 11.93C135.682 11.5633 135.858 11.2517 136.086 10.995C136.32 10.7383 136.603 10.5403 136.933 10.401C137.27 10.2617 137.648 10.192 138.066 10.192C138.484 10.192 138.858 10.2617 139.188 10.401C139.525 10.5403 139.807 10.7383 140.035 10.995C140.269 11.2517 140.449 11.5633 140.574 11.93C140.698 12.2967 140.761 12.7073 140.761 13.162C140.761 13.6167 140.698 14.0273 140.574 14.394C140.449 14.7607 140.269 15.0723 140.035 15.329C139.807 15.5857 139.525 15.7837 139.188 15.923C138.858 16.0623 138.484 16.132 138.066 16.132ZM138.066 15.186C138.506 15.186 138.854 15.054 139.111 14.79C139.375 14.5187 139.507 14.119 139.507 13.591V12.733C139.507 12.205 139.375 11.809 139.111 11.545C138.854 11.2737 138.506 11.138 138.066 11.138C137.626 11.138 137.274 11.2737 137.01 11.545C136.753 11.809 136.625 12.205 136.625 12.733V13.591C136.625 14.119 136.753 14.5187 137.01 14.79C137.274 15.054 137.626 15.186 138.066 15.186ZM143 13.25V12.051H146.322V13.25H143ZM148.881 7.86H150.08V11.292H150.135C150.194 11.1453 150.267 11.006 150.355 10.874C150.45 10.7347 150.564 10.6173 150.696 10.522C150.828 10.4193 150.982 10.3387 151.158 10.28C151.334 10.2213 151.539 10.192 151.774 10.192C152.346 10.192 152.808 10.379 153.16 10.753C153.512 11.127 153.688 11.6587 153.688 12.348V16H152.489V12.524C152.489 11.622 152.097 11.171 151.312 11.171C151.158 11.171 151.008 11.193 150.861 11.237C150.714 11.2737 150.582 11.3323 150.465 11.413C150.348 11.4937 150.252 11.5963 150.179 11.721C150.113 11.8457 150.08 11.9887 150.08 12.15V16H148.881V7.86ZM157.974 16.132C157.541 16.132 157.152 16.0623 156.808 15.923C156.463 15.7837 156.173 15.5857 155.939 15.329C155.704 15.0723 155.524 14.7643 155.4 14.405C155.275 14.0383 155.213 13.6277 155.213 13.173C155.213 12.7183 155.275 12.3077 155.4 11.941C155.532 11.5743 155.711 11.2627 155.939 11.006C156.173 10.742 156.456 10.5403 156.786 10.401C157.116 10.2617 157.482 10.192 157.886 10.192C158.282 10.192 158.641 10.2617 158.964 10.401C159.286 10.533 159.561 10.7237 159.789 10.973C160.016 11.2223 160.188 11.5193 160.306 11.864C160.43 12.2087 160.493 12.59 160.493 13.008V13.459H156.423V13.646C156.423 14.0933 156.562 14.46 156.841 14.746C157.119 15.0247 157.504 15.164 157.996 15.164C158.362 15.164 158.674 15.087 158.931 14.933C159.195 14.7717 159.407 14.559 159.569 14.295L160.317 14.955C160.126 15.285 159.833 15.5637 159.437 15.791C159.048 16.0183 158.56 16.132 157.974 16.132ZM157.886 11.105C157.673 11.105 157.475 11.1417 157.292 11.215C157.116 11.2883 156.962 11.3947 156.83 11.534C156.705 11.666 156.606 11.8237 156.533 12.007C156.459 12.1903 156.423 12.392 156.423 12.612V12.689H159.272V12.579C159.272 12.1317 159.143 11.776 158.887 11.512C158.637 11.2407 158.304 11.105 157.886 11.105ZM161.984 15.032H163.491V11.292H161.984V10.324H164.69V11.831H164.756C164.808 11.633 164.881 11.4423 164.976 11.259C165.072 11.0757 165.193 10.918 165.339 10.786C165.486 10.6467 165.666 10.5367 165.878 10.456C166.091 10.368 166.34 10.324 166.626 10.324H167.308V11.468H166.186C165.746 11.468 165.387 11.6 165.108 11.864C164.83 12.1207 164.69 12.469 164.69 12.909V15.032H166.747V16H161.984V15.032ZM171.044 16.132C170.626 16.132 170.248 16.0623 169.911 15.923C169.581 15.7837 169.299 15.5857 169.064 15.329C168.837 15.0723 168.661 14.7607 168.536 14.394C168.411 14.0273 168.349 13.6167 168.349 13.162C168.349 12.7073 168.411 12.2967 168.536 11.93C168.661 11.5633 168.837 11.2517 169.064 10.995C169.299 10.7383 169.581 10.5403 169.911 10.401C170.248 10.2617 170.626 10.192 171.044 10.192C171.462 10.192 171.836 10.2617 172.166 10.401C172.503 10.5403 172.786 10.7383 173.013 10.995C173.248 11.2517 173.427 11.5633 173.552 11.93C173.677 12.2967 173.739 12.7073 173.739 13.162C173.739 13.6167 173.677 14.0273 173.552 14.394C173.427 14.7607 173.248 15.0723 173.013 15.329C172.786 15.5857 172.503 15.7837 172.166 15.923C171.836 16.0623 171.462 16.132 171.044 16.132ZM171.044 15.186C171.484 15.186 171.832 15.054 172.089 14.79C172.353 14.5187 172.485 14.119 172.485 13.591V12.733C172.485 12.205 172.353 11.809 172.089 11.545C171.832 11.2737 171.484 11.138 171.044 11.138C170.604 11.138 170.252 11.2737 169.988 11.545C169.731 11.809 169.603 12.205 169.603 12.733V13.591C169.603 14.119 169.731 14.5187 169.988 14.79C170.252 15.054 170.604 15.186 171.044 15.186Z" fill="white"/>
<circle cx="545" cy="235" r="5" fill="#F24E1E"/>
</g>
</g>
</g>
<g class="comp-dots">
<g class="comp-parallax">
<g class="comp-anim">
<circle cx="563" cy="253" r="3" fill="#0ACF83"/>
<circle cx="534" cy="264" r="4" fill="#1ABCFE"/>
<circle cx="572.5" cy="237.5" r="2.5" fill="#A259FF"/>
<circle cx="84.5" cy="714.5" r="4.5" fill="#A259FF"/>
<circle cx="99" cy="731" r="3" fill="#F24E1E"/>
<circle cx="77.5" cy="733.5" r="3.5" fill="#1ABCFE"/>
<circle cx="264" cy="64" r="4" fill="#F24E1E"/>
<circle cx="415" cy="1075" r="5" fill="#0ACF83"/>
<circle cx="603.5" cy="693.5" r="3.5" fill="#A259FF"/>
<circle cx="163" cy="1083" r="3" fill="#1ABCFE"/>
<circle cx="492.5" cy="532.5" r="2.5" fill="#F24E1E"/>
</g>
</g>
</g>
<g class="comp-crosses">
<g class="comp-parallax">
<g class="comp-cross-item">
<g class="comp-anim">
<rect x="220" y="70" width="15" height="4.5" rx="2.25" transform="rotate(45 220 70)" fill="#0ACF83"/>
</g>
</g>
<g class="comp-cross-item">
<g class="comp-anim">
<rect x="460" y="1080" width="15" height="4.5" rx="2.25" transform="rotate(-30 460 1080)" fill="#A259FF"/>
</g>
</g>
<g class="comp-cross-item">
<g class="comp-anim">
<rect x="110" y="380" width="12" height="4.5" rx="2.25" transform="rotate(60 110 380)" fill="#F24E1E"/>
</g>
</g>
<g class="comp-cross-item">
<g class="comp-anim">
<rect x="580" y="810" width="15" height="4.5" rx="2.25" transform="rotate(20 580 810)" fill="#1ABCFE"/>
</g>
</g>
<g class="comp-cross-item">
<g class="comp-anim">
<rect x="340" y="1090" width="12" height="4.5" rx="2.25" transform="rotate(-45 340 1090)" fill="#F24E1E"/>
</g>
</g>
<g class="comp-cross-item">
<g class="comp-anim">
<rect x="585" y="174.25" width="24" height="4.5" rx="2.25" fill="#0ACF83"/>
<rect x="594.75" y="164.5" width="4.5" height="24" rx="2.25" fill="#0ACF83"/>
</g>
</g>
<g class="comp-cross-item">
<g class="comp-anim">
<rect x="95" y="614.25" width="24" height="4.5" rx="2.25" fill="#F24E1E"/>
<rect x="104.75" y="604.5" width="4.5" height="24" rx="2.25" fill="#F24E1E"/>
</g>
</g>
</g>
</g>
<g class="comp-bridge">
<g class="comp-parallax">
<g class="comp-bridge-item">
<g class="comp-anim">
<circle opacity="0.78" cx="-130" cy="210" r="52" fill="#A259FF"/>
</g>
</g>
<g class="comp-bridge-item">
<g class="comp-anim">
<circle opacity="0.72" cx="-70" cy="430" r="36" fill="#1ABCFE"/>
</g>
</g>
<g class="comp-bridge-item">
<g class="comp-anim">
<rect x="-148" y="392" width="20" height="4.5" rx="2.25" fill="#0ACF83"/>
<rect x="-139.75" y="383.75" width="4.5" height="20" rx="2.25" fill="#0ACF83"/>
</g>
</g>
</g>
</g>
<g class="comp-portrait">
<g class="comp-parallax">
<g class="comp-anim">
<image x="125" y="82" width="451" height="975" href="assets/img/Michelle/portrait-composition.png" preserveAspectRatio="xMidYMid meet"/>
</g>
</g>
</g>
</svg>