<?xml version="1.0" encoding="utf-8"?>
<!-- Generator: Adobe Illustrator 27.0.0, SVG Export Plug-In . SVG Version: 6.00 Build 0)  -->
<svg version="1.1" id="圖層_1" xmlns="http://www.w3.org/2000/svg" xmlns:xlink="http://www.w3.org/1999/xlink" x="0px" y="0px"
	 viewBox="0 0 266.7 54.2" style="enable-background:new 0 0 266.7 54.2;" xml:space="preserve">
<style type="text/css">
	.st0{fill:#FFFFFF;}
	.st1{fill:#B3232D;}
	.st2{fill:#040000;}
</style>
<g>
	<g>
		<g>
			<g>
				<path class="st0" d="M21.7,3.8l-0.2,47.6L1.7,51.3c0.1-9.1,0.1-20.7,0.2-29.8L20,3.8L21.7,3.8z"/>
			</g>
			<g>
				<path class="st0" d="M49.5,32.2l0,2.9L33,51.5c-7.5,0-23.5-0.1-31.2-0.2l0.1-9.9l0,0l0-0.1l0.1-9.4c10,0.1,26,0.2,35.8,0.2l0,0
					c2.4,0,7.1,0,9.5,0.1l0,0l2.2,0L49.5,32.2z"/>
			</g>
			<g>
				<path class="st0" d="M49.6,23.5L1.9,23l0-1.4L19.8,3.8c0,0,23.8,0,29.8,0V23.5z"/>
			</g>
			<g>
				<path class="st0" d="M49.6,3.8l0,19.6l0,0.4l0,0l0,0c0,2.1-0.1,9.4-0.1,11.3L33.1,51.5c-0.6,0-2.4,0-3,0
					c0.1-11.6,0.2-36.2,0.4-47.6l0.1,0L49.6,3.8z"/>
			</g>
		</g>
		<polygon class="st1" points="30.4,3.4 30.4,23.6 21.6,23.5 21.7,3.3 		"/>
		<polygon class="st1" points="30.4,31.9 30.3,51.8 21.5,51.7 21.6,31.8 		"/>
		<polygon class="st2" points="49.6,32.1 49.5,35.1 33.2,51.9 30,51.9 30.3,31.9 		"/>
		
			<rect x="4.9" y="35.1" transform="matrix(0.7116 -0.7026 0.7026 0.7116 -26.0274 20.1332)" class="st2" width="13.3" height="13.3"/>
		
			<rect x="6.7" y="37.1" transform="matrix(6.331876e-03 -1 1 6.331876e-03 -30.3998 53.1835)" class="st0" width="9.6" height="9.6"/>
		<g>
			
				<rect x="33.3" y="6.8" transform="matrix(6.331876e-03 -1 1 6.331876e-03 26.264 53.7868)" class="st2" width="13.8" height="13.8"/>
			
				<rect x="35.3" y="8.6" transform="matrix(6.331876e-03 -1 1 6.331876e-03 26.4508 53.7886)" class="st0" width="10" height="10"/>
		</g>
		
			<rect x="-0.7" y="26.2" transform="matrix(6.331876e-03 -1 1 6.331876e-03 -24.0785 30.748)" class="st2" width="8.3" height="2.6"/>
		
			<rect x="2.6" y="26.3" transform="matrix(6.331876e-03 -1 1 6.331876e-03 -20.8021 34.0872)" class="st1" width="8.3" height="2.5"/>
		
			<rect x="6" y="26.3" transform="matrix(6.331876e-03 -1 1 6.331876e-03 -17.4615 37.4919)" class="st2" width="8.3" height="2.5"/>
		
			<rect x="9.4" y="26.3" transform="matrix(6.331876e-03 -1 1 6.331876e-03 -14.1209 40.8966)" class="st1" width="8.3" height="2.5"/>
		
			<rect x="12.7" y="26.3" transform="matrix(6.331876e-03 -1 1 6.331876e-03 -10.7802 44.3013)" class="st2" width="8.3" height="2.5"/>
		
			<rect x="16.2" y="26.3" transform="matrix(6.331876e-03 -1 1 6.331876e-03 -7.3753 47.7715)" class="st1" width="8.3" height="2.6"/>
		<polygon class="st1" points="32.8,32 35.3,23.5 30.4,23.5 		"/>
		<polygon class="st1" points="37.6,32 40,23.5 35.2,23.5 		"/>
		<polygon class="st1" points="42.4,32.1 44.8,23.6 40,23.5 		"/>
		<path class="st1" d="M49.7,23.6L49.5,24l0,0l-2.4,8.1l0,0.1l0,0l0,0l-2.3-8.3c0-0.1,0-0.3,0-0.4l0,0l4.7,0L49.7,23.6z"/>
		<path class="st2" d="M21.7,3.3v20.2c-0.9,0-19.9-0.1-20-0.1c0-0.3,0-1.7,0-2L20,3.3L21.7,3.3z"/>
	</g>
	<g>
		<path class="st2" d="M49.4,3.9v19.7v0.6v10.9l-16.1,16h-2.5h-0.8h-8.6h-0.1h-9.7H2.2V31.9v-0.1V24v-0.5v-0.1v-1.8L20,3.9h1.6H24
			h0.3h6.1H49.4 M50.9,2.4h-1.4H30.4h-6.1H24h-2.5H20h-0.5l-0.4,0.4L1.2,20.6L0.8,21v0.5v1.8l0,0l0,0l0,0v0.5v7.8v0.1V51v1.4h1.4
			h9.5h9.7h0.1h8.7H31h2.5H34l0.4-0.4l16-16l0.4-0.4v-0.5V24.2v-0.6V3.9L50.9,2.4L50.9,2.4z"/>
	</g>
</g>
<g>
	<g>
		<path d="M71.2,42.5c-1.3,1.8-3.7,3.8-5.7,4.9c-0.1-0.2-0.4-0.5-0.6-0.7c2-1,4.4-3,5.6-4.7L71.2,42.5z M76.4,52.5v0.8H65.3v-0.8
			H76.4z M75.1,49.4v0.8h-8.4v-0.8H75.1z M74.6,46.5v0.8h-7.4v-0.8H74.6z M71.2,42v0.8h-3.8V42H71.2z M71.3,42
			c1.2,1.8,3.5,3.6,5.6,4.5c-0.2,0.2-0.5,0.5-0.6,0.8c-2.1-1-4.3-2.9-5.7-4.7h-0.3V42H71.3z M71.3,46.8v6.1h-0.9v-6.1H71.3z"/>
		<path d="M93.2,42.3v11.4h-0.9V43.1h-9.1v10.6h-0.8V42.3H93.2z M92.8,52.2V53h-9.9v-0.8H92.8z M87.8,49.5l0,0.6
			c-1.4,0.3-2.8,0.6-3.9,0.8l-0.1-0.7C84.9,50.1,86.3,49.8,87.8,49.5z M91.7,44.9v0.7H84v-0.7H91.7z M87.4,46.4V49h-2.9v-2.5H87.4z
			 M85.1,48.4h1.6V47h-1.6V48.4z M91.1,46.3c-0.7,2.5-2,4.3-3.8,5.5c-0.1-0.1-0.4-0.4-0.5-0.6c1.8-1,3-2.8,3.6-5.1L91.1,46.3z
			 M88.6,43.4c0.2,3.8,0.8,7.3,2.1,7.5c0.2,0,0.3-0.5,0.4-1.4c0.1,0.1,0.4,0.3,0.6,0.4c-0.2,1.4-0.6,1.9-1.2,1.7
			c-1.8-0.4-2.4-4.1-2.6-8.2H88.6z M89.8,43.3c0.5,0.2,1.1,0.6,1.5,0.9l-0.4,0.5c-0.3-0.3-0.9-0.7-1.4-0.9L89.8,43.3z"/>
		<path d="M100.8,42.4v3.7c0,2.1-0.2,5.2-1.4,7.3c-0.2-0.1-0.5-0.4-0.7-0.5c1.2-2,1.3-4.8,1.3-6.8v-3.7H100.8z M110.5,42.4v0.8h-10
			v-0.8H110.5z M103.9,50.3c-0.7,0.9-1.6,2-2.3,2.7c-0.2-0.1-0.5-0.4-0.7-0.5c0.8-0.7,1.7-1.7,2.2-2.5L103.9,50.3z M109.4,44.7v4.7
			h-7.4v-4.7H109.4z M102.9,46.7h5.6v-1.3h-5.6V46.7z M102.9,48.6h5.6v-1.3h-5.6V48.6z M106.1,48.8v3.9c0,0.5-0.1,0.7-0.5,0.9
			c-0.4,0.1-1,0.1-2,0.1c0-0.2-0.2-0.5-0.3-0.8c0.8,0,1.5,0,1.7,0c0.2,0,0.3-0.1,0.3-0.2v-3.9H106.1z M106.2,43.6
			c-0.3,0.6-0.6,1.2-0.9,1.6l-0.8-0.2c0.2-0.5,0.5-1.1,0.7-1.6L106.2,43.6z M108,50.1c0.8,0.8,1.9,1.9,2.4,2.6l-0.7,0.5
			c-0.5-0.7-1.6-1.8-2.3-2.7L108,50.1z"/>
		<path d="M119.8,42c-0.9,2.2-2.2,4.4-3.6,5.9c-0.1-0.2-0.4-0.7-0.5-0.9c1.3-1.3,2.5-3.2,3.3-5.2L119.8,42z M118.4,44.2L118.4,44.2
			l0,9.4h-0.9V45L118.4,44.2z M127.6,52.3v0.8h-8.4v-0.8H127.6z M127.4,44.3v0.8h-7.9v-0.8H127.4z M127.1,48.1v0.8H120v-0.8H127.1z
			 M123.1,41.6c0.5,0.7,1,1.6,1.2,2.1l-0.8,0.3c-0.2-0.6-0.7-1.5-1.1-2.2L123.1,41.6z M123.9,44.5v8.3H123v-8.3H123.9z"/>
		<path d="M133,52.9c0.2-0.1,0.6-0.4,0.6-0.9v-9.6h0.9v10.4c0,0-1,0.6-1,0.9C133.4,53.4,133.2,53.1,133,52.9z M133.4,52.9l0.5-0.4
			l4.2-1.2c0,0.2,0.1,0.6,0.1,0.8c-3.9,1.2-4.4,1.3-4.7,1.5L133.4,52.9z M143.8,48.1V49H134v-0.8H143.8z M142.8,42.4v3.7H134v-0.8
			h7.9v-2.1H134v-0.8H142.8z M138.9,45.9c0.2,3.7,2,6.7,3.7,6.7c0.4,0,0.6-0.5,0.6-1.9c0.2,0.2,0.5,0.3,0.8,0.4
			c-0.1,1.9-0.5,2.4-1.4,2.4c-2.4,0-4.4-3.4-4.6-7.5H138.9z"/>
		<path d="M151.9,44.3c0,4.1-0.2,7.4-1.8,9.3c-0.1-0.2-0.4-0.5-0.7-0.6c1.5-1.8,1.6-4.9,1.6-8.7H151.9z M154.6,43.8v0.8h-5v-0.8
			H154.6z M151.9,41.7c0.4,0.6,1,1.3,1.2,1.8l-0.8,0.3c-0.2-0.5-0.8-1.3-1.2-1.8L151.9,41.7z M153.8,46.6v0.8h-2.3v-0.8H153.8z
			 M154.2,46.6c0,0,0,0.3,0,0.4c-0.1,4.2-0.2,5.6-0.5,6c-0.2,0.3-0.4,0.4-0.7,0.4c-0.3,0-0.8,0-1.3,0c0-0.2-0.1-0.6-0.2-0.8
			c0.5,0,0.9,0,1.1,0c0.2,0,0.3,0,0.4-0.2c0.2-0.3,0.3-1.7,0.4-5.7v-0.2H154.2z M157.1,41.9c-0.5,1.6-1.3,3.2-2.1,4.2
			c-0.1-0.1-0.5-0.4-0.7-0.5c0.9-0.9,1.6-2.4,2-3.9L157.1,41.9z M158.5,46.4v1.8c0,1.6-0.4,3.8-3.5,5.4c-0.1-0.2-0.4-0.5-0.6-0.6
			c3-1.4,3.2-3.4,3.2-4.8v-1.8H158.5z M161.3,48.8v0.8h-6.5v-0.8H161.3z M157.4,44.8c-0.4,1.3-1.1,2.5-1.9,3.3
			c-0.1-0.1-0.5-0.4-0.7-0.5c0.8-0.8,1.4-1.9,1.8-3.1L157.4,44.8z M161.4,43.4v0.8h-5.5v-0.8H161.4z M160.8,46v0.8h-4.5V46H160.8z
			 M159.1,50c0.9,1,1.9,2.3,2.4,3.1l-0.7,0.5c-0.5-0.8-1.5-2.2-2.3-3.2L159.1,50z"/>
		<path d="M176.3,44.7c-1.7,4.7-4.6,7.4-9.4,8.9c-0.1-0.2-0.4-0.6-0.6-0.8c4.6-1.4,7.5-3.9,9-8.4L176.3,44.7z M178.3,44v0.8h-11.7
			V44H178.3z M178.5,52.7c-0.2,0.2-0.5,0.6-0.6,0.8c-4.6-1.3-7.7-4.4-9.3-8.8l0.8-0.3C170.9,48.5,173.9,51.6,178.5,52.7z
			 M172.3,41.6c0.4,0.6,0.9,1.5,1,2l-0.9,0.3c-0.2-0.5-0.6-1.4-1-2L172.3,41.6z"/>
		<path d="M187.8,42c-1,2.2-2.5,4.4-4,5.8c-0.1-0.2-0.3-0.7-0.5-0.9c1.5-1.2,2.9-3.2,3.7-5.2L187.8,42z M186.4,44L186.4,44l0,9.6
			h-0.8v-8.8L186.4,44z M190.1,41.9v9.6c0,0.7,0.2,0.9,0.8,0.9c0.3,0,2,0,2.5,0c0.8,0,0.9-0.6,1-2.8c0.2,0.2,0.6,0.3,0.8,0.4
			c-0.1,2.4-0.4,3.2-1.7,3.2c-0.3,0-2.3,0-2.5,0c-1.3,0-1.6-0.4-1.6-1.7v-9.6H190.1z M194.8,45.5v0.8h-5v-0.8H194.8z"/>
		<path d="M203.6,41.9c-0.7,1.3-1.9,2.5-3,3.3c-0.1-0.2-0.3-0.6-0.4-0.8c1-0.7,2.1-1.7,2.7-2.8L203.6,41.9z M200.6,52.9
			c0.2-0.1,0.5-0.3,0.5-0.7v-6.5h0.8v7.3c0,0-0.9,0.4-0.9,0.7C200.9,53.4,200.7,53,200.6,52.9z M200.9,52.9l0.4-0.4l3-1.2
			c0,0.2,0.1,0.5,0.1,0.7c-2.9,1.2-3.2,1.4-3.5,1.6L200.9,52.9z M204.4,47.4v0.7h-2.9v-0.7H204.4z M204.8,45.6V50h-3.2v-0.7h2.4v-3
			h-2.4v-0.7H204.8z M204.2,44.1v0.6H202v-0.6H204.2z M203.1,42.1c0.7,0.4,1.7,1.1,2.2,1.5l-0.4,0.7c-0.5-0.4-1.4-1.1-2.2-1.5
			L203.1,42.1z M203.9,50.3c0.5,0.8,1.1,2,1.4,2.6l-0.7,0.3c-0.3-0.7-0.9-1.8-1.3-2.7L203.9,50.3z M212,43.2v2.1h-0.7v-1.3h-5.2v1.3
			h-0.7v-2.1H212z M207,45.2v8.4h-0.8v-8.4H207z M211.5,49.5v4h-0.8v-3.2h-4.1v-0.7H211.5z M210.9,45.2v3.2h-4.2v-0.7h3.5v-1.8h-3.5
			v-0.7H210.9z M211,52.2V53h-4.3v-0.8H211z M208.7,41.6c0.2,0.4,0.5,1,0.7,1.4l-0.8,0.4c-0.1-0.4-0.4-1-0.6-1.4L208.7,41.6z"/>
		<path d="M229,52.3v0.9h-11.6v-0.9H229z M228.4,44.3v0.9H218v-0.9H228.4z M227.8,48.1V49h-9.2v-0.8H227.8z M222.3,41.7
			c0.8,0.6,1.9,1.5,2.4,2.1l-0.8,0.5c-0.5-0.6-1.5-1.5-2.3-2.2L222.3,41.7z M223.7,45v7.8h-0.9V45H223.7z"/>
		<path d="M235.9,48.7c-0.1,1.9-0.4,3.8-1.3,4.9c-0.1-0.2-0.4-0.4-0.6-0.6c0.8-1,1-2.7,1.1-4.4H235.9z M240.1,47.3V48h-5.9v-0.7
			H240.1z M239.3,42.2v4H235v-4H239.3z M241.8,52.6c0.5,0,3.7,0,4.4,0c-0.1,0.2-0.3,0.5-0.3,0.8h-4.1c-3.3,0-5.5-0.4-6.6-3.1
			l0.5-0.2C236.7,52.3,238.8,52.6,241.8,52.6z M235.8,43.9h2.7v-1h-2.7V43.9z M235.8,45.6h2.7v-1.1h-2.7V45.6z M237.6,47.5v4.9
			l-0.8-0.5v-4.4H237.6z M239.9,49.4v0.7h-2.6v-0.7H239.9z M242.4,50.3c-0.6,0.7-1.5,1.5-2.3,1.9c-0.1-0.1-0.4-0.4-0.6-0.5
			c0.8-0.4,1.7-1,2.2-1.6L242.4,50.3z M245.9,42.3V43H240v-0.7H245.9z M245.4,44.1v5.7h-4.9v-5.7H245.4z M241.3,45.8h3.2v-1h-3.2
			V45.8z M241.3,47.5h3.2v-1h-3.2V47.5z M241.3,49.1h3.2v-1.1h-3.2V49.1z M243.4,42.7c-0.2,0.7-0.5,1.4-0.7,1.9l-0.7-0.2
			c0.2-0.5,0.4-1.3,0.5-1.9L243.4,42.7z M244,50c0.8,0.5,1.6,1.2,2.1,1.7l-0.6,0.4c-0.4-0.5-1.3-1.3-2-1.8L244,50z"/>
		<path d="M252.4,50.1c-0.1,1.1-0.4,2.3-0.7,3.2c-0.2-0.1-0.5-0.2-0.7-0.3c0.3-0.8,0.5-2,0.6-3L252.4,50.1z M251.1,45.7
			c0.2-0.1,0.4-0.3,0.7-0.7c0.3-0.4,1.2-1.9,1.7-3.3l0.7,0.3c-0.7,1.5-1.5,3-2.4,4v0c0,0-0.5,0.3-0.5,0.4
			C251.3,46.3,251.2,45.9,251.1,45.7z M251.2,48.7c0.2-0.1,0.5-0.4,0.9-0.9c0.4-0.5,1.7-2.4,2.6-4.1l0.7,0.4c-1,1.8-2.2,3.6-3.4,4.9
			v0c0,0-0.5,0.2-0.5,0.4C251.4,49.3,251.3,48.9,251.2,48.7z M251.3,45.9l0.4-0.3l2.2-0.2c0,0.2-0.1,0.5-0.1,0.7
			c-2,0.2-2.4,0.3-2.6,0.4L251.3,45.9z M251.4,48.8l0.4-0.3l3.5-0.5c0,0.2,0,0.5,0,0.7c-3.2,0.5-3.6,0.6-3.9,0.7L251.4,48.8z
			 M253.7,50c0.2,0.9,0.3,2,0.4,2.8l-0.7,0.2c0-0.8-0.2-1.9-0.3-2.8L253.7,50z M255,46.6c0.4,0.8,0.7,1.9,0.9,2.5l-0.7,0.3
			c-0.1-0.6-0.5-1.7-0.9-2.6L255,46.6z M255.1,49.7c0.3,0.8,0.6,1.8,0.8,2.5l-0.6,0.2c-0.1-0.7-0.5-1.7-0.7-2.6L255.1,49.7z
			 M262.2,42.3v0.8h-5.3v10.5h-0.8V42.3H262.2z M261.6,45.7v0.7h-4.4v-0.7H261.6z M261.4,47.8v0.7h-4.1v-0.7H261.4z M258.3,43.5
			c0.3,0.6,0.6,1.4,0.7,1.9l-0.6,0.2c-0.1-0.5-0.4-1.3-0.7-1.9L258.3,43.5z M258.6,48.2v1.7c0,0.3,0.1,0.4,0.3,0.4
			c0.2,0,1.5,0,1.7,0c0.2,0,0.6,0,0.8-0.1c0,0.2,0,0.5,0.1,0.7c-0.2,0.1-0.5,0.1-0.8,0.1c-0.3,0-1.6,0-1.8,0c-0.8,0-1-0.3-1-1.1
			v-1.7H258.6z M259.3,46.4c0.2,0.4,0.5,0.9,0.6,1.2l-0.6,0.3c-0.1-0.3-0.4-0.9-0.6-1.3L259.3,46.4z M261.1,43.7
			c-0.3,0.8-0.6,1.7-0.8,2.3l-0.5-0.2c0.2-0.6,0.6-1.7,0.7-2.3L261.1,43.7z M262.7,42.3v10.3c0,0.5-0.1,0.7-0.4,0.9
			c-0.3,0.1-0.8,0.1-1.6,0.1c0-0.2-0.1-0.6-0.3-0.8c0.6,0,1.1,0,1.3,0c0.2,0,0.2-0.1,0.2-0.2V42.3H262.7z"/>
	</g>
</g>
<g>
	<g>
		<path d="M71.1,2.6v10.7c0,6.2-0.5,15.1-4,21.2c-0.5-0.5-1.7-1.2-2.4-1.5c3.3-5.8,3.6-13.9,3.6-19.8V2.6H71.1z M99,2.6v2.6H69.9
			V2.6H99z M80,25.6c-1.9,2.8-4.6,6-6.7,8c-0.6-0.4-1.7-1.2-2.4-1.6c2.3-1.9,4.8-4.8,6.4-7.3L80,25.6z M96,9.1v13.7H74.5V9.1H96z
			 M77.3,14.9h15.8v-3.5H77.3V14.9z M77.3,20.6h15.8V17H77.3V20.6z M86.5,21.1v11.1c0,1.5-0.3,2.3-1.4,2.7c-1.1,0.4-3,0.4-5.9,0.4
			c-0.1-0.7-0.5-1.8-0.9-2.5c2.2,0.1,4.2,0.1,4.7,0c0.6,0,0.8-0.2,0.8-0.6V21.1H86.5z M86.7,6.1c-0.9,1.7-1.9,3.4-2.7,4.6l-2.6-0.5
			c0.7-1.3,1.6-3.2,2-4.6L86.7,6.1z M92,24.8c2.3,2.3,5.3,5.6,6.9,7.6l-2.4,1.5c-1.4-2-4.5-5.4-6.7-7.8L92,24.8z"/>
		<path d="M126,2.3v11.1c0,6.4-0.6,15.7-4.5,21.9c-0.5-0.4-1.8-1.2-2.5-1.5c3.8-6,4.1-14.4,4.1-20.4V2.3H126z M151.4,2.3v8.8h-26.6
			V8.6h23.8V4.8h-23.8V2.3H151.4z M153.7,21.4v2.5h-27.6v-2.5H153.7z M152.2,15v2.4h-25V15H152.2z M128.4,32.9
			c0.7-0.4,1.9-1.2,1.9-2.9v-7.5l2.7,0.1v9.6c0,0-3.4,2-3.4,3.1C129.4,34.6,128.9,33.5,128.4,32.9z M129.5,33.1l1.2-1l10.4-2.3
			c-0.1,0.7-0.2,1.8-0.1,2.4c-9.5,2.4-10.7,2.7-11.4,3.1L129.5,33.1z M135.5,11.5v11.3h-2.6V11.5H135.5z M154.1,33
			c-0.6,0.6-1.4,1.6-1.7,2.3c-7.2-1.8-12.1-6-14.6-12.4l2.4-0.6C142.4,27.8,147.3,31.6,154.1,33z M151.7,25.6
			c-2.1,1.6-4.8,3.2-7,4.3l-1.8-1.4c2.1-1.1,5-3,6.6-4.4L151.7,25.6z M145.8,11.5v11.2h-2.7V11.5H145.8z"/>
		<path d="M183.2,3.4c-0.8,11.1-2.6,19.6-8.1,25.1c-0.3-0.6-1.3-1.7-1.9-2.2c5-4.8,6.6-12.9,7.2-23L183.2,3.4z M191.9,8.6v2.5h-18
			V8.6H191.9z M189.6,2.4v14.9h-14v-2.5H187v-10h-11.2V2.4H189.6z M180.5,21.2v14.1h-2.6V21.2H180.5z M190.2,21.2v12h-11.2v-2.5h8.5
			v-7h-8.5v-2.5H190.2z M208.7,23.7v2.7h-17.3v-2.7H208.7z M207.9,7.9v2.6h-15.6V7.9H207.9z M195,0.8c1.3,1.9,2.4,4.4,2.8,6.1
			l-2.5,0.9c-0.3-1.7-1.4-4.3-2.6-6.3L195,0.8z M207.2,15.6v2.6h-14.4v-2.6H207.2z M201.3,9.1v26.2h-2.7V9.1H201.3z M207.2,1.1
			c-1,2.3-2.2,4.8-3.2,6.6l-2.3-0.7c0.9-1.8,2.2-4.6,2.8-6.6L207.2,1.1z"/>
		<path d="M239.7,10.5v2.6h-11.5v-2.6H239.7z M235.7,0.5v34.7h-2.8V0.5H235.7z M263,24.2v2.4h-24.2v-2.4H263z M262.5,4.6v2.3H240
			V4.6H262.5z M259.6,8.8v2h-15.5V22h-2.5V8.8H259.6z M244.3,26.3c1.9,1.3,4.5,3.2,5.8,4.4l-1.8,1.9c-1.3-1.2-3.8-3.2-5.7-4.6
			L244.3,26.3z M259.5,12.9v1.8h-16.3v-1.8H259.5z M259.5,16.7v1.8h-16.3v-1.8H259.5z M257.4,22.2v10.1c0,1.4-0.3,2.2-1.4,2.6
			c-1.1,0.4-2.9,0.4-5.6,0.4c-0.1-0.7-0.5-1.7-0.8-2.4c2.1,0.1,4,0.1,4.6,0c0.6,0,0.7-0.2,0.7-0.6v-10H257.4z M252.6,0.5v20.9h-2.7
			V0.5H252.6z M255.6,0.5c1.8,0.8,4.4,2.1,5.7,2.8L260,5.2c-1.3-0.8-3.8-2.1-5.7-3L255.6,0.5z M261,8.8v11c0,1.2-0.2,1.7-1.1,2
			c-0.8,0.3-2.1,0.3-4,0.3c-0.1-0.6-0.5-1.3-0.8-1.9c1.4,0,2.5,0,2.9,0c0.4,0,0.5-0.1,0.5-0.5V8.8H261z"/>
	</g>
</g>
</svg>
