<?xml version="1.0" encoding="UTF-8"?>
<svg id="Layer_1" xmlns="http://www.w3.org/2000/svg" viewBox="0 0 319.65 248.5">
  <defs>
    <style>
      .cls-1 {
        fill: #211815;
      }
    </style>
  </defs>
  <g>
    <path class="cls-1" d="M166.37,32.58c-2.95,18.77-15.43,35.26-32.27,43.9-4.68,2.4-9.67,4.1-14.82,5.11-1.33.26-2.08,1.84-1.75,3.08.38,1.38,1.75,2.01,3.08,1.75,19.77-3.89,37.11-18.08,45.56-36.29,2.4-5.16,4.13-10.59,5.02-16.21.21-1.33-.34-2.69-1.75-3.08-1.19-.33-2.86.4-3.08,1.75h0Z"/>
    <path class="cls-1" d="M148.4,1.58c-16.2,1.95-31.88,8.57-43.9,19.75-5.86,5.45-10.73,12.11-13.26,19.76-2.81,8.49-2.59,17.63-2.97,26.45-.81,18.33-2.88,36.6-6.21,54.65-1.67,9.05-3.66,18.05-5.95,26.96-1.16,4.5-2.39,8.97-3.7,13.43s-2.59,8.61-3.23,13.07c-1.15,8.06.51,15.75,5.03,22.53,4.13,6.19,9.77,11.17,15.6,15.7,1.53,1.19,3.07,2.35,4.62,3.5,1.08.81,2.79.18,3.42-.9.74-1.27.19-2.61-.9-3.42-10.56-7.84-23.33-17.84-23.21-32.33.04-4.35,1.1-8.58,2.28-12.74s2.51-8.56,3.68-12.87c2.32-8.58,4.35-17.23,6.09-25.95,3.49-17.49,5.84-35.21,7.01-53,.29-4.45.5-8.9.65-13.36.14-4.21.25-8.44.84-12.62,1.08-7.72,4.17-14.7,9.24-20.63,9.94-11.64,24.43-19.08,39.31-22.08,1.84-.37,3.7-.68,5.57-.9,1.34-.16,2.5-1.03,2.5-2.5,0-1.23-1.15-2.66-2.5-2.5h0Z"/>
    <path class="cls-1" d="M161.46,5.22c8.05-1.03,15.54,2.11,22.07,6.61s12.37,10.44,17.57,16.51c10.17,11.88,18.13,26.04,21.08,41.51,1.63,8.55,1.05,17.07.46,25.69-.33,4.73-.58,9.48-.18,14.22.37,4.46,1.28,8.86,2.57,13.15,5.08,16.85,15.93,32.15,17.36,50.04.62,7.78-.73,15.55-5.5,21.88-3.86,5.12-9.9,9.32-16.49,9.51-1.6.05-3.14-.14-4.69-.55-3.11-.82-4.44,4-1.33,4.82,15.89,4.19,30.28-10.4,32.6-25.2,2.98-19.08-7.25-36.17-14.06-53.19-1.69-4.21-3.18-8.51-4.22-12.94s-1.5-9.28-1.43-14.02c.15-9.53,1.7-18.99.66-28.52-1.83-16.79-9.39-32.27-19.67-45.5-5.14-6.62-10.96-12.88-17.47-18.17S176.3,1.05,167.52.14c-2.02-.21-4.05-.17-6.06.09-1.34.17-2.5,1.03-2.5,2.5,0,1.22,1.15,2.67,2.5,2.5h0Z"/>
    <path class="cls-1" d="M170.32,43.36c10.85,11.6,22.21,23.64,28.08,38.68,2.85,7.31,4.4,15.12,3.72,22.98-.55,6.38-2.84,12.54-6.26,17.93-6.94,10.95-18.76,18.57-31.74,19.74-13.47,1.21-27.33-3.62-36.87-13.26s-14.51-23.56-13.8-37.13c.09-1.64.25-3.27.51-4.89.22-1.33-.34-2.69-1.75-3.08-1.19-.33-2.86.41-3.08,1.75-2.42,14.98,1.43,30.56,10.78,42.55s23.75,18.82,38.68,19.23,28.53-5.99,37.78-17.19c4.5-5.45,7.9-11.81,9.61-18.69,1.98-7.99,1.56-16.42-.51-24.35-4.4-16.89-15.72-30.62-27.31-43.18-1.43-1.55-2.87-3.09-4.31-4.63-2.2-2.36-5.73,1.19-3.54,3.54h0Z"/>
    <path class="cls-1" d="M131.8,85.81c5.21-1.02,10.68-.79,15.82.62,3.11.85,4.44-3.98,1.33-4.82-6.04-1.65-12.35-1.82-18.48-.62-1.33.26-2.08,1.84-1.75,3.08.38,1.38,1.75,2.01,3.08,1.75h0Z"/>
    <path class="cls-1" d="M178.33,81.4c.1-.55.23-1.08.42-1.6.05-.13.11-.26.15-.39-.21.67-.12.28-.03.09.12-.25.25-.49.39-.73s.29-.47.45-.7c.08-.11.16-.22.24-.33-.43.61-.15.2-.04.07.36-.42.75-.82,1.17-1.18.1-.09.24-.17.32-.27l-.29.22c.07-.06.15-.11.22-.16.22-.16.46-.32.69-.46s.48-.28.73-.4c.12-.06.25-.12.37-.18.41-.2-.55.2-.09.04.5-.18,1-.35,1.52-.46.13-.03.27-.06.41-.08.56-.09-.39.04-.12.01.3-.02.6-.05.9-.05,1.31-.02,2.56-1.14,2.5-2.5s-1.1-2.52-2.5-2.5c-5.74.09-11.24,4.5-12.24,10.23-.12.68-.11,1.31.25,1.93.3.52.9,1.01,1.49,1.15,1.22.28,2.84-.37,3.08-1.75h0Z"/>
    <path class="cls-1" d="M178.42,97.59c1.51-1.87,3.16-3.36,5.12-4.55.94-.57,2.07-1.14,2.91-1.45.47-.18.94-.33,1.43-.46.23-.06.47-.11.71-.16.12-.02.24-.04.36-.06-.27.04-.13.01.06,0,.48-.03.95-.02,1.44-.02s-.19-.08.26.03c.26.06.51.12.77.2.07.02.49.21.22.07-.26-.12.07.05.1.06.13.09.53.37.21.1.17.14.33.3.47.47-.33-.4.2.39.09.17s.04.11.05.14c.03.11.06.23.09.34.07.28,0-.04,0-.09,0,.12.01.23,0,.35s0,.23-.01.35c0-.05.07-.37,0-.08-.06.27-.13.54-.23.81.12-.35-.09.18-.15.29-.12.22-.25.43-.39.63.2-.28-.16.18-.24.26-.09.09-.17.18-.26.26-.03.03-.38.33-.22.2-.75.59-2.05,1-3.27,1.22-1.14.21-2.7.23-4.05.25s-2.5,1.13-2.5,2.5,1.14,2.52,2.5,2.5c3.27-.05,6.88-.19,9.7-2.06,2.49-1.64,4.38-4.63,4.08-7.7s-2.74-5.56-5.85-6.09-5.98.29-8.74,1.58c-3.15,1.47-6,3.72-8.18,6.42-.85,1.05-1.03,2.51,0,3.54.88.88,2.68,1.06,3.54,0h0Z"/>
    <path class="cls-1" d="M180.6,95.05l2.02,3.03c.16.29.37.53.64.7.24.22.52.37.85.45.33.1.66.12,1,.04.33-.02.64-.11.93-.3.53-.34,1-.86,1.15-1.49s.12-1.37-.25-1.93l-2.02-3.03c-.16-.29-.37-.53-.64-.7-.24-.22-.52-.37-.85-.45-.33-.1-.66-.12-1-.04-.33.02-.64.11-.93.3-.53.34-1,.86-1.15,1.49s-.12,1.37.25,1.93h0Z"/>
    <path class="cls-1" d="M177.92,97.61l3.03,3.03c.45.45,1.13.73,1.77.73.34.01.67-.06.96-.22.31-.1.58-.27.8-.52.44-.48.76-1.1.73-1.77s-.25-1.29-.73-1.77l-3.03-3.03c-.45-.45-1.13-.73-1.77-.73-.34-.01-.67.06-.96.22-.31.1-.58.27-.8.52-.44.48-.76,1.1-.73,1.77s.25,1.29.73,1.77h0Z"/>
    <path class="cls-1" d="M130.81,104.7c2.13-2,4.71-3.52,7.51-4.35.66-.2,1.33-.34,2.01-.49.3-.05.32-.05.06-.02.16-.02.33-.04.49-.05.33-.03.66-.04.99-.04s.66.02.99.05c-.49-.05.26.06.3.06.31.07.61.16.92.26.28.1.29.11.04.02.14.07.27.14.4.22.13.08.25.16.38.25-.21-.16-.21-.15,0,.04.19.21.2.22.05,0,.09.12.17.25.25.38.27.4-.06-.22.13.3.06.3.08.32.04.06.01.16.02.33.01.49,0,.26-.13.68-.38,1.11-.27.47-.4.61-.93,1.1-.23.19-.27.23-.11.1-.14.1-.29.19-.44.28-.35.2-.39.23-.7.33-.62.21-1.27.35-1.86.41-1.74.16-3.51-.07-5.24-.27-1.34-.16-2.5,1.26-2.5,2.5,0,1.49,1.15,2.34,2.5,2.5,3.37.4,6.86.62,9.99-.96,2.64-1.34,4.76-4.32,4.67-7.35-.09-3.21-2.43-5.64-5.43-6.49-2.75-.78-5.72-.36-8.4.5-3.47,1.12-6.62,3-9.28,5.5-.98.93-.93,2.6,0,3.54.98.98,2.55.93,3.54,0h0Z"/>
    <path class="cls-1" d="M133.21,103.01l1.59,3.28c.16.29.37.53.64.7.24.22.52.37.85.45.33.1.66.12,1,.04.33-.02.64-.11.93-.3.53-.34,1-.86,1.15-1.49l.09-.66c0-.45-.12-.87-.34-1.26l-1.59-3.28c-.16-.29-.37-.53-.64-.7-.24-.22-.52-.37-.85-.45-.33-.1-.66-.12-1-.04-.33.02-.64.11-.93.3-.53.34-1,.86-1.15,1.49l-.09.66c0,.45.12.87.34,1.26h0Z"/>
    <path class="cls-1" d="M129.89,104.62l2.59,3.41c.16.29.37.53.64.7.24.22.52.37.85.45.33.1.66.12,1,.04.33-.02.64-.11.93-.3.53-.34,1-.86,1.15-1.49l.09-.66c0-.45-.12-.87-.34-1.26l-2.59-3.41c-.16-.29-.37-.53-.64-.7-.24-.22-.52-.37-.85-.45-.33-.1-.66-.12-1-.04-.33.02-.64.11-.93.3-.53.34-1,.86-1.15,1.49l-.09.66c0,.45.12.87.34,1.26h0Z"/>
    <path class="cls-1" d="M157.95,127.2c7.28,2.91,16.37.58,21.4-5.42.87-1.03,1.01-2.52,0-3.54-.89-.89-2.67-1.04-3.54,0-.52.62-1.08,1.21-1.69,1.75-.58.51-.91.75-1.67,1.22-1.5.93-2.57,1.37-4.26,1.79-.4.1-.79.19-1.19.26-.18.03-.36.06-.54.09.33-.05-.17.01-.28.02-.81.07-1.62.09-2.44.05-1.31-.07-2.93-.43-4.47-1.04-1.25-.5-2.75.55-3.08,1.75-.39,1.42.49,2.57,1.75,3.08h0Z"/>
    <path class="cls-1" d="M159.22,106.58c.14.77.46,1.54.87,2.22s.93,1.34,1.54,1.85c.38.31.77.62,1.19.88s.89.44,1.34.63c.75.3,1.59.43,2.39.45.63.01,1.32-.29,1.77-.73s.76-1.15.73-1.77c-.06-1.38-1.1-2.47-2.5-2.5-.19,0-.37-.02-.56-.04l.66.09c-.44-.06-.86-.18-1.27-.35l.6.25c-.41-.18-.79-.4-1.14-.67l.51.39c-.37-.29-.7-.61-.99-.98l.39.51c-.27-.35-.49-.73-.67-1.14l.25.6c-.13-.32-.23-.66-.3-1-.11-.59-.65-1.2-1.15-1.49-.54-.31-1.33-.45-1.93-.25s-1.19.57-1.49,1.15c-.33.62-.38,1.23-.25,1.93h0Z"/>
    <path class="cls-1" d="M132.93,140.88c.45,3.17-1.86,6.37-3.21,9.04-1.64,3.25-2.66,6.64-2.97,10.28-.62,7.16,1.83,13.85,6.18,19.44,3.32,4.27,8.68,9.31,6.32,15.25-2.56,6.45-10.2,8.5-16.22,10.07-7.42,1.94-15.67,4.41-19.6,11.64-1.54,2.83,2.78,5.35,4.32,2.52,3.34-6.14,10.82-7.82,17.05-9.46,6.98-1.83,14.36-4.41,18.17-11.05,1.74-3.03,2.31-6.55,1.49-9.96s-2.84-6.12-4.92-8.75-4.14-4.91-5.6-7.79-2.23-6.25-2.27-9.53c-.04-3.8.93-7.35,2.67-10.71,2.05-3.97,4.08-7.73,3.43-12.33-.19-1.34-1.89-2.07-3.08-1.75-1.44.4-1.94,1.73-1.75,3.08h0Z"/>
    <path class="cls-1" d="M192.95,135.19c3.69,3.48,7.84,7.32,8.95,12.49s-1.6,10.17-3.62,14.65c-2.22,4.93-4.04,9.85-3.89,15.34.13,4.81,1.49,9.57,3.84,13.77,2.67,4.77,6.72,8.83,11.61,11.31,2.86,1.45,5.4-2.86,2.52-4.32-7.97-4.04-13.04-12.7-12.98-21.62.07-10.76,9.72-19.38,7.34-30.46-1.29-6.02-5.93-10.62-10.24-14.69-2.34-2.21-5.88,1.32-3.54,3.54h0Z"/>
    <path class="cls-1" d="M145.44,148.33c1.57,8.5,4.24,18.37,13.35,21.58,8.48,2.98,17.08-3.43,20.59-10.83,2.27-4.79,3.16-9.97,3.91-15.18.19-1.33-.33-2.69-1.75-3.08-1.17-.32-2.88.4-3.08,1.75-1.03,7.16-2.2,15.62-8.31,20.38-2.38,1.85-5.56,3.13-8.61,2.53s-5.61-2.89-7.26-5.53c-2.42-3.88-3.21-8.53-4.03-12.96-.25-1.33-1.85-2.08-3.08-1.75-1.4.38-1.99,1.74-1.75,3.08h0Z"/>
    <path class="cls-1" d="M85.32,121.36c-6.29-15.48-12.91-30.84-19.86-46.04-1.97-4.31-3.97-8.6-5.99-12.89-.76-1.61-3.57-1.66-4.32,0-4.72,10.44-13.19,18.71-23.74,23.2-1.63.69-1.39,2.83-.51,3.93,12.59,15.55,21.66,33.6,29.82,51.76,2.34,5.21,4.61,10.45,6.88,15.68.54,1.24,2.36,1.52,3.42.9,1.28-.75,1.44-2.18.9-3.42-8.05-18.59-16.16-37.31-27.23-54.34-3.17-4.88-6.59-9.59-10.26-14.12l-.51,3.93c11.2-4.78,20.51-13.9,25.53-24.99h-4.32c6.99,14.8,13.68,29.74,20.02,44.82,1.8,4.29,3.58,8.59,5.33,12.91.51,1.25,1.66,2.13,3.08,1.75,1.18-.33,2.26-1.82,1.75-3.08h0Z"/>
    <path class="cls-1" d="M228.85,121.77c11.14-13.08,21.5-26.81,31.01-41.12l-3.93.51c6.76,8.43,12.66,17.54,17.67,27.11l-.25-1.93c-4.83,13.27-12.29,25.59-21.8,36.03-2.74,3.01-5.65,5.86-8.71,8.55-1.01.89-.91,2.62,0,3.54,1.01,1.01,2.52.9,3.54,0,8.64-7.62,16.11-16.58,22.08-26.44,3.05-5.03,5.67-10.29,7.91-15.72.53-1.27,1.03-2.56,1.51-3.85.31-.84.48-1.53.16-2.41-.3-.81-.79-1.57-1.2-2.33-1.53-2.83-3.14-5.61-4.82-8.35-3.81-6.18-8.02-12.09-12.56-17.75-1.07-1.34-3.13-.7-3.93.51-9.27,13.96-19.36,27.35-30.23,40.11-.87,1.03-1.01,2.53,0,3.54.9.9,2.66,1.03,3.54,0h0Z"/>
    <path class="cls-1" d="M55.9,63.02c-5.72-6.78-11.81-13.29-18.34-19.31-2.92-2.69-6.35-5.44-10.4-6.05-2.02-.3-4.29-.26-6.07.89-1.93,1.25-2.71,3.54-2.01,5.72.79,2.45,2.9,4.5,4.45,6.5,1.64,2.12,3.29,4.24,4.93,6.36l1.77-4.27c-5.85-.42-11.7-.15-17.5.72-4.32.65-11.27,1.95-10.19,7.88.15.84.96,1.52,1.75,1.75,5.31,1.55,10.66,2.96,16.04,4.22v-4.82c-3.9,1.23-7.8,2.47-11.7,3.7-3.03.96-6.47,2.18-8.03,5.21-1.84,3.56.8,6.76,4.38,7.36,3.99.67,8.03,1.13,12.04,1.69l-.6-4.57c-3.37,2.18-7.68,2.02-10.95,4.5-3,2.27-4.37,6.35-2.23,9.72,2.65,4.16,7.88,2.07,11.74,1.26,4.89-1.02,9.79-2.04,14.68-3.07,1.32-.28,2.09-1.83,1.75-3.08-.38-1.37-1.75-2.02-3.08-1.75-3.92.82-7.83,1.63-11.75,2.45-1.96.41-3.92.82-5.87,1.23-.84.17-1.68.34-2.51.52.79-.17-.85-.01-.35.08-.24-.04-.2-.07-.35-.25-.32-.37-.45-1.19-.17-1.88.32-.81,1.54-1.62,2.49-2.06,2.97-1.39,6.31-1.55,9.12-3.36,1.6-1.03,1.69-4.25-.6-4.57-3.24-.45-6.49-.91-9.73-1.36-1.25-.17-2.68-.2-3.81-.75.26.13.08.34.14.15.12-.36-.02.23.02.18-.07.11.34-.49.46-.62,1.65-1.75,4.44-2.17,6.63-2.87,3.2-1.01,6.4-2.02,9.6-3.03,2.25-.71,2.5-4.23,0-4.82-5.38-1.27-10.73-2.68-16.04-4.22l1.75,1.75c.07.39-.21.21.11.06-.2.09.48-.31.46-.3.56-.36,1.2-.56,1.84-.72,2.1-.52,4.3-.82,6.45-1.06,4.65-.52,9.34-.59,14.01-.26.97.07,1.94-.68,2.28-1.54.41-1.02.13-1.9-.52-2.73-1.59-2.06-3.19-4.11-4.78-6.17-.8-1.03-1.61-2.04-2.39-3.08-.22-.29-.43-.58-.63-.89-.05-.08-.5-1.21-.42-.69.07-.15.02-.12-.16.11.11-.09.22-.15.35-.2.42-.08.74-.17,1.17-.18.96-.04,1.89.18,2.78.51,1.75.65,3.32,1.81,4.73,3.01,3.56,3.03,6.85,6.45,10.09,9.83s6.53,7.05,9.63,10.72c.87,1.03,2.64.9,3.54,0,1.02-1.02.87-2.5,0-3.54h0Z"/>
    <path class="cls-1" d="M263.24,83.15c3.03-9.57,8.81-18.08,14.53-26.22,1.82-2.59,5.07-6.92,8.75-5.93,2.54.69,3.38,4.31,2.75,6.84-1.07,4.3-5.7,7.12-9.31,9.4l2.52,4.32c2.97-2.25,6.25-4.03,9.8-5.15,2.95-.93,6.89-2.02,9.87-1.26.4.1,1.05.34,1.16.42.1.07.49.61.3.25-.08-.14.02.38.09.09-.24,1.09-1.86,1.73-2.8,2.17-4.07,1.9-8.2,3.69-12.29,5.54-1.66.75-1.61,3.55,0,4.32,3.97,1.9,7.94.82,11.96-.32,2.52-.72,5.05-1.13,7.27.08.77.42,1.17.99,1.04,1.85-.15.94-1.13,1.74-2,2.23-1.39.79-3,.91-4.56,1-2.22.13-4.44.19-6.6.77-1.3.35-2.1,1.78-1.75,3.08.39,1.43,1.73,1.95,3.08,1.75,4.07-.61,8.32-.54,12.37.2,1.07.2,2.13.44,3.19.72.61.17,1.51.31,1.97.8.13.14.13.38.12.48-.09.56-.47,1.13-.94,1.49-1.21.94-3.14.79-4.58.72-1.98-.09-3.94-.23-5.92-.13-3.87.21-7.72.96-11.36,2.29-4.27,1.56-8.14,3.78-11.67,6.63-1.05.85-.88,2.65,0,3.54,1.04,1.04,2.48.85,3.54,0,6.63-5.35,15.19-7.92,23.66-7.44,4.4.25,9.45.16,11.61-4.43.94-2,.93-4.35-.46-6.14s-3.63-2.42-5.75-2.92c-5.63-1.34-11.37-1.48-17.08-.63l1.33,4.82c4.33-1.17,9.02,0,12.96-2.65,3.41-2.29,5.28-6.79,2.57-10.38-2.11-2.8-5.99-3.68-9.33-3.38-2.12.19-4.1.89-6.14,1.44-1.88.51-4.1,1.1-5.96.22v4.32c3.9-1.76,7.8-3.51,11.69-5.27,3.11-1.41,6.48-3.81,5.73-7.71-.63-3.27-4.01-4.65-6.97-4.95-3.41-.35-7.18.51-10.42,1.51-4.03,1.25-7.83,3.18-11.2,5.72-1.08.81-1.64,2.16-.9,3.42.66,1.14,2.27,1.62,3.42.9,4.46-2.82,9.15-5.99,11.18-11.1,1.6-4.02.86-9.43-2.46-12.41-4.34-3.9-10.1-1.96-13.87,1.66-1.99,1.91-3.56,4.21-5.11,6.47-1.69,2.46-3.37,4.94-4.97,7.46-3.61,5.71-6.8,11.71-8.84,18.17-.97,3.07,3.85,4.39,4.82,1.33h0Z"/>
  </g>
  <path class="cls-1" d="M62.33,66.76l10.2,23.64,5.1,11.82c.8,1.85,1.66,3.69,2.37,5.58.61,1.61,1.25,3.42.97,5.17h4.82c-1.12-7.88-5.52-14.66-8.59-21.86-3.32-7.8-3.95-16.17-3.45-24.55.29-4.79.9-9.55,1.55-14.31.17-1.24-.19-2.44-1.45-2.95-1.15-.46-2.47-.07-3.12,1.02-3.28,5.48-6.08,11.21-8.48,17.13-.95,2.35,2.57,4.19,4.18,2.43,8.68-9.5,16.77-19.53,24.22-30.02.71-1,.27-2.54-.64-3.23-1.06-.79-2.29-.61-3.28.2-5.78,4.7-11.53,9.54-15.55,15.9l4.32,2.52c4.86-7.77,11.62-14.18,19.62-18.67l-3.67-2.82c-2.02,6.83-7.08,12.16-10.8,18.08-4.25,6.75-6.41,14.6-5.83,22.58.08,1.11.72,2.1,1.84,2.41.97.27,2.4-.15,2.82-1.15,2.28-5.37,3.55-11,3.65-16.84.02-1.23-.97-2.31-2.17-2.46-1.31-.16-2.28.6-2.74,1.79-2.21,5.71-3.86,11.61-4.94,17.64h4.82c-.78-5.42-.73-11.02.14-16.42l-4.91-.66c-.74,8.9-1.23,18.67,3.97,26.43.96,1.43,3.46,1.81,4.32,0,3.9-8.2,6.59-16.89,7.87-25.88l-4.91-.66c.03,4.97-.41,9.9-1.38,14.77l4.91.66c0-7.37-.02-14.74-.03-22.1,0-2.31-3.61-3.62-4.66-1.26-5.46,12.25-8.25,25.54-8,38.97.06,3.26,4.74,3.17,5,0,.31-3.76.11-7.48-.48-11.21-.44-2.77-5.08-2.13-4.91.66.14,2.25.56,4.43,1.37,6.53l3.67-2.82c-2.1-1.05-3.59-2.76-4.22-5.03l-4.18,2.43c4.12,4.53,7.45,9.69,9.98,15.27,1.09,2.42,4.55.99,4.66-1.26.25-5.05.5-10.1.75-15.16.16-3.23-4.78-3.19-5,0-.5,7.2-1.41,14.35-2.75,21.43-.25,1.33.37,2.7,1.75,3.08,1.22.34,2.82-.41,3.08-1.75,1.42-7.52,2.4-15.13,2.93-22.76h-5c-.25,5.05-.5,10.1-.75,15.16l4.66-1.26c-2.7-5.97-6.35-11.44-10.76-16.28-1.71-1.88-4.83.1-4.18,2.43.96,3.45,3.31,6.41,6.52,8.02,1.75.88,4.52-.62,3.67-2.82-.65-1.68-1.08-3.4-1.19-5.2l-4.91.66c.51,3.27.57,6.59.3,9.88h5c-.23-12.5,2.23-25.01,7.32-36.44l-4.66-1.26c0,7.37.02,14.74.03,22.1,0,2.74,4.35,3.5,4.91.66,1.06-5.3,1.6-10.69,1.56-16.1,0-1.23-.94-2.31-2.17-2.46-1.1-.13-2.57.55-2.74,1.79-1.21,8.54-3.65,16.89-7.37,24.69h4.32c-4.69-7.01-3.96-15.9-3.29-23.91.23-2.78-4.46-3.46-4.91-.66-1.02,6.37-1.06,12.7-.14,19.08.35,2.42,4.4,2.35,4.82,0,1.08-6.03,2.73-11.93,4.94-17.64l-4.91-.66c-.09,4.9-1.05,9.8-2.97,14.32l4.66,1.26c-.55-7.64,1.62-14.71,5.8-21.07,3.89-5.92,8.61-11.35,10.66-18.27.63-2.13-1.81-3.87-3.67-2.82-8.73,4.9-16.1,11.98-21.41,20.46-1.71,2.74,2.6,5.24,4.32,2.52,3.78-5.97,9.35-10.48,14.77-14.89l-3.93-3.03c-7.21,10.14-15.05,19.82-23.44,29l4.18,2.43c2.23-5.51,4.92-10.83,7.98-15.94l-4.57-1.93c-1.19,8.74-2.42,17.6-1.67,26.43.38,4.43,1.2,8.84,2.75,13.02,1.43,3.86,3.32,7.53,5.1,11.24,1.95,4.05,3.67,8.2,4.3,12.69.34,2.4,4.45,2.37,4.82,0,.73-4.63-1.28-8.64-3.07-12.79l-5.3-12.28c-3.6-8.34-7.19-16.67-10.79-25.01-.53-1.24-2.36-1.52-3.42-.9-1.28.75-1.43,2.18-.9,3.42h0Z"/>
  <path class="cls-1" d="M198.49,20.76c8.97,3.18,18.03,6.41,25.97,11.76,6.99,4.7,12.87,10.97,17.93,17.65,2.66,3.52,5.14,7.17,7.54,10.87,1.2,1.85,2.37,3.72,3.54,5.59,1.08,1.74,2.49,3.53,3.24,5.45.7,1.78-.66,3.26-1.86,4.45-1.34,1.34-2.96,2.43-4.73,3.14-2.08.83-4.21.92-6.4,1.25-2.37.35-4.42,1.42-6.1,3.14s-3.07,3.94-4.45,5.97c-1.47,2.17-2.88,4.38-4.1,6.69-2.44,4.64-4.13,9.75-3.81,15.05.14,2.28,3.49,3.65,4.66,1.26,5.25-10.77,11.92-20.8,19.89-29.75l-4.18-2.43c-1.45,6.95-5.07,13.13-10.44,17.79l3.93.51c-7.75-12.16-6.47-29.25,3.24-39.99l-3.93-3.03c-4.25,5.6-8.24,11.4-11.91,17.39-1.7,2.77-3.24,5.71-3.44,9.02-.17,2.88.89,6.05,3.21,7.87,1.47,1.15,3.57.84,4.18-1.1,1.04-3.31,2.79-6.31,5.17-8.84l-3.93-3.03c-2.38,4.77-4.08,9.83-4.95,15.09-.47,2.82,2.87,4.28,4.57,1.93,7.23-10.01,14.45-20.02,21.68-30.03,1.05-1.45-.34-3.97-2.16-3.76-7.72.9-14.6,5.05-18.86,11.59l4.32,2.52c1.6-3.74,3.78-7.15,6.58-10.12l-4.18-2.43c-.62,2.59-1.25,5.18-1.87,7.77-.52,2.17-1.12,4.25-.54,6.48.49,1.88,1.9,3.63,3.99,3.63,2.31,0,3.62-2.2,4.39-4.1,1.32-3.23.94-6.92-.56-10.01-1.59-3.29-5.42-6.45-9.28-5.82-2.75.45-4.18,3.08-5.27,5.39-1.21,2.54-2.06,5.2-2.49,7.98h4.82c-2.13-8.28-3.02-16.77-2.69-25.31l-4.66,1.26c.39.82.78,1.65,1.17,2.47l4.32-2.52c-2.79-4-5.58-7.99-8.37-11.99-.71-1.02-1.93-1.55-3.12-1.02-1.02.45-1.93,1.78-1.45,2.95,2.58,6.21,5.68,12.16,9.38,17.77l4.32-2.52c-4.41-6.01-8.81-12.03-13.22-18.04-.8-1.09-2.17-1.63-3.42-.9-1.12.66-1.64,2.29-.9,3.42,3.08,4.69,7.13,8.62,11.94,11.52,2.56,1.54,4.78-1.84,3.03-3.93-4.71-5.62-9.42-11.25-14.13-16.87l-3.03,3.93c3.37,1.8,6.31,4.13,8.84,6.99,1.72,1.94,4.75-.13,4.18-2.43-2.27-9.1-10.67-15.84-19.99-16.35-2.3-.13-3.12,2.75-1.77,4.27,3.47,3.9,7.78,7.05,12.57,9.13,2.91,1.26,5.26-2.49,2.52-4.32-.38-.25-.46-.5-.57-.91l-2.41,3.16c2.64-.24,4.89.91,7.04,2.35,2.29,1.53,4.43,3.29,6.49,5.11,4.22,3.72,8.09,7.86,11.46,12.37l3.93-3.03c-6.33-5.02-11.5-11.22-15.25-18.37l-4.32,2.52c4.69,8.01,9.38,16.03,14.07,24.04l4.32-2.52c-2.33-3.27-4.99-6.26-8.05-8.86-1.41-1.2-3.63-.81-4.18,1.1l-1.96,6.88h4.82c-.77-4.56-1.32-9.14-1.66-13.75l-4.66,1.26c2.61,5.23,5.22,10.46,7.83,15.69l3.93-3.03c-4.22-4.51-7.58-9.69-10.07-15.34l-4.32,2.52c3.7,8.04,7.4,16.09,11.1,24.13.92,1.99,4.07,1.37,4.57-.6.87-3.41,1.74-6.83,2.61-10.24l-4.18,1.1c4.73,4.32,8.64,9.35,11.65,15l3.93-3.03c-3.09-3.84-5.42-8.28-6.91-12.97l-3.08,3.08c2.49.6,4.59,2.69,4.85,5.31s-1.36,5.23-3.73,6.15l2.43,4.18c1.92-2.4,4.19-4.33,6.9-5.8l-3.67-2.82c-.88,3.22-2.14,6.26-3.8,9.17-.67,1.18-.27,2.72.9,3.42,1.8,1.07,3.69.72,5.26-.55,1.9-1.53-.15-5.09-2.43-4.18-3.6,1.44-6.51-3.71-8.09-6.19-2.74-4.31-5.28-8.76-7.62-13.3-1.06-2.07-3.88-1.27-4.57.6-.41,1.11-1.2,1.98-2.2,2.6-2.74,1.68-.23,6.01,2.52,4.32,2.16-1.33,3.63-3.22,4.5-5.59l-4.57.6c2.69,5.22,5.6,10.36,8.87,15.24,2.62,3.92,7.29,8.62,12.48,6.55l-2.43-4.18c.24-.22.5-.29.8-.23l.9,3.42c1.86-3.26,3.31-6.74,4.3-10.36.59-2.16-1.78-3.85-3.67-2.82-3.04,1.64-5.75,3.88-7.91,6.58-.7.88-1,1.99-.39,3.03.52.89,1.81,1.55,2.82,1.15,4.42-1.72,7.72-6.08,7.4-10.97s-3.84-9.01-8.52-10.13c-1.78-.43-3.68,1.19-3.08,3.08,1.77,5.56,4.55,10.63,8.2,15.18.77.96,2.4.9,3.28.2.99-.79,1.24-2.1.64-3.23-3.19-5.99-7.41-11.43-12.43-16.01-1.35-1.23-3.7-.79-4.18,1.1-.87,3.41-1.74,6.83-2.61,10.24l4.57-.6c-3.7-8.04-7.4-16.09-11.1-24.13-.56-1.23-2.34-1.53-3.42-.9-1.27.75-1.44,2.18-.9,3.42,2.66,6.03,6.36,11.54,10.85,16.35,2.02,2.16,5.15-.58,3.93-3.03-2.61-5.23-5.22-10.46-7.83-15.69-1.09-2.18-4.84-1.19-4.66,1.26.37,5.05.99,10.08,1.84,15.08.43,2.54,4.19,2.22,4.82,0l1.96-6.88-4.18,1.1c2.73,2.32,5.19,4.93,7.27,7.85,1.83,2.58,5.97.31,4.32-2.52-4.69-8.01-9.38-16.03-14.07-24.04-1.63-2.79-5.81-.32-4.32,2.52,3.93,7.48,9.41,14.13,16.04,19.38.98.77,2.23,1.03,3.28.2.88-.7,1.4-2.21.64-3.23-3.81-5.09-8.08-9.8-12.9-13.95-4.46-3.85-10.07-8.91-16.4-8.35-1.61.14-2.85,1.48-2.41,3.16s1.44,2.94,2.86,3.9l2.52-4.32c-4.45-1.94-8.33-4.72-11.55-8.35l-1.77,4.27c7.13.39,13.45,5.8,15.16,12.68l4.18-2.43c-2.79-3.15-6.14-5.79-9.86-7.77-2.59-1.38-4.83,1.78-3.03,3.93,4.71,5.62,9.42,11.25,14.13,16.87l3.03-3.93c-4.07-2.45-7.53-5.75-10.14-9.72l-4.32,2.52c4.41,6.01,8.81,12.03,13.22,18.04.8,1.09,2.17,1.63,3.42.9,1.12-.65,1.64-2.29.9-3.42-3.45-5.24-6.47-10.78-8.88-16.58l-4.57,1.93c2.79,4,5.58,7.99,8.37,11.99,1.85,2.65,5.7.39,4.32-2.52-.39-.82-.78-1.65-1.17-2.47-1.13-2.37-4.57-1.04-4.66,1.26-.35,8.96.63,17.96,2.87,26.64.58,2.24,4.43,2.52,4.82,0,.47-3.01,1.39-5.9,2.91-8.55.21-.37.47-1.03.88-1.26.07-.04-.36.03.09,0,.29-.02.72.18.97.28.59.24,1.31.77,1.84,1.32,2.25,2.37,2.66,6.67.51,9.05l1.1-.64c-.57.2.27.03.44.08.29.05.49.18.62.4.07.11.07.1-.01-.03.03-.06-.02,0-.06-.12-.08-.22-.14-.46-.17-.69.02.14,0-.81,0-.75.04-.31.28-1.2.4-1.67.7-2.91,1.41-5.83,2.11-8.74.56-2.34-2.4-4.31-4.18-2.43-3.08,3.26-5.59,7.01-7.36,11.13-.53,1.24-.37,2.68.9,3.42s2.68.24,3.42-.9c3.21-4.93,8.68-8.43,14.54-9.11l-2.16-3.76c-7.23,10.01-14.45,20.02-21.68,30.03l4.57,1.93c.8-4.83,2.26-9.51,4.44-13.9,1.21-2.43-1.88-5.21-3.93-3.03-2.97,3.17-5.15,6.9-6.45,11.05l4.18-1.1c-4.32-3.38.16-9.51,2.25-12.82,3.33-5.29,6.9-10.42,10.67-15.4,1.72-2.26-2.04-5.12-3.93-3.03-8.71,9.62-11.78,23.59-8.41,36.07.95,3.51,2.43,6.91,4.39,9.98.91,1.43,2.69,1.58,3.93.51,5.94-5.16,10.12-12.29,11.72-19.99.47-2.27-2.4-4.43-4.18-2.43-8.25,9.27-15.24,19.61-20.67,30.76l4.66,1.26c-.28-4.6,1.17-8.9,3.33-12.91,1.1-2.05,2.35-4.02,3.65-5.95,1.22-1.81,2.39-3.75,3.91-5.32,1.6-1.65,3.44-1.77,5.62-2.03,2.36-.28,4.56-.9,6.69-1.95,3.73-1.85,8.33-5.73,8.47-10.23.08-2.48-1.28-4.62-2.53-6.64s-2.39-3.86-3.6-5.78c-2.4-3.79-4.87-7.53-7.5-11.16-5.35-7.36-11.36-14.2-18.66-19.7-8.89-6.69-19.45-10.48-29.83-14.17-1.27-.45-2.74.51-3.08,1.75-.38,1.38.47,2.62,1.75,3.08h0Z"/>
  <path class="cls-1" d="M44.12,115.55c-.5,16.47,3.57,33,11.56,47.4,2.29,4.13,4.92,8.02,7.81,11.75.67.86,2.16.9,3.03.39,1.01-.59,1.36-1.73,1.15-2.82-2.9-15.16-7.7-29.88-14.19-43.87-1.18-2.55-5.51-.74-4.57,1.93,3.15,8.9,7.24,17.41,11.34,25.9,1.22,2.53,5.5.75,4.57-1.93-2.25-6.51-4.5-13.01-6.75-19.52-1.85-5.35-3.36-11.75-8-15.45-1.7-1.36-4.13-.52-4.27,1.77-.29,4.77.07,9.56,1.03,14.24.47,2.28,1.12,4.48,1.85,6.68.25.74.35,1.16.33,1.78-.02.32-.02.37,0,.15-.09.3-.09.33.02.1-.23.37-.12.28.35-.27.73-.13.87-.19.4-.2l2.16,1.24c-2.36-4.61-3.37-9.71-3.1-14.87h-5c-.46,9.6,1.31,19.2,5.08,28.04.82,1.91,1.85,3.88,3.71,4.97,1.95,1.15,4.45.84,6.01-.82s1.87-3.85,2.1-5.96c.29-2.61.11-5.19-.35-7.77-.37-2.05-3.68-2.5-4.57-.6-3.86,8.3-3.66,17.94.67,26.03l4.32-2.52c-4.87-7.28-8.94-15.07-12.06-23.26l-4.57,1.93c6.98,10.81,13.05,22.22,18.02,34.09l4.57-1.93c-3.46-4.64-6.71-9.42-9.75-14.34-1.71-2.77-5.71-.35-4.32,2.52,3.61,7.43,7.21,14.86,10.82,22.29,1.14,2.36,4.57,1.05,4.66-1.26.36-9.39.75-18.77,1.07-28.16.24-6.98-.35-14.64-6.35-19.18-.98-.74-2.55-.25-3.23.64-.79,1.06-.61,2.29.2,3.28,2.42,2.99,4.47,6.29,6.14,9.76.7,1.45,1.78,3.31,1.57,4.98-.23,1.81-1.36,3.61-2,5.29-1.46,3.85-2.35,7.88-2.79,11.97-.37,3.48-.41,7.05.39,10.48.85,3.63,2.82,7.01,6.14,8.87,1.76.99,4.47-.69,3.67-2.82-1.89-5.06-3.53-10.2-4.94-15.42-.72-2.67-5.05-2.2-4.91.66.33,6.71,1.25,13.58,4.49,19.57,2.78,5.14,7.26,9.35,12.88,11.15,1.96.63,4.12-1.89,2.82-3.67l-6.76-9.29-3.93,3.03c5.17,5.15,10.01,10.63,14.41,16.45l3.42-3.42c-2.2-1.63-4.15-3.65-5.74-5.88l-3.93,3.03c3.81,4.06,8.37,7.39,13.42,9.74,1.22.57,2.69.34,3.42-.9.63-1.08.33-2.85-.9-3.42-4.7-2.19-8.87-5.18-12.41-8.96-1.9-2.03-5.6.68-3.93,3.03,2.12,2.97,4.61,5.49,7.54,7.67,1.96,1.46,4.9-1.46,3.42-3.42-4.66-6.16-9.72-12.01-15.2-17.46-1.94-1.93-5.64.67-3.93,3.03l6.76,9.29,2.82-3.67c-10.7-3.43-13.21-16.15-13.69-25.9l-4.91.66c1.4,5.22,3.05,10.36,4.94,15.42l3.67-2.82c-5.31-2.98-4.64-11.36-3.88-16.41.59-3.92,1.73-7.72,3.3-11.36.8-1.86,1.5-3.71,1.27-5.77s-1.09-3.84-1.93-5.65c-1.9-4.1-4.36-7.87-7.2-11.37l-3.03,3.93c2.25,1.7,3.17,4.61,3.6,7.27.51,3.11.33,6.31.21,9.44-.33,8.77-.67,17.55-1,26.32l4.66-1.26c-3.61-7.43-7.21-14.86-10.82-22.29l-4.32,2.52c3.04,4.92,6.29,9.71,9.75,14.34.74,1,1.9,1.56,3.12,1.02,1.02-.45,1.93-1.78,1.45-2.95-5.14-12.28-11.3-24.09-18.52-35.28-.67-1.04-1.96-1.53-3.12-1.02-1.05.46-1.9,1.77-1.45,2.95,3.27,8.6,7.45,16.8,12.56,24.45,1.78,2.66,5.85.34,4.32-2.52-3.43-6.4-3.74-14.38-.67-20.98l-4.57-.6c.34,1.89.41,3.81.25,5.73-.03.4-.37,3.26-.78,3.22.3.03-.2-.34-.17-.29-.35-.53-.74-1-1.03-1.58-.79-1.6-1.39-3.31-1.96-5-2.38-7.06-3.39-14.44-3.04-21.88.15-3.22-4.83-3.2-5,0-.23,4.3.36,8.7,1.78,12.77.69,1.98,1.63,5.72,4.16,5.86,1.9.11,3.41-1.17,3.95-2.94.46-1.51.31-3.25-.16-4.73-.68-2.14-1.36-4.25-1.84-6.45-.94-4.39-1.22-8.88-.95-13.37l-4.27,1.77c4.17,3.33,5.38,9.38,7.04,14.18,2.14,6.2,4.28,12.39,6.43,18.59l4.57-1.93c-3.92-8.1-7.83-16.21-10.84-24.7l-4.57,1.93c6.3,13.59,10.87,27.96,13.69,42.68l4.18-2.43c-9.41-12.16-15.49-27.1-17.32-42.37-.53-4.4-.71-8.83-.58-13.25.1-3.22-4.9-3.22-5,0h0Z"/>
  <path class="cls-1" d="M233.55,205.25c1.66,3.74,2.3,7.83,2.1,11.9-.12,2.36,3.66,3.57,4.66,1.26,4.35-10,8.7-20.01,13.05-30.01,1.1-2.52-1.7-5.05-3.93-3.03-4.97,4.51-9.24,9.76-12.68,15.52-1.5,2.52,1.85,4.86,3.93,3.03,6.58-5.82,12.5-12.3,17.78-19.31l-4.57-1.93c-3.19,7.57-7.41,14.79-12.43,21.29l3.93,3.03c6.78-13.84,13.58-28.06,15.6-43.5.56-4.26.7-8.56.36-12.84-.15-1.92-2.77-3.6-4.27-1.77-3.49,4.27-5.93,9.25-6.95,14.69h4.82c-.77-2.45-1.9-4.75-3.46-6.79-.62-.81-1.4-1.36-2.49-1.19-.94.14-1.86.81-2.08,1.79-.72,3.21-.93,6.48-.53,9.75l4.91-.66c-1.02-2.71-2.25-5.32-3.75-7.8-1.69-2.79-5.68-.35-4.32,2.52,1.74,3.67,3.48,7.34,5.22,11.01,1.22,2.57,5.39.76,4.57-1.93l-3.05-9.92-4.82,1.33c1.28,3.62,2.29,7.33,2.99,11.11.33,1.78.6,3.58.78,5.38.06.57.11,1.28.05,1.71-.03.24-.15.42-.15.51-.09.16-.09.16,0,.01.99-.26,1.19-.39.61-.4l2.41,1.84c-.58-3.13,1.4-6.29,3.24-8.65,2.12-2.72,4.61-5.2,6.23-8.27,1.74-3.31,2.29-7.02,1.49-10.69-.74-3.35-3.06-8.22-7.23-7.37-2.01.41-3.98,1.97-5.65,3.11-1.84,1.26-3.6,2.63-5.29,4.08l3.93,3.03c2.61-5.75,7.76-9.63,12.48-13.62s9.63-8.74,11.36-15.1c.74-2.74-3.12-4.38-4.57-1.93-5.23,8.83-10.27,17.77-15.12,26.82-1.02,1.9.67,4.25,2.82,3.67,6.21-1.67,10.54-6.57,14.44-11.39l-4.18-2.43c-1.86,7.28-4.28,14.43-7.31,21.31l4.57,1.93c2.19-8.5,5.4-16.68,9.59-24.39l-4.57-.6c3.64,9.97-1.94,20.3-6.74,28.84l4.66,1.26c-.26-3.63.99-7.03,3.62-9.56l-4.27-1.77c-1.09,9.92-4.29,19.57-9.23,28.23h4.32c-1.32-1.87-.98-4.18.85-5.64l-4.27-1.77c-.52,7.61-3.72,14.92-8.9,20.49l4.18,2.43c.87-2.08,2.14-4.01,3.65-5.68l-3.93-3.03c-1.36,2.31-3.32,3.97-5.77,5.05l3.67,2.82c2.53-15.05,7.56-29.57,14.95-42.92l-4.57-1.93c-.96,5.18-1.92,10.36-2.88,15.54-.58,3.13,3.85,4.44,4.82,1.33,4.8-15.42,8.66-31.12,11.56-47.01l-4.91-.66-1.43,10.92c-.16,1.21,1.07,2.33,2.17,2.46,1.32.16,2.27-.6,2.74-1.79,2.85-7.14,4.52-14.65,5.1-22.31h-5c.97,11.22-.17,22.47-3.39,33.26-.39,1.29.46,2.72,1.75,3.08,1.4.39,2.6-.48,3.08-1.75l5.21-13.91-4.82-1.33c-1.63,10.53-3.97,20.97-7.59,31s-8.28,18.72-14.36,26.96c-3.36,4.56-7.14,8.8-11.21,12.74l4.27,1.77c-1.07-8-.14-16.25,3.01-23.71.52-1.24.37-2.68-.9-3.42-1.05-.61-2.89-.35-3.42.9-3.5,8.28-4.89,17.29-3.69,26.23.27,2.06,2.57,3.41,4.27,1.77,7.5-7.26,13.97-15.61,19.07-24.71s9.05-19.62,11.72-30.05c1.53-5.98,2.71-12.04,3.65-18.14.49-3.16-3.68-4.38-4.82-1.33l-5.21,13.91,4.82,1.33c3.34-11.18,4.58-22.96,3.57-34.59-.28-3.2-4.76-3.23-5,0-.54,7.21-2.24,14.27-4.92,20.98l4.91.66,1.43-10.92c.36-2.77-4.41-3.43-4.91-.66-2.89,15.89-6.75,31.59-11.56,47.01l4.82,1.33c.96-5.18,1.92-10.36,2.88-15.54.23-1.22-.23-2.46-1.45-2.95-1.12-.45-2.51-.09-3.12,1.02-7.59,13.71-12.86,28.66-15.46,44.11-.38,2.26,1.61,3.73,3.67,2.82,3.18-1.41,5.81-3.85,7.56-6.84,1.41-2.4-1.99-5.19-3.93-3.03-2.12,2.36-3.71,4.97-4.93,7.89-.99,2.36,2.57,4.16,4.18,2.43,6.13-6.59,9.76-15.06,10.37-24.03.07-.97-.68-1.94-1.54-2.28-1.01-.41-1.91-.14-2.73.52-3.41,2.7-4.14,8.16-1.64,11.69,1.05,1.48,3.32,1.74,4.32,0,5.41-9.47,8.73-19.92,9.91-30.76.25-2.27-2.84-3.15-4.27-1.77-3.5,3.37-5.43,8.23-5.08,13.1.17,2.36,3.37,3.55,4.66,1.26,5.45-9.69,11.36-21.42,7.24-32.69-.7-1.91-3.47-2.62-4.57-.6-4.39,8.08-7.8,16.68-10.1,25.59-.31,1.2.29,2.48,1.45,2.95,1.04.42,2.61.13,3.12-1.02,3.2-7.29,5.84-14.79,7.81-22.5.57-2.24-2.53-4.48-4.18-2.43-3.3,4.09-6.93,8.68-12.23,10.1l2.82,3.67c4.85-9.05,9.89-17.99,15.12-26.82l-4.57-1.93c-1.56,5.73-6.34,9.75-10.82,13.52-4.79,4.03-9.87,8.17-12.52,14.01-1.17,2.57,1.7,4.94,3.93,3.03,1.54-1.32,3.14-2.55,4.83-3.68.87-.58,1.75-1.14,2.65-1.66.26-.15.52-.3.79-.45.43-.11.32-.19-.34-.26.01-.05.52.66.56.71,1.88,2.99,2.03,6.81.43,9.95-1.74,3.41-4.61,6.04-6.82,9.12-2.5,3.48-4.03,7.52-3.24,11.83.21,1.14,1.38,1.74,2.41,1.84,2.23.21,3.83-1.65,4.33-3.64.54-2.17.03-4.49-.27-6.66-.69-4.89-1.88-9.7-3.53-14.36-1.06-3-5.78-1.78-4.82,1.33l3.05,9.92,4.57-1.93c-1.74-3.67-3.48-7.34-5.22-11.01l-4.32,2.52c1.27,2.11,2.38,4.3,3.24,6.61.44,1.16,1.44,1.99,2.74,1.79,1.1-.17,2.32-1.21,2.17-2.46-.35-2.83-.27-5.64.35-8.42l-4.57.6c1.31,1.71,2.32,3.54,2.96,5.6.69,2.19,4.34,2.56,4.82,0,.85-4.56,2.72-8.88,5.67-12.48l-4.27-1.77c1.52,19.16-7.07,37.07-15.27,53.82-.55,1.12-.4,2.45.64,3.23.89.67,2.51.8,3.28-.2,5.59-7.24,10.16-15.06,13.72-23.49.48-1.13-.42-2.54-1.45-2.95-1.24-.5-2.35,0-3.12,1.02-5.02,6.66-10.75,12.78-17,18.3l3.93,3.03c3.23-5.42,7.22-10.27,11.9-14.5l-3.93-3.03c-4.35,10-8.7,20.01-13.05,30.01l4.66,1.26c.25-5-.76-9.86-2.78-14.42-.55-1.23-2.35-1.52-3.42-.9-1.27.74-1.45,2.18-.9,3.42h0Z"/>
  <path class="cls-1" d="M89.31,218.51c14.85,15.41,34.99,25.31,56.05,28.67,22.02,3.52,44.47-.18,64.7-9.38,11.4-5.19,21.96-12.13,31.38-20.38,1.02-.89.91-2.63,0-3.54-1.01-1.01-2.52-.89-3.54,0-16.08,14.07-35.81,24.03-56.86,27.94-20.16,3.74-41.45,1.38-60.14-7.16-10.48-4.79-20.05-11.39-28.06-19.69-2.24-2.32-5.77,1.22-3.54,3.54h0Z"/>
</svg>