<?xml version="1.0" encoding="UTF-8"?>
<svg id="_圖層_2" data-name="圖層 2" xmlns="http://www.w3.org/2000/svg" viewBox="0 0 352.74 111.01">
  <defs>
    <style>
      .cls-1 {
        fill: #221714;
        stroke-width: 0px;
      }
    </style>
  </defs>
  <g id="_圖層_1-2" data-name="圖層 1">
    <path class="cls-1" d="m.03,15.7c2.53,19.39,11.82,36.64,26.9,49.16,3.34,2.77,9.28-6.7,5.62-9.74C19.32,44.14,10.37,28.29,8.14,11.2,7.27,4.57-.54,11.37.03,15.7H.03Z"/>
    <path class="cls-1" d="m41.48,10.8c-4.46,16-8.92,32-13.39,48-4.22,15.12-7.5,31.13-14.37,45.33-.85,1.76-2.18,5.23.11,6.56,2.12,1.22,4.91-1.48,5.74-3.18,7.18-14.86,10.92-31.04,15.34-46.87,4.82-17.28,9.64-34.56,14.46-51.84.61-2.19-.61-4.41-2.99-4.06-2.69.4-4.27,3.82-4.9,6.06h0Z"/>
    <path class="cls-1" d="m55.26,30.43c4.38,0,8.68-10.29,3.87-10.29-4.38,0-8.68,10.29-3.87,10.29h0Z"/>
    <path class="cls-1" d="m53.14,46.46c.76,11.03,1.51,22.06,2.27,33.08.46,6.65,8.41-.18,8.11-4.5-.76-11.03-1.51-22.06-2.27-33.08-.46-6.65-8.41.18-8.11,4.5h0Z"/>
    <path class="cls-1" d="m74.28,65.54c9.69.12,19.33-.62,28.89-2.18,4.15-.68,7.64-11.05,1.91-10.12-8.93,1.46-17.88,2.12-26.93,2-4.38-.05-8.71,10.23-3.87,10.29h0Z"/>
    <path class="cls-1" d="m124.67,6.3c-.32,22.77,2.31,45.44,7.8,67.54,1.18,4.73,7.65-2.27,6.77-5.81-5.35-21.5-7.86-43.47-7.54-65.63.03-2.21-1.79-2.88-3.58-2.07-2.08.94-3.42,3.81-3.45,5.97h0Z"/>
    <path class="cls-1" d="m128.17,48.46c10.03-2.04,20.14-3.45,30.35-4.16,3.78-.26,7.38-9.2,3.35-8.92-10.78.75-21.46,2.16-32.05,4.31-3.57.72-6.55,9.76-1.65,8.77h0Z"/>
    <path class="cls-1" d="m161.91,6.27c-4.11,24.89-5.87,50.1-5.22,75.32.15,5.74,7.13-.18,7.03-3.9-.63-24.51,1.03-48.96,5.03-73.15,1.04-6.3-6.15-2.4-6.84,1.74h0Z"/>
    <path class="cls-1" d="m196.95,35.7c-.26-7.85-8.19-5.47-11.83-1.44-4.37,4.84-8.83,12.41-7.26,19.23,1.77,7.69,11.3,12.24,16.94,16.71.28.22,4.49,3.3,4.48,2.85.03.89-4.52,3.89-5.19,4.32-3.83,2.47-9.08,3.37-12.63-.12-3.2-3.14-8.68,4.78-6.05,7.36,4.47,4.38,10.48,4.79,16.08,2.25,5.19-2.35,11.84-7.31,13.87-12.81,2.67-7.22-3.89-10.95-8.86-14.73-3.23-2.46-7.98-5.03-10.3-8.38-1.31-1.9-1.92-3.72-1.17-6.02.49-1.18,1.11-2.29,1.86-3.32.59-1.24,1.6-1.91,3.04-2,.19,5.75,7.16-.17,7.03-3.9h0Z"/>
    <path class="cls-1" d="m210.87,36.32c-2.57,7.78-3.06,16-.77,23.93,1.9,6.59,6.55,16.16,13.59,18.48,8.15,2.68,13-7.25,15.45-13.3,3.76-9.25,5.07-19.33,3.98-29.23-.57-5.23-5.5-.8-6.61,1.66-3.68,8.21-3.19,17.4.02,25.69,2.68,6.92,7.24,14.14,15.56,13.25,3.62-.39,6.7-9.31,1.65-8.77-5.99.64-9.46-7.32-11.02-11.87-2.02-5.9-2.63-11.93-.03-17.72l-6.61,1.66c.67,6.16.48,12.28-1.01,18.31-.73,2.98-1.74,6.67-3.4,9.31-2.56,4.05-5.52,1.76-8.03-.96-7.23-7.85-9.95-19.72-6.61-29.86,2.03-6.14-4.6-5.38-6.18-.58h0Z"/>
    <path class="cls-1" d="m287.86,41.07c-3.23-7.37-16.38-11.15-23.05-6.11-4.24,3.2-4.84,9.27-5.42,14.12-.69,5.8-.88,12.01,1.81,17.37,3.85,7.66,14.12,11.26,20.98,5.23,3.41-2.99,5.17-7.39,5.72-11.8s-1.18-11.44,1.64-14.89l-5.31-.58c-.36,7.63-3.69,39.05,12.59,33.25,2.18-.77,3.89-2.96,4.24-5.25.24-1.55-.34-4.32-2.59-3.52-10.43,3.71-7.46-23.34-7.22-28.39.18-3.73-3.84-2.37-5.31-.58-3.9,4.78-4.72,10.27-4.79,16.27-.03,2.28.59,5.77-.5,7.85-1.49,2.83-5.44,1.93-7.83.78-7.33-3.55-7.32-12.18-6.38-19.18.17-1.13.34-2.26.53-3.39.51-.18,1.03-.24,1.56-.19,1.16-.39,3.33.13,4.52.3,3.09.44,6.66,1.41,8.03,4.54,2.03,4.63,8.24-2.46,6.77-5.81h0Z"/>
    <path class="cls-1" d="m304.36,30.02c.97,14.17.82,28.37-.61,42.5l6.93-2.82c.6-8.38,4.17-16.41,10.13-22.37,2.52-2.52,8.48-8.22,12.22-5.54,3.16,2.26,2.42,8.75,2.31,11.95-.3,8.95-3.7,18.62-1.54,27.49,1.64,6.74,7.65,11.94,14.74,10.36,3.55-.79,6.5-9.85,1.65-8.77-6.4,1.43-9.82-5.54-10.02-10.83-.21-5.85,1.52-11.89,1.95-17.74.48-6.41,1.98-19.82-6.63-21.95s-17.97,8.84-22.26,14.73c-5.71,7.85-8.89,16.91-9.58,26.56-.38,5.3,6.6.45,6.93-2.82,1.5-14.87,1.82-29.75.8-44.67-.39-5.76-7.29.15-7.03,3.9h0Z"/>
  </g>
</svg>