<?xml version="1.0" encoding="UTF-8"?>
<svg id="Layer_1" xmlns="http://www.w3.org/2000/svg" viewBox="0 0 178.14 49.3">
  <path d="M50.58,40.15c-.34,1.84-3.72,2.68-3.92,2.47-.61-.64-1.07-1.37-1.45-2.16-1.78-3.68-2.36-8.2-2.98-12.2-1.33-8.53-1.33-17.32,1.24-25.62.32-1.18-4.69-2.8-5.03-1.7-1.8,6.53-3.56,13.08-5.39,19.6-.77,2.75-1.65,5.5-3.3,7.86-.56.79-1.21,1.5-1.9,2.17-.54-9.28-1.66-18.51-3.37-27.65-.07-.35-6.06-4.21-6.33-1.43-.86,8.6-2.43,17.17-4.88,25.46-1.05,3.56-2.3,7.08-4.02,10.38-.82,1.58-1.75,3.1-2.85,4.51-.33.43-.7.91-1.1,1.39,0-.55.06-1.1.15-1.65.48-2.75-4.8-3.31-5.28-.53-.34,1.98-.11,4,.69,5.84,1,2.32,3.69,3.14,5.81,1.7,3-2.04,5.33-5.58,7.06-8.69,3.89-6.98,5.82-15.14,7.43-22.91.14-.67.26-1.35.39-2.02.78,6.3,1.29,12.62,1.52,18.97.05,1.42,3.82,2.37,4.87,1.87,2.5-1.16,4.65-2.87,6.35-5.04,1.23-1.57,2.08-3.34,2.75-5.19.51,3.8,1.19,7.67,2.31,11.34,1.12,3.67,3.39,6.41,7.01,7.79,3.13,1.2,8.46,1.45,9.26-2.86.24-1.32-4.85-2.69-5.03-1.7Z"/>
  <path d="M57.78,17.41c1.21,0,2.55-.74,2.46-2.12-.09-1.33-1.54-2.28-2.79-2.28s-2.55.74-2.46,2.12c.09,1.33,1.54,2.28,2.79,2.28Z"/>
  <path d="M60.53,23.45c.35-1.24-.16-2.65-1.11-3.51-.68-.62-2.14-1.05-2.49.2-1.93,6.96-1.82,14.31.32,21.21.32,1.03,1.29,2.47,2.53,2.38,1.26-.1,1.28-1.71,1.01-2.59-1.78-5.73-1.86-11.9-.26-17.68Z"/>
  <path d="M86.37,31.48c-1.21,0-2.54.49-3.04,1.66-.39.93-1.06,1.7-1.84,2.32-.65.51-1.58.9-2.21,1.07-.76.21-1.82.28-2.55.16-1.22-.19-2.25-.62-3.03-1.61-1.73-2.17-2.39-5.19-2.77-7.88-.3-2.07-.83-5.35.56-7.19.01-.02.06-.07.1-.11.03,0,.04,0,.08,0,.75.07,1.5.22,2.25.34.86.13,1.76.2,2.6.42.15.04.58.11.68.4.39,1.16,1.81,1.36,2.89,1.18.76-.12,2.74-.89,2.35-2.04-.63-1.87-2.44-2.54-4.25-2.86-2.24-.39-4.74-1-7.01-.71-1.94.25-3.86,1.24-4.8,3.03-.81,1.55-.97,3.23-.95,4.95.04,3.83.78,8.3,2.92,11.56,2.32,3.54,6.79,4.34,10.73,3.73,4.03-.63,7.82-2.89,9.44-6.73.49-1.16-1.4-1.68-2.16-1.68ZM71.44,19.9c-.06.02-.06.01,0,0h0Z"/>
  <path d="M110.37,34.53c-1.11-.57-2.79-.34-3.29.97-.4,1.05-1.02,2.1-1.82,2.76-.16.13-.31.23-.46.31-.08-2.06.39-6.95.46-7.53.35-2.95,1-6.37-.53-9.09-1.54-2.75-4.93-3.76-7.88-3.05-1.06.25-1.99.73-2.81,1.34-.29-6.49-.14-12.92,2.3-19.06.43-1.09-.79-1.27-1.59-1.13-1.04.18-2.66.89-3.09,1.97-5.36,13.48-.15,28.01-2.5,41.9-.19,1.13,1.82.75,2.33.58.97-.32,2.38-1.06,2.57-2.19.8-4.69.69-9.48.43-14.29.66-.28,1.14-.9,1.36-1.71.24-.88,1.09-1.83,2.12-2.35.34-.17,1.03-.34,1.4-.34.3,0,.29-.02.73.11-.34-.1.22.19.33.21.02.04.03.08.06.14.03.29.11.41.14.81.06.7-.03,1.57-.1,2.35-.17,1.92-.45,3.83-.62,5.75-.32,3.6-.84,9.59,3.78,10.66,3.72.86,6.9-2.58,8.09-5.73.49-1.3-.18-2.75-1.4-3.37ZM100.4,23.89s-.02-.01-.02-.02c-.04-.12-.03-.11.02.02Z"/>
  <path d="M128.99,34.17c-.99,2.68-3.41,4.77-6.23,5.28-.74.13-1.5.18-2.23.02-.11-.02-.23-.06-.34-.08-.55-1.46-.61-3.23-.66-4.77-.03-1.04,0-2.08.1-3.12.11.03.22.07.33.08,2.39.24,4.82.33,6.77-1.31,1.57-1.33,2.43-3.4,2.26-5.45-.2-2.43-1.76-4.71-3.54-6.3-1.25-1.11-4.42-3.37-6-1.71-.67.69-1.07,1.83-1.45,2.69-.55,1.22-1,2.49-1.36,3.78-.65,2.32-.97,4.71-1.03,7.11-.12,4.88.88,10.87,6.08,12.87,4.58,1.76,9.61-1.36,11.21-5.72.53-1.45-3.33-4.92-3.9-3.37ZM121.27,24.37c.36-.96,1.25-4.16,2.58-3.86.91.2,1.07.56,1.19,1.54.18,1.59-.61,3.18-1.78,4.22-.88.78-1.89,1.12-2.95,1.23.26-1.06.58-2.11.97-3.13ZM119.91,39.3c-.08-.07-.09-.12,0,0h0Z"/>
  <path d="M140.81,3.39c.27-1.84-4.62-3.78-4.95-1.53-1.79,12.24-1.23,24.66,1.51,36.72.4,1.78,5.35,3.22,4.77.66-2.67-11.74-3.08-23.95-1.34-35.86Z"/>
  <path d="M151.23,3.16c.57-2.46-4.67-2.74-5.15-.68-2.81,12.05-.79,24.31,1.35,36.29.22,1.22,1.63,1.61,2.72,1.56.81-.03,2.8-.57,2.59-1.78-2.07-11.6-4.23-23.71-1.5-35.4Z"/>
  <path d="M177.47,35.46c-1.17-.17-2.52.85-3.29,1.6-.6.58-1.2.9-2.2,1.16-1.19.32-2.46.32-3.67.09-1.35-.25-2.66-.89-3.47-2.02-.82-1.14-1.17-2.53-1.46-3.88-.16-.72-.29-1.45-.41-2.18.04,0,.06.01.1.01,4.19-.15,8.9-3.51,9.25-7.95.07-.86-.1-1.85-.51-2.61-.56-1.02-1.62-1.41-2.66-1.74-2.14-.67-4.19-.99-6.35-.18-2.54.95-4.58,2.91-4.92,5.67-.29,2.3-.09,4.76.17,7.05.46,4.04,1.03,9.49,5.54,10.93,4.99,1.59,10.34-.58,13.94-4.09.56-.55,1.07-1.69-.06-1.86ZM166.71,26.75c-.06.07-.05.04,0,0h0ZM166.75,26.71s0,0,.01,0c.16-.11.09-.05-.01,0ZM166.75,21.86c1.15.83,1.11,2.64.63,3.82-.16.41-.48.83-.62,1-.02.02-.02.02-.03.04-.02.01-.05.02-.07.03-.07,0-.33.04-.35.04-1.24.04-2.45.69-3.29,1.6-.08.08-.17.21-.25.35-.27-2.17-.4-4.35-.31-6.53.01-.34.02-.68.07-1.01.02-.16.08-.32.13-.49.67,0,1.35.17,1.99.36.68.2,1.52.37,2.11.79Z"/>
</svg>